<?xml version="1.0"?>
<svg version="1.1"
     xmlns="http://www.w3.org/2000/svg"
     xmlns:xlink="http://www.w3.org/1999/xlink"
     viewBox="0 0 800 600">
<g>
<text fill="#000000" font-family="sans-serif" font-size="19.0476" text-anchor="start" x="4.7619" y="591.429" >
NIST Chemistry WebBook (https://webbook.nist.gov/chemistry)
</text>
<polyline stroke="#000000" stroke-width="1.19048" fill="none" points="95.2381,514.286
742.857,514.286
742.857,66.6667
95.2381,66.6667
95.2381,514.286" />
<text fill="#000000" font-family="sans-serif" font-size="19.0476" text-anchor="middle" x="419.048" y="24.7619" >
1-HEXENE
</text>
<text fill="#000000" font-family="sans-serif" font-size="19.0476" text-anchor="middle" x="419.048" y="53.3333" >
INFRARED SPECTRUM
</text>
<text fill="#000000" font-family="sans-serif" font-size="19.0476" text-anchor="middle" x="419.048" y="558.095" >
Wavenumber (cm-1)
</text>
<text fill="#000000" font-family="sans-serif" font-size="19.0476" text-anchor="middle" transform="translate(20,290.476) rotate(270)" x="0" y="0" >
Transmitance
</text>
<text fill="#000000" font-family="sans-serif" font-size="19.0476" text-anchor="middle" x="625.562" y="534.286" >
1000
</text>
<line stroke="#000000" stroke-width="1.19048" x1="625.562" y1="514.286" x2="625.562" y2="504.762" />
<text fill="#000000" font-family="sans-serif" font-size="19.0476" text-anchor="middle" x="436.116" y="534.286" >
2000
</text>
<line stroke="#000000" stroke-width="1.19048" x1="436.116" y1="514.286" x2="436.116" y2="504.762" />
<text fill="#000000" font-family="sans-serif" font-size="19.0476" text-anchor="middle" x="246.671" y="534.286" >
3000
</text>
<line stroke="#000000" stroke-width="1.19048" x1="246.671" y1="514.286" x2="246.671" y2="504.762" />
<line stroke="#000000" stroke-width="1.19048" x1="739.229" y1="514.286" x2="739.229" y2="509.524" />
<line stroke="#000000" stroke-width="1.19048" x1="720.284" y1="514.286" x2="720.284" y2="509.524" />
<line stroke="#000000" stroke-width="1.19048" x1="701.34" y1="514.286" x2="701.34" y2="509.524" />
<line stroke="#000000" stroke-width="1.19048" x1="682.395" y1="514.286" x2="682.395" y2="509.524" />
<line stroke="#000000" stroke-width="1.19048" x1="663.451" y1="514.286" x2="663.451" y2="509.524" />
<line stroke="#000000" stroke-width="1.19048" x1="644.506" y1="514.286" x2="644.506" y2="509.524" />
<line stroke="#000000" stroke-width="1.19048" x1="625.562" y1="514.286" x2="625.562" y2="509.524" />
<line stroke="#000000" stroke-width="1.19048" x1="606.617" y1="514.286" x2="606.617" y2="509.524" />
<line stroke="#000000" stroke-width="1.19048" x1="587.673" y1="514.286" x2="587.673" y2="509.524" />
<line stroke="#000000" stroke-width="1.19048" x1="568.728" y1="514.286" x2="568.728" y2="509.524" />
<line stroke="#000000" stroke-width="1.19048" x1="549.784" y1="514.286" x2="549.784" y2="509.524" />
<line stroke="#000000" stroke-width="1.19048" x1="530.839" y1="514.286" x2="530.839" y2="509.524" />
<line stroke="#000000" stroke-width="1.19048" x1="511.894" y1="514.286" x2="511.894" y2="509.524" />
<line stroke="#000000" stroke-width="1.19048" x1="492.95" y1="514.286" x2="492.95" y2="509.524" />
<line stroke="#000000" stroke-width="1.19048" x1="474.005" y1="514.286" x2="474.005" y2="509.524" />
<line stroke="#000000" stroke-width="1.19048" x1="455.061" y1="514.286" x2="455.061" y2="509.524" />
<line stroke="#000000" stroke-width="1.19048" x1="436.116" y1="514.286" x2="436.116" y2="509.524" />
<line stroke="#000000" stroke-width="1.19048" x1="417.172" y1="514.286" x2="417.172" y2="509.524" />
<line stroke="#000000" stroke-width="1.19048" x1="398.227" y1="514.286" x2="398.227" y2="509.524" />
<line stroke="#000000" stroke-width="1.19048" x1="379.283" y1="514.286" x2="379.283" y2="509.524" />
<line stroke="#000000" stroke-width="1.19048" x1="360.338" y1="514.286" x2="360.338" y2="509.524" />
<line stroke="#000000" stroke-width="1.19048" x1="341.393" y1="514.286" x2="341.393" y2="509.524" />
<line stroke="#000000" stroke-width="1.19048" x1="322.449" y1="514.286" x2="322.449" y2="509.524" />
<line stroke="#000000" stroke-width="1.19048" x1="303.504" y1="514.286" x2="303.504" y2="509.524" />
<line stroke="#000000" stroke-width="1.19048" x1="284.56" y1="514.286" x2="284.56" y2="509.524" />
<line stroke="#000000" stroke-width="1.19048" x1="265.615" y1="514.286" x2="265.615" y2="509.524" />
<line stroke="#000000" stroke-width="1.19048" x1="246.671" y1="514.286" x2="246.671" y2="509.524" />
<line stroke="#000000" stroke-width="1.19048" x1="227.726" y1="514.286" x2="227.726" y2="509.524" />
<line stroke="#000000" stroke-width="1.19048" x1="208.782" y1="514.286" x2="208.782" y2="509.524" />
<line stroke="#000000" stroke-width="1.19048" x1="189.837" y1="514.286" x2="189.837" y2="509.524" />
<line stroke="#000000" stroke-width="1.19048" x1="170.893" y1="514.286" x2="170.893" y2="509.524" />
<line stroke="#000000" stroke-width="1.19048" x1="151.948" y1="514.286" x2="151.948" y2="509.524" />
<line stroke="#000000" stroke-width="1.19048" x1="133.003" y1="514.286" x2="133.003" y2="509.524" />
<line stroke="#000000" stroke-width="1.19048" x1="114.059" y1="514.286" x2="114.059" y2="509.524" />
<line stroke="#000000" stroke-width="1.19048" x1="95.1144" y1="514.286" x2="95.1144" y2="509.524" />
<text fill="#000000" font-family="sans-serif" font-size="19.0476" text-anchor="end" x="90.4762" y="359.463" >
0.4
</text>
<line stroke="#000000" stroke-width="1.19048" x1="95.2381" y1="355.177" x2="104.762" y2="355.177" />
<text fill="#000000" font-family="sans-serif" font-size="19.0476" text-anchor="end" x="90.4762" y="196.693" >
0.8
</text>
<line stroke="#000000" stroke-width="1.19048" x1="95.2381" y1="192.407" x2="104.762" y2="192.407" />
<line stroke="#000000" stroke-width="1.19048" x1="95.2381" y1="477.255" x2="100" y2="477.255" />
<line stroke="#000000" stroke-width="1.19048" x1="95.2381" y1="436.563" x2="100" y2="436.563" />
<line stroke="#000000" stroke-width="1.19048" x1="95.2381" y1="395.87" x2="100" y2="395.87" />
<line stroke="#000000" stroke-width="1.19048" x1="95.2381" y1="355.177" x2="100" y2="355.177" />
<line stroke="#000000" stroke-width="1.19048" x1="95.2381" y1="314.485" x2="100" y2="314.485" />
<line stroke="#000000" stroke-width="1.19048" x1="95.2381" y1="273.792" x2="100" y2="273.792" />
<line stroke="#000000" stroke-width="1.19048" x1="95.2381" y1="233.1" x2="100" y2="233.1" />
<line stroke="#000000" stroke-width="1.19048" x1="95.2381" y1="192.407" x2="100" y2="192.407" />
<line stroke="#000000" stroke-width="1.19048" x1="95.2381" y1="151.714" x2="100" y2="151.714" />
<line stroke="#000000" stroke-width="1.19048" x1="95.2381" y1="111.022" x2="100" y2="111.022" />
<line stroke="#000000" stroke-width="1.19048" x1="95.2381" y1="70.329" x2="100" y2="70.329" />
<polyline stroke="#FF0000" stroke-width="1.19048" fill="none" points="742.857,105.732
742.692,106.139
742.527,106.139
742.362,106.139
742.197,106.139
742.032,106.139
741.868,106.139
741.703,106.139
741.538,106.139
741.373,106.139
741.208,106.139
741.043,106.139
740.878,106.139
740.713,106.139
740.548,105.732
740.383,105.732
740.218,105.732
740.054,105.732
739.889,104.918
739.724,104.918
739.559,105.732
739.394,104.918
739.229,104.511
739.064,104.511
738.899,104.511
738.734,104.104
738.569,103.29
738.404,103.29
738.239,102.476
738.075,102.476
737.91,102.476
737.745,101.662
737.58,101.255
737.415,101.255
737.25,101.255
737.085,101.255
736.92,101.255
736.755,101.255
736.59,100.849
736.425,100.849
736.26,100.035
736.096,99.6277
735.931,99.6277
735.766,98.8139
735.601,98.8139
735.436,98.8139
735.271,98.8139
735.106,98.8139
734.941,98.8139
734.776,98.8139
734.611,98.8139
734.446,98.8139
734.282,98.8139
734.117,98.8139
733.952,98.8139
733.787,98.8139
733.622,98.8139
733.457,98.8139
733.292,98.8139
733.127,98.8139
732.962,98.8139
732.797,98.8139
732.632,98.8139
732.467,99.6277
732.303,99.6277
732.138,99.6277
731.973,99.6277
731.808,99.6277
731.643,99.6277
731.478,99.6277
731.313,99.6277
731.148,99.6277
730.983,99.6277
730.818,98.8139
730.653,99.6277
730.488,99.6277
730.324,99.6277
730.159,99.6277
729.994,99.6277
729.829,99.6277
729.664,98.8139
729.499,99.6277
729.334,99.6277
729.169,99.6277
729.004,98.8139
728.839,98.8139
728.674,98.8139
728.51,98.8139
728.345,98.8139
728.18,98.8139
728.015,98.4069
727.85,98.4069
727.685,98.4069
727.52,98
727.355,97.1862
727.19,96.7792
727.025,96.3723
726.86,96.3723
726.695,96.3723
726.531,95.5585
726.366,95.5585
726.201,95.1515
726.036,94.7446
725.871,93.9307
725.706,93.9307
725.541,92.71
725.376,92.71
725.211,92.303
725.046,92.303
724.881,92.303
724.716,91.8961
724.552,91.8961
724.387,91.8961
724.222,91.0822
724.057,91.0822
723.892,91.0822
723.727,91.0822
723.562,91.0822
723.397,90.6754
723.232,90.2684
723.067,90.2684
722.902,90.2684
722.737,90.2684
722.573,90.2684
722.408,89.4546
722.243,89.4546
722.078,89.0476
721.913,89.0476
721.748,89.0476
721.583,89.0476
721.418,89.4546
721.253,89.4546
721.088,89.4546
720.923,89.4546
720.759,89.4546
720.594,89.4546
720.429,90.2684
720.264,90.2684
720.099,90.2684
719.934,90.2684
719.769,90.2684
719.604,90.2684
719.439,90.2684
719.274,90.2684
719.109,90.6754
718.944,90.6754
718.78,90.6754
718.615,90.6754
718.45,90.6754
718.285,91.0822
718.12,91.0822
717.955,91.0822
717.79,91.0822
717.625,91.0822
717.46,91.8961
717.295,91.8961
717.13,91.8961
716.966,91.8961
716.801,92.303
716.636,92.71
716.471,92.71
716.306,92.71
716.141,93.5238
715.976,93.5238
715.811,93.9307
715.646,93.9307
715.481,94.7446
715.316,94.7446
715.151,95.1515
714.987,95.1515
714.822,95.5585
714.657,96.3723
714.492,96.7792
714.327,97.1862
714.162,98.4069
713.997,99.6277
713.832,100.849
713.667,101.255
713.502,101.662
713.337,102.476
713.172,103.29
713.008,104.918
712.843,107.359
712.678,109.394
712.513,110.615
712.348,110.615
712.183,111.022
712.018,112.242
711.853,115.498
711.688,118.346
711.523,120.788
711.358,121.602
711.194,124.043
711.029,126.078
710.864,127.706
710.699,128.52
710.534,128.926
710.369,128.926
710.204,126.892
710.039,124.45
709.874,121.195
709.709,119.567
709.544,117.939
709.379,115.498
709.215,110.615
709.05,107.766
708.885,106.139
708.72,104.918
708.555,102.883
708.39,101.662
708.225,100.035
708.06,98.4069
707.895,98
707.73,97.1862
707.565,96.7792
707.4,96.7792
707.236,95.1515
707.071,93.5238
706.906,92.71
706.741,92.71
706.576,92.71
706.411,92.71
706.246,92.303
706.081,92.303
705.916,92.303
705.751,92.303
705.586,92.303
705.422,92.303
705.257,92.303
705.092,92.71
704.927,92.71
704.762,92.71
704.597,92.71
704.432,92.71
704.267,92.71
704.102,92.71
703.937,92.71
703.772,92.71
703.607,92.71
703.443,93.9307
703.278,95.1515
703.113,95.5585
702.948,95.5585
702.783,96.3723
702.618,96.3723
702.453,97.1862
702.288,97.1862
702.123,98
701.958,98.4069
701.793,98.4069
701.628,99.6277
701.464,100.849
701.299,101.255
701.134,102.476
700.969,102.883
700.804,104.511
700.639,105.732
700.474,106.952
700.309,107.766
700.144,110.208
699.979,110.615
699.814,111.022
699.649,113.463
699.485,117.939
699.32,121.195
699.155,125.264
698.99,127.706
698.825,130.147
698.66,133.81
698.495,138.245
698.33,142.762
698.165,146.831
698,150.087
697.835,154.97
697.671,160.26
697.506,165.55
697.341,170.433
697.176,176.089
697.011,180.972
696.846,186.669
696.681,190.779
696.516,193.221
696.351,195.255
696.186,196.069
696.021,196.883
695.857,196.883
695.692,196.069
695.527,194.442
695.362,194.442
695.197,191.593
695.032,190.779
694.867,187.931
694.702,186.303
694.537,183.862
694.372,180.606
694.207,178.978
694.042,174.909
693.878,171.247
693.713,167.991
693.548,165.143
693.383,162.701
693.218,159.446
693.053,155.784
692.888,154.97
692.723,151.714
692.558,148.052
692.393,146.831
692.228,145.61
692.063,143.576
691.899,141.948
691.734,139.913
691.569,138.286
691.404,137.472
691.239,135.844
691.074,134.623
690.909,131.775
690.744,128.926
690.579,126.078
690.414,122.823
690.249,119.974
690.084,117.533
689.92,114.684
689.755,110.208
689.59,107.766
689.425,104.918
689.26,101.662
689.095,98.4069
688.93,96.7792
688.765,96.3723
688.6,95.5585
688.435,95.5585
688.27,93.9307
688.106,92.71
687.941,91.8961
687.776,91.0822
687.611,90.2684
687.446,89.0476
687.281,87.8268
687.116,87.42
686.951,86.6061
686.786,85.7922
686.621,84.9784
686.456,84.5714
686.291,83.3507
686.127,82.9437
685.962,82.9437
685.797,82.9437
685.632,82.5368
685.467,82.5368
685.302,82.5368
685.137,82.5368
684.972,81.723
684.807,81.723
684.642,81.723
684.477,81.723
684.312,81.316
684.148,81.316
683.983,81.316
683.818,81.316
683.653,81.316
683.488,81.723
683.323,81.723
683.158,81.723
682.993,81.723
682.828,80.5022
682.663,80.5022
682.498,80.5022
682.333,80.5022
682.169,81.316
682.004,81.316
681.839,81.316
681.674,81.316
681.509,81.316
681.344,81.723
681.179,81.316
681.014,81.316
680.849,81.316
680.684,81.723
680.519,82.5368
680.355,82.5368
680.19,82.9437
680.025,83.3507
679.86,84.1645
679.695,84.5714
679.53,84.9784
679.365,85.7922
679.2,86.1992
679.035,87.8268
678.87,89.4546
678.705,92.303
678.54,95.5585
678.376,98
678.211,100.035
678.046,101.255
677.881,108.58
677.716,111.836
677.551,115.498
677.386,121.195
677.221,128.479
677.056,135.803
676.891,136.658
676.726,137.472
676.561,137.472
676.397,137.879
676.232,138.286
676.067,138.286
675.902,139.507
675.737,141.134
675.572,142.355
675.407,142.355
675.242,142.762
675.077,142.355
674.912,141.134
674.747,139.913
674.583,139.1
674.418,139.1
674.253,138.286
674.088,136.251
673.923,133.403
673.758,128.926
673.593,124.45
673.428,119.974
673.263,104.104
673.098,98
672.933,92.71
672.768,89.4546
672.604,84.5714
672.439,78.1013
672.274,74.3983
672.109,72.7706
671.944,71.9568
671.779,71.1429
671.614,70.329
671.449,69.5152
671.284,69.1082
671.119,68.2944
670.954,67.8875
670.789,67.8875
670.625,67.4805
670.46,67.4805
670.295,66.6667
670.13,66.6667
669.965,67.4805
669.8,67.4805
669.635,67.8875
669.47,68.2944
669.305,69.1082
669.14,69.5152
668.975,70.329
668.81,70.736
668.646,71.1429
668.481,72.3636
668.316,72.3636
668.151,73.5844
667.986,73.9914
667.821,75.2121
667.656,76.8398
667.491,78.8745
667.326,81.316
667.161,84.5714
666.996,84.9784
666.832,85.7922
666.667,86.6061
666.502,86.6061
666.337,87.42
666.172,86.6061
666.007,86.6061
665.842,86.1992
665.677,86.1992
665.512,86.1992
665.347,84.9784
665.182,84.9784
665.018,84.5714
664.853,82.5368
664.688,80.5022
664.523,78.0606
664.358,76.4329
664.193,75.619
664.028,75.619
663.863,75.619
663.698,75.619
663.533,76.4329
663.368,76.4329
663.203,76.4329
663.039,76.8398
662.874,77.2468
662.709,78.0606
662.544,78.4675
662.379,78.8745
662.214,80.5022
662.049,81.316
661.884,81.723
661.719,82.9437
661.554,83.3507
661.389,83.3507
661.224,83.3507
661.06,83.3507
660.895,84.1645
660.73,84.1645
660.565,84.5714
660.4,84.9784
660.235,84.9784
660.07,85.7922
659.905,85.7922
659.74,84.9784
659.575,84.9784
659.41,84.1645
659.245,82.5368
659.081,81.723
658.916,80.5022
658.751,80.0953
658.586,79.6883
658.421,80.0953
658.256,80.5022
658.091,81.316
657.926,82.5368
657.761,82.9437
657.596,83.3507
657.431,84.1645
657.266,84.5714
657.102,84.9784
656.937,85.7922
656.772,87.42
656.607,88.6407
656.442,90.2684
656.277,90.6754
656.112,94.7446
655.947,95.5585
655.782,97.1862
655.617,98.8139
655.452,100.849
655.287,101.662
655.123,105.732
654.958,110.208
654.793,112.242
654.628,115.091
654.463,119.567
654.298,124.043
654.133,129.7
653.968,135.803
653.803,138.286
653.638,141.134
653.473,143.983
653.309,146.017
653.144,148.459
652.979,148.866
652.814,149.68
652.649,149.68
652.484,148.866
652.319,148.866
652.154,148.459
651.989,148.052
651.824,148.052
651.659,147.238
651.495,147.238
651.33,148.052
651.165,148.459
651,148.866
650.835,149.68
650.67,149.68
650.505,150.087
650.34,150.494
650.175,151.714
650.01,152.121
649.845,152.935
649.68,154.156
649.516,154.563
649.351,154.97
649.186,155.784
649.021,155.784
648.856,155.784
648.691,156.191
648.526,157.411
648.361,159.446
648.196,161.887
648.031,164.329
647.866,166.771
647.701,170.026
647.536,173.281
647.372,178.531
647.207,185.082
647.042,188.745
646.877,194.442
646.712,198.918
646.547,211.126
646.382,226.548
646.217,231.879
646.052,236.762
645.887,246.081
645.722,254.219
645.558,264.026
645.393,291.249
645.228,296.58
645.063,302.277
644.898,323.397
644.733,349.399
644.568,375.849
644.403,396.603
644.238,435.179
644.073,457.601
643.908,477.255
643.743,497.195
643.579,505.74
643.414,511.844
643.249,513.879
643.084,514.286
642.919,514.286
642.754,509.403
642.589,499.677
642.424,471.314
642.259,463.013
642.094,442.667
641.929,428.017
641.765,409.339
641.6,387.365
641.435,370.681
641.27,354.811
641.105,338.982
640.94,322.705
640.775,304.393
640.61,283.152
640.445,275.013
640.28,267.688
640.115,263.212
639.95,260.364
639.786,255.481
639.621,250.19
639.456,244.127
639.291,237.21
639.126,223.415
638.961,210.719
638.796,199.325
638.631,192.814
638.466,188.338
638.301,183.455
638.136,176.13
637.971,170.026
637.807,162.335
637.642,155.824
637.477,150.534
637.312,147.238
637.147,142.762
636.982,137.879
636.817,133.81
636.652,130.554
636.487,129.74
636.322,126.892
636.157,125.264
635.993,122.823
635.828,121.195
635.663,119.974
635.498,119.567
635.333,118.346
635.168,117.939
635.003,117.533
634.838,116.719
634.673,116.719
634.508,116.719
634.343,116.719
634.178,116.719
634.014,116.719
633.849,116.719
633.684,117.533
633.519,117.939
633.354,117.939
633.189,119.567
633.024,120.788
632.859,120.788
632.694,122.416
632.529,124.45
632.364,125.671
632.199,127.299
632.035,129.74
631.87,130.147
631.705,132.182
631.54,132.996
631.375,136.658
631.21,139.1
631.045,141.948
630.88,144.39
630.715,148.052
630.55,151.714
630.385,156.597
630.221,162.701
630.056,167.991
629.891,172.874
629.726,178.938
629.561,186.669
629.396,208.196
629.231,223.252
629.066,232.286
628.901,250.19
628.736,270.496
628.571,289.215
628.406,308.34
628.242,352.207
628.077,366.531
627.912,383.581
627.747,429.035
627.582,436.929
627.417,436.97
627.252,429.238
627.087,411.781
626.922,390.621
626.757,378.413
626.592,363.357
626.427,321.118
626.263,291.819
626.098,281.565
625.933,270.171
625.768,248.97
625.603,217.636
625.438,207.87
625.273,189.599
625.108,183.862
624.943,179.385
624.778,173.281
624.613,167.991
624.448,161.928
624.284,156.231
624.119,150.494
623.954,147.238
623.789,141.948
623.624,138.286
623.459,137.472
623.294,136.658
623.129,135.844
622.964,135.03
622.799,133.81
622.634,134.623
622.47,134.623
622.305,135.03
622.14,135.844
621.975,136.251
621.81,136.658
621.645,137.472
621.48,137.879
621.315,137.879
621.15,137.879
620.985,137.879
620.82,138.286
620.656,138.286
620.491,139.1
620.326,139.1
620.161,139.1
619.996,139.1
619.831,138.286
619.666,137.879
619.501,137.879
619.336,136.251
619.171,134.623
619.006,132.182
618.841,129.74
618.677,126.892
618.512,124.45
618.347,121.195
618.182,120.788
618.017,119.16
617.852,115.498
617.687,115.091
617.522,113.87
617.357,111.836
617.192,111.836
617.027,111.022
616.862,110.208
616.698,108.987
616.533,108.987
616.368,107.766
616.203,107.359
616.038,106.952
615.873,106.952
615.708,106.139
615.543,104.918
615.378,104.918
615.213,104.511
615.048,104.511
614.883,104.104
614.719,104.104
614.554,104.104
614.389,104.104
614.224,104.511
614.059,104.511
613.894,104.511
613.729,104.511
613.564,104.511
613.399,104.511
613.234,104.511
613.069,104.511
612.905,104.511
612.74,104.104
612.575,104.104
612.41,102.476
612.245,102.476
612.08,102.476
611.915,102.476
611.75,101.662
611.585,101.255
611.42,101.255
611.255,100.849
611.09,100.849
610.926,100.035
610.761,99.6277
610.596,99.6277
610.431,99.6277
610.266,99.6277
610.101,100.035
609.936,101.255
609.771,101.662
609.606,102.476
609.441,102.476
609.276,104.104
609.111,104.918
608.947,105.732
608.782,106.952
608.617,107.359
608.452,109.394
608.287,110.615
608.122,110.615
607.957,111.022
607.792,115.457
607.627,118.346
607.462,120.788
607.297,124.043
607.133,126.078
606.968,127.299
606.803,128.926
606.638,129.74
606.473,128.926
606.308,126.892
606.143,126.892
605.978,125.671
605.813,123.636
605.648,120.788
605.483,119.16
605.318,113.056
605.154,108.987
604.989,104.918
604.824,101.662
604.659,98.4069
604.494,97.1862
604.329,96.3723
604.164,95.1515
603.999,93.9307
603.834,92.71
603.669,92.303
603.504,92.303
603.339,92.303
603.175,92.71
603.01,92.71
602.845,92.71
602.68,93.5238
602.515,93.9307
602.35,94.7446
602.185,95.5585
602.02,97.1862
601.855,98.4069
601.69,99.6277
601.525,100.849
601.36,101.662
601.196,102.476
601.031,103.29
600.866,104.511
600.701,104.918
600.536,105.732
600.371,105.732
600.206,105.732
600.041,105.732
599.876,104.918
599.711,104.918
599.546,104.511
599.382,104.104
599.217,103.29
599.052,102.883
598.887,102.476
598.722,101.662
598.557,100.849
598.392,99.6277
598.227,98.4069
598.062,98
597.897,97.1862
597.732,96.7792
597.568,96.3723
597.403,96.3723
597.238,95.1515
597.073,93.9307
596.908,93.9307
596.743,93.5238
596.578,92.71
596.413,92.303
596.248,92.303
596.083,91.8961
595.918,91.0822
595.753,91.0822
595.589,90.6754
595.424,90.2684
595.259,89.0476
595.094,88.6407
594.929,88.6407
594.764,89.0476
594.599,89.4546
594.434,90.2684
594.269,90.6754
594.104,91.0822
593.939,91.0822
593.774,90.6754
593.609,90.6754
593.445,90.2684
593.28,89.0476
593.115,87.8268
592.95,87.42
592.785,87.42
592.62,87.42
592.455,86.6061
592.29,86.1992
592.125,86.1992
591.96,86.1992
591.795,86.1992
591.63,85.7922
591.466,85.7922
591.301,85.7922
591.136,85.7922
590.971,85.7922
590.806,86.1992
590.641,86.1992
590.476,86.1992
590.311,86.1992
590.146,86.6061
589.981,86.6061
589.817,87.42
589.652,87.8268
589.487,88.6407
589.322,89.0476
589.157,89.4546
588.992,89.4546
588.827,90.2684
588.662,91.0822
588.497,91.8961
588.332,91.8961
588.167,92.303
588.002,92.71
587.838,93.5238
587.673,94.7446
587.508,95.5585
587.343,96.3723
587.178,96.7792
587.013,98
586.848,98.8139
586.683,100.035
586.518,101.255
586.353,101.662
586.188,101.662
586.023,102.476
585.859,104.918
585.694,105.732
585.529,106.139
585.364,106.139
585.199,106.952
585.034,106.952
584.869,106.952
584.704,106.139
584.539,105.732
584.374,104.511
584.209,104.104
584.044,102.476
583.88,101.662
583.715,101.662
583.55,102.476
583.385,102.476
583.22,102.883
583.055,103.29
582.89,104.104
582.725,104.511
582.56,104.918
582.395,105.732
582.23,106.139
582.066,106.952
581.901,106.952
581.736,106.952
581.571,107.359
581.406,107.766
581.241,108.58
581.076,108.987
580.911,110.208
580.746,110.615
580.581,110.615
580.416,111.022
580.251,113.056
580.087,114.684
579.922,116.312
579.757,117.533
579.592,117.939
579.427,119.16
579.262,119.567
579.097,119.567
578.932,119.567
578.767,117.939
578.602,116.719
578.437,114.684
578.272,110.208
578.108,110.208
577.943,108.987
577.778,108.58
577.613,107.766
577.448,107.766
577.283,107.766
577.118,107.766
576.953,107.766
576.788,107.766
576.623,108.58
576.458,108.58
576.293,108.987
576.129,108.987
575.964,110.208
575.799,110.615
575.634,110.615
575.469,110.615
575.304,111.022
575.139,111.022
574.974,111.836
574.809,111.836
574.644,113.056
574.479,114.684
574.315,115.498
574.15,116.312
573.985,116.719
573.82,117.939
573.655,119.567
573.49,119.974
573.325,121.195
573.16,122.823
572.995,124.043
572.83,125.264
572.665,126.892
572.5,128.52
572.336,129.74
572.171,131.775
572.006,133.81
571.841,135.844
571.676,137.879
571.511,139.1
571.346,140.727
571.181,141.134
571.016,142.355
570.851,142.355
570.686,143.983
570.521,146.017
570.357,150.087
570.192,152.935
570.027,154.97
569.862,155.784
569.697,155.784
569.532,154.97
569.367,154.97
569.202,154.156
569.037,152.121
568.872,150.494
568.707,149.68
568.542,148.052
568.378,146.831
568.213,145.61
568.048,144.39
567.883,143.983
567.718,141.948
567.553,139.913
567.388,139.507
567.223,139.1
567.058,138.286
566.893,137.879
566.729,137.472
566.564,137.472
566.399,136.658
566.234,136.658
566.069,136.658
565.904,137.472
565.739,137.879
565.574,137.879
565.409,138.286
565.244,138.286
565.079,138.286
564.914,139.1
564.75,139.1
564.585,139.1
564.42,139.1
564.255,138.286
564.09,137.879
563.925,136.658
563.76,136.658
563.595,136.658
563.43,136.251
563.265,136.251
563.1,135.03
562.935,135.03
562.771,136.251
562.606,137.472
562.441,138.286
562.276,139.1
562.111,140.727
561.946,142.355
561.781,145.61
561.616,147.238
561.451,153.342
561.286,156.191
561.121,157.411
560.956,157.818
560.792,157.411
560.627,154.563
560.462,150.494
560.297,147.238
560.132,145.61
559.967,143.576
559.802,142.762
559.637,142.762
559.472,143.576
559.307,143.983
559.142,143.983
558.978,144.39
558.813,144.39
558.648,145.203
558.483,146.017
558.318,146.017
558.153,146.831
557.988,147.238
557.823,147.238
557.658,148.459
557.493,150.087
557.328,153.342
557.163,154.97
556.999,154.97
556.834,155.784
556.669,156.191
556.504,156.191
556.339,158.225
556.174,159.446
556.009,161.074
555.844,163.515
555.679,163.922
555.514,167.991
555.349,171.654
555.184,174.095
555.02,178.938
554.855,194.035
554.69,205.429
554.525,216.823
554.36,235.094
554.195,248.115
554.03,275.339
553.865,282.297
553.7,282.338
553.535,279.082
553.37,264.107
553.205,255.074
553.041,215.236
552.876,203.394
552.711,194.035
552.546,180.647
552.381,176.537
552.216,172.468
552.051,170.026
551.886,168.805
551.721,163.556
551.556,159.446
551.391,159.039
551.227,158.225
551.062,156.191
550.897,155.784
550.732,155.784
550.567,154.97
550.402,154.563
550.237,154.563
550.072,154.563
549.907,154.97
549.742,155.784
549.577,155.784
549.412,156.191
549.248,157.818
549.083,159.039
548.918,160.26
548.753,161.887
548.588,162.701
548.423,163.922
548.258,165.143
548.093,168.398
547.928,172.874
547.763,181.013
547.598,191.186
547.433,202.946
547.269,223.293
547.104,230.617
546.939,235.907
546.774,236.762
546.609,231.065
546.444,223.333
546.279,214.381
546.114,202.173
545.949,195.662
545.784,194.035
545.619,194.035
545.454,193.221
545.29,194.035
545.125,195.255
544.96,198.511
544.795,202.173
544.63,208.277
544.465,213.567
544.3,223.74
544.135,235.094
543.97,242.052
543.805,250.15
543.641,255.481
543.476,261.137
543.311,266.468
543.146,273.385
542.981,286
542.816,299.388
542.651,311.189
542.486,314.485
542.321,310.416
542.156,305.166
541.991,299.469
541.826,293.365
541.661,290.069
541.497,290.069
541.332,288.849
541.167,289.255
541.002,290.069
540.837,290.476
540.672,291.697
540.507,293.325
540.342,296.58
540.177,300.609
540.012,306.753
539.847,310.009
539.682,315.706
539.518,331.942
539.353,351.474
539.188,362.055
539.023,368.972
538.858,369.42
538.693,369.013
538.528,366.165
538.363,363.316
538.198,356.805
538.033,355.991
537.868,354.771
537.704,354.771
537.539,360.468
537.374,366.938
537.209,374.262
537.044,380.366
536.879,383.662
536.714,383.662
536.549,377.152
536.384,336.093
536.219,292.185
536.054,270.578
535.89,255.114
535.725,235.582
535.56,208.358
535.395,201.4
535.23,191.634
535.065,187.117
534.9,184.675
534.735,182.641
534.57,177.758
534.405,174.502
534.24,172.874
534.075,172.468
533.911,172.468
533.746,171.247
533.581,170.433
533.416,170.026
533.251,169.619
533.086,169.619
532.921,169.619
532.756,169.619
532.591,168.805
532.426,168.805
532.261,169.619
532.096,170.026
531.932,171.247
531.767,171.654
531.602,171.654
531.437,172.468
531.272,172.468
531.107,172.874
530.942,173.281
530.777,176.13
530.612,178.571
530.447,179.385
530.282,180.199
530.117,182.641
529.953,183.862
529.788,185.489
529.623,187.117
529.458,188.338
529.293,190.779
529.128,193.221
528.963,194.035
528.798,195.662
528.633,196.069
528.468,198.511
528.303,201.359
528.139,202.987
527.974,205.022
527.809,207.463
527.644,209.498
527.479,213.567
527.314,215.195
527.149,216.009
526.984,217.636
526.819,218.857
526.654,222.113
526.489,223.333
526.324,225.775
526.16,227.81
525.995,229.437
525.83,231.065
525.665,233.913
525.5,235.948
525.335,236.762
525.17,239.61
525.005,242.052
524.84,243.273
524.675,247.342
524.51,250.19
524.345,254.26
524.181,257.108
524.016,264.392
523.851,267.281
523.686,270.944
523.521,272.571
523.356,278.268
523.191,283.965
523.026,289.255
522.861,292.918
522.696,293.732
522.531,295.359
522.366,298.208
522.202,299.836
522.037,301.056
521.872,302.684
521.707,303.905
521.542,304.312
521.377,303.905
521.212,301.463
521.047,299.836
520.882,299.429
520.717,299.022
520.552,296.173
520.388,292.104
520.223,289.255
520.058,286.814
519.893,283.152
519.728,279.082
519.563,273.792
519.398,270.13
519.233,266.468
519.068,262.398
518.903,261.178
518.738,256.701
518.573,254.26
518.409,251.818
518.244,248.156
518.079,244.9
517.914,243.273
517.749,240.424
517.584,237.983
517.419,236.762
517.254,235.541
517.089,235.134
516.924,233.913
516.759,233.507
516.594,231.879
516.43,231.065
516.265,230.658
516.1,230.658
515.935,229.844
515.77,229.437
515.605,227.403
515.44,226.182
515.275,225.775
515.11,223.74
514.945,222.113
514.78,220.485
514.616,217.229
514.451,215.195
514.286,212.753
514.121,209.905
513.956,207.87
513.791,204.615
513.626,201.359
513.461,197.29
513.296,195.255
513.131,192.407
512.966,189.965
512.802,186.71
512.637,182.234
512.472,180.199
512.307,178.571
512.142,174.909
511.977,172.468
511.812,170.026
511.647,167.178
511.482,165.55
511.317,163.515
511.152,161.074
510.987,160.26
510.822,159.039
510.658,157.411
510.493,156.191
510.328,155.784
510.163,155.784
509.998,155.784
509.833,156.191
509.668,156.597
509.503,156.597
509.338,156.597
509.173,156.597
509.008,156.191
508.844,156.191
508.679,156.191
508.514,156.191
508.349,156.191
508.184,155.784
508.019,155.784
507.854,156.191
507.689,156.191
507.524,158.225
507.359,160.26
507.194,160.667
507.029,161.074
506.865,162.294
506.7,163.922
506.535,167.178
506.37,171.654
506.205,176.537
506.04,184.635
505.875,194.401
505.71,207.829
505.545,223.252
505.38,240.424
505.215,253.446
505.05,290.029
504.886,308.747
504.721,327.873
504.556,352.288
504.391,383.581
504.226,424.599
504.061,424.762
503.896,418.699
503.731,407.264
503.566,380.407
503.401,285.674
503.236,261.218
503.071,234.361
502.907,203.882
502.742,197.29
502.577,185.123
502.412,176.578
502.247,168.439
502.082,162.294
501.917,160.26
501.752,156.191
501.587,154.156
501.422,151.307
501.257,148.459
501.093,147.238
500.928,146.017
500.763,144.39
500.598,143.576
500.433,141.134
500.268,139.507
500.103,138.286
499.938,137.472
499.773,135.844
499.608,133.81
499.443,132.996
499.279,132.182
499.114,130.554
498.949,130.554
498.784,130.554
498.619,130.147
498.454,128.926
498.289,128.52
498.124,127.706
497.959,127.706
497.794,127.299
497.629,126.892
497.464,126.892
497.299,126.078
497.135,126.078
496.97,125.671
496.805,125.671
496.64,125.264
496.475,124.45
496.31,124.45
496.145,124.043
495.98,123.636
495.815,123.636
495.65,123.636
495.485,122.823
495.32,122.823
495.156,122.823
494.991,122.823
494.826,122.823
494.661,122.823
494.496,122.823
494.331,122.823
494.166,122.823
494.001,122.823
493.836,123.636
493.671,123.636
493.506,123.636
493.342,122.823
493.177,122.416
493.012,121.602
492.847,121.195
492.682,121.195
492.517,121.195
492.352,121.195
492.187,120.788
492.022,121.195
491.857,121.195
491.692,120.788
491.528,120.788
491.363,120.788
491.198,120.788
491.033,119.974
490.868,119.974
490.703,120.788
490.538,119.974
490.373,120.788
490.208,120.788
490.043,120.788
489.878,120.788
489.713,119.974
489.549,119.974
489.384,119.974
489.219,119.974
489.054,119.974
488.889,119.974
488.724,119.974
488.559,119.974
488.394,119.974
488.229,119.974
488.064,119.974
487.899,119.974
487.734,119.974
487.57,119.974
487.405,119.974
487.24,119.974
487.075,119.567
486.91,119.974
486.745,119.974
486.58,119.974
486.415,119.974
486.25,119.974
486.085,119.974
485.92,119.974
485.755,119.974
485.591,119.974
485.426,119.567
485.261,119.567
485.096,119.16
484.931,119.16
484.766,119.16
484.601,118.346
484.436,118.346
484.271,118.346
484.106,118.346
483.941,118.346
483.777,118.346
483.612,118.346
483.447,118.346
483.282,118.346
483.117,118.346
482.952,118.346
482.787,118.346
482.622,118.346
482.457,118.346
482.292,118.346
482.127,118.346
481.962,118.346
481.798,119.16
481.633,119.16
481.468,119.567
481.303,119.567
481.138,119.16
480.973,119.16
480.808,118.346
480.643,118.346
480.478,118.346
480.313,118.346
480.148,118.346
479.983,118.346
479.819,118.346
479.654,118.346
479.489,118.346
479.324,118.346
479.159,118.346
478.994,119.16
478.829,119.16
478.664,119.567
478.499,119.974
478.334,119.974
478.169,119.974
478.005,119.974
477.84,119.974
477.675,119.974
477.51,119.974
477.345,119.974
477.18,119.974
477.015,119.974
476.85,119.974
476.685,120.788
476.52,120.788
476.355,121.195
476.19,121.195
476.026,121.195
475.861,121.602
475.696,121.602
475.531,122.416
475.366,122.823
475.201,123.636
475.036,124.043
474.871,124.45
474.706,125.671
474.541,126.078
474.376,126.078
474.211,126.892
474.047,127.299
473.882,127.706
473.717,129.74
473.552,129.74
473.387,130.147
473.222,130.554
473.057,132.182
472.892,133.81
472.727,134.623
472.562,136.251
472.397,137.472
472.233,137.879
472.068,141.134
471.903,142.762
471.738,144.39
471.573,146.831
471.408,148.052
471.243,153.342
471.078,155.784
470.913,158.225
470.748,161.074
470.583,163.515
470.418,163.922
470.254,165.55
470.089,166.771
469.924,166.771
469.759,166.771
469.594,166.364
469.429,164.329
469.264,164.329
469.099,163.515
468.934,161.074
468.769,159.039
468.604,155.784
468.439,154.563
468.275,151.307
468.11,147.238
467.945,146.017
467.78,144.39
467.615,143.576
467.45,139.913
467.285,139.1
467.12,137.879
466.955,136.658
466.79,135.844
466.625,133.81
466.461,133.403
466.296,132.182
466.131,130.147
465.966,130.147
465.801,129.74
465.636,128.926
465.471,128.52
465.306,127.706
465.141,127.299
464.976,126.892
464.811,126.078
464.646,126.078
464.482,125.671
464.317,124.45
464.152,124.45
463.987,124.043
463.822,124.043
463.657,123.636
463.492,123.636
463.327,123.636
463.162,123.636
462.997,123.636
462.832,122.823
462.667,122.823
462.503,122.416
462.338,122.416
462.173,122.416
462.008,122.416
461.843,121.195
461.678,121.195
461.513,121.195
461.348,121.195
461.183,121.195
461.018,121.195
460.853,121.602
460.688,121.195
460.524,120.788
460.359,120.788
460.194,120.788
460.029,120.788
459.864,120.788
459.699,119.974
459.534,119.974
459.369,119.974
459.204,119.974
459.039,119.974
458.874,119.974
458.71,119.974
458.545,119.974
458.38,119.974
458.215,119.974
458.05,119.974
457.885,119.974
457.72,119.974
457.555,119.974
457.39,120.788
457.225,120.788
457.06,120.788
456.895,120.788
456.731,121.195
456.566,121.195
456.401,121.195
456.236,121.195
456.071,121.602
455.906,121.602
455.741,121.602
455.576,121.602
455.411,121.602
455.246,121.602
455.081,121.602
454.916,121.602
454.752,121.602
454.587,121.195
454.422,121.195
454.257,121.195
454.092,120.788
453.927,120.788
453.762,120.788
453.597,119.974
453.432,119.974
453.267,119.974
453.102,119.974
452.938,119.567
452.773,119.974
452.608,119.974
452.443,119.974
452.278,119.974
452.113,119.974
451.948,119.974
451.783,119.974
451.618,119.974
451.453,119.974
451.288,119.974
451.123,119.567
450.959,119.567
450.794,119.567
450.629,119.567
450.464,119.567
450.299,119.974
450.134,119.974
449.969,119.974
449.804,119.974
449.639,119.974
449.474,119.974
449.309,119.974
449.144,119.974
448.98,119.974
448.815,119.974
448.65,119.567
448.485,119.567
448.32,119.567
448.155,119.974
447.99,119.974
447.825,119.974
447.66,119.974
447.495,119.974
447.33,120.788
447.165,120.788
447.001,120.788
446.836,120.788
446.671,120.788
446.506,120.788
446.341,120.788
446.176,120.788
446.011,120.788
445.846,121.195
445.681,121.195
445.516,121.195
445.351,121.195
445.187,121.195
445.022,121.195
444.857,120.788
444.692,120.788
444.527,120.788
444.362,119.974
444.197,119.974
444.032,119.16
443.867,117.533
443.702,116.719
443.537,116.719
443.372,121.195
443.208,122.823
443.043,123.636
442.878,124.043
442.713,124.043
442.548,124.043
442.383,124.45
442.218,125.264
442.053,125.671
441.888,126.078
441.723,126.892
441.558,127.299
441.393,127.706
441.229,127.706
441.064,128.926
440.899,129.74
440.734,130.147
440.569,130.147
440.404,130.554
440.239,130.554
440.074,131.368
439.909,131.368
439.744,131.368
439.579,131.368
439.415,131.368
439.25,130.554
439.085,130.554
438.92,130.147
438.755,130.147
438.59,130.147
438.425,130.147
438.26,129.74
438.095,129.74
437.93,128.926
437.765,128.926
437.6,128.926
437.436,128.52
437.271,128.52
437.106,128.52
436.941,127.706
436.776,127.706
436.611,127.706
436.446,127.299
436.281,127.299
436.116,127.299
435.951,127.095
435.786,126.892
435.621,126.892
435.457,126.892
435.292,126.892
435.127,126.892
434.962,126.281
434.797,125.671
434.632,125.671
434.467,125.671
434.302,125.671
434.137,125.671
433.972,125.468
433.807,125.264
433.643,125.264
433.478,125.264
433.313,125.264
433.148,125.264
432.983,125.264
432.818,125.264
432.653,125.264
432.488,125.264
432.323,125.264
432.158,125.264
431.993,125.264
431.828,125.264
431.664,125.264
431.499,125.264
431.334,125.264
431.169,125.264
431.004,125.264
430.839,125.264
430.674,125.468
430.509,125.671
430.344,125.874
430.179,126.078
430.014,126.078
429.849,126.078
429.685,126.078
429.52,126.078
429.355,126.078
429.19,126.078
429.025,126.078
428.86,126.078
428.695,126.078
428.53,126.078
428.365,126.078
428.2,126.078
428.035,126.078
427.871,126.078
427.706,125.915
427.541,125.712
427.376,125.671
427.211,125.671
427.046,125.671
426.881,125.671
426.716,125.671
426.551,125.671
426.386,125.671
426.221,125.671
426.056,125.671
425.892,125.671
425.727,125.671
425.562,125.671
425.397,125.834
425.232,126.037
425.067,126.078
424.902,126.078
424.737,126.078
424.572,126.078
424.407,126.078
424.242,126.078
424.077,126.078
423.913,126.078
423.748,126.404
423.583,126.81
423.418,126.892
423.253,126.892
423.088,126.892
422.923,126.892
422.758,126.892
422.593,126.892
422.428,126.566
422.263,126.159
422.099,125.915
421.934,125.712
421.769,125.508
421.604,125.305
421.439,125.264
421.274,125.264
421.109,125.264
420.944,125.264
420.779,124.939
420.614,124.532
420.449,124.45
420.284,124.45
420.12,124.45
419.955,124.45
419.79,124.45
419.625,124.45
419.46,124.45
419.295,124.45
419.13,124.45
418.965,124.45
418.8,124.287
418.635,124.084
418.47,124.043
418.306,124.043
418.141,124.043
417.976,124.043
417.811,124.043
417.646,124.043
417.481,124.043
417.316,124.043
417.151,123.881
416.986,123.677
416.821,123.636
416.656,123.636
416.491,123.799
416.327,124.003
416.162,123.881
415.997,123.677
415.832,123.636
415.667,123.636
415.502,123.636
415.337,123.636
415.172,123.311
415.007,122.904
414.842,122.823
414.677,122.823
414.512,122.823
414.348,122.823
414.183,122.823
414.018,122.823
413.853,122.823
413.688,122.823
413.523,122.823
413.358,122.823
413.193,122.823
413.028,122.823
412.863,122.823
412.698,122.823
412.533,122.823
412.369,122.823
412.204,122.66
412.039,122.456
411.874,122.416
411.709,122.416
411.544,122.416
411.379,122.416
411.214,122.416
411.049,122.416
410.884,122.578
410.719,122.782
410.555,122.823
410.39,122.823
410.225,122.823
410.06,122.823
409.895,122.823
409.73,122.823
409.565,122.823
409.4,122.823
409.235,122.823
409.07,122.823
408.905,122.823
408.74,122.823
408.576,122.823
408.411,122.823
408.246,122.823
408.081,122.823
407.916,122.823
407.751,122.823
407.586,122.823
407.421,122.823
407.256,122.823
407.091,122.823
406.926,122.823
406.761,122.823
406.597,122.823
406.432,122.823
406.267,123.107
406.102,123.514
405.937,123.758
405.772,123.962
405.607,124.043
405.442,124.043
405.277,124.043
405.112,124.043
404.947,124.043
404.782,124.043
404.618,124.043
404.453,124.043
404.288,124.043
404.123,124.043
403.958,124.043
403.793,124.043
403.628,124.043
403.463,124.043
403.298,124.043
403.133,124.043
402.968,124.043
402.804,124.043
402.639,124.043
402.474,124.043
402.309,124.043
402.144,124.043
401.979,124.043
401.814,124.043
401.649,124.043
401.484,124.043
401.319,124.043
401.154,124.043
400.989,124.043
400.825,124.043
400.66,124.043
400.495,124.043
400.33,124.043
400.165,124.043
400,124.043
399.835,124.043
399.67,124.043
399.505,124.043
399.34,124.165
399.175,124.369
399.01,124.45
398.846,124.45
398.681,124.45
398.516,124.45
398.351,124.45
398.186,124.45
398.021,124.45
397.856,124.45
397.691,124.45
397.526,124.45
397.361,124.45
397.196,124.45
397.031,124.45
396.867,124.45
396.702,124.694
396.537,125.101
396.372,125.264
396.207,125.264
396.042,125.264
395.877,125.264
395.712,125.264
395.547,125.264
395.382,125.264
395.217,125.264
395.053,125.264
394.888,125.264
394.723,125.264
394.558,125.264
394.393,125.264
394.228,125.264
394.063,125.264
393.898,125.264
393.733,125.264
393.568,125.264
393.403,125.264
393.238,125.264
393.074,125.264
392.909,125.264
392.744,125.264
392.579,125.264
392.414,125.264
392.249,125.264
392.084,125.264
391.919,125.264
391.754,125.264
391.589,125.264
391.424,125.264
391.26,125.264
391.095,125.264
390.93,125.264
390.765,125.264
390.6,125.264
390.435,125.264
390.27,125.264
390.105,125.345
389.94,125.549
389.775,125.752
389.61,125.956
389.445,126.078
389.281,126.078
389.116,126.078
388.951,126.078
388.786,126.078
388.621,126.078
388.456,126.078
388.291,126.078
388.126,126.281
387.961,126.688
387.796,126.892
387.631,126.892
387.466,126.892
387.302,126.892
387.137,126.973
386.972,127.177
386.807,127.299
386.642,127.299
386.477,127.38
386.312,127.584
386.147,127.706
385.982,127.706
385.817,127.706
385.652,127.706
385.487,127.868
385.323,128.275
385.158,128.601
384.993,128.804
384.828,128.926
384.663,128.926
384.498,129.089
384.333,129.496
384.168,129.74
384.003,129.74
383.838,129.74
383.673,129.74
383.509,129.74
383.344,129.74
383.179,129.822
383.014,130.025
382.849,130.229
382.684,130.432
382.519,130.798
382.354,131.409
382.189,131.775
382.024,131.775
381.859,131.694
381.694,131.49
381.53,131.368
381.365,131.368
381.2,131.368
381.035,131.368
380.87,131.205
380.705,130.798
380.54,130.473
380.375,130.269
380.21,130.147
380.045,130.147
379.88,130.147
379.716,130.147
379.551,130.147
379.386,130.147
379.221,130.147
379.056,130.147
378.891,130.147
378.726,130.147
378.561,130.147
378.396,130.147
378.231,130.147
378.066,130.147
377.901,130.147
377.737,130.147
377.572,130.229
377.407,130.432
377.242,130.473
377.077,130.269
376.912,130.066
376.747,129.862
376.582,129.74
376.417,129.74
376.252,129.74
376.087,129.74
375.922,129.618
375.758,129.211
375.593,129.049
375.428,129.455
375.263,129.984
375.098,130.798
374.933,131.49
374.768,131.897
374.603,132.1
374.438,131.897
374.273,131.571
374.108,130.961
373.943,130.432
373.779,130.025
373.614,129.333
373.449,127.868
373.284,126.77
373.119,126.363
372.954,126.648
372.789,128.479
372.624,129.74
372.459,129.74
372.294,129.618
372.129,129.211
371.965,128.764
371.8,128.153
371.635,127.584
371.47,127.177
371.305,126.729
371.14,126.119
370.975,125.508
370.81,124.898
370.645,124.654
370.48,125.468
370.315,126.241
370.15,126.851
369.986,127.258
369.821,127.055
369.656,126.892
369.491,126.892
369.326,126.77
369.161,126.363
368.996,126.078
368.831,126.078
368.666,126.037
368.501,125.834
368.336,125.63
368.172,125.427
368.007,125.264
367.842,125.264
367.677,125.264
367.512,125.264
367.347,125.264
367.182,125.264
367.017,125.264
366.852,125.264
366.687,125.305
366.522,125.508
366.357,125.671
366.193,125.671
366.028,125.671
365.863,125.671
365.698,125.671
365.533,125.671
365.368,125.671
365.203,125.671
365.038,125.671
364.873,125.671
364.708,125.671
364.543,125.671
364.378,125.671
364.214,125.671
364.049,125.671
363.884,125.671
363.719,125.671
363.554,125.671
363.389,125.671
363.224,125.671
363.059,125.671
362.894,125.671
362.729,125.671
362.564,125.671
362.399,125.671
362.235,125.671
362.07,125.63
361.905,125.427
361.74,125.183
361.575,124.776
361.41,124.45
361.245,124.45
361.08,124.45
360.915,124.45
360.75,124.45
360.585,124.45
360.421,124.45
360.256,124.45
360.091,124.45
359.926,124.45
359.761,124.45
359.596,124.45
359.431,124.45
359.266,124.45
359.101,124.45
358.936,124.45
358.771,124.45
358.606,124.45
358.442,124.45
358.277,124.45
358.112,124.45
357.947,124.45
357.782,124.45
357.617,124.45
357.452,124.45
357.287,124.45
357.122,124.45
356.957,124.45
356.792,124.45
356.628,124.45
356.463,124.45
356.298,124.45
356.133,124.45
355.968,124.45
355.803,124.45
355.638,124.45
355.473,124.45
355.308,124.45
355.143,124.45
354.978,124.45
354.813,124.45
354.649,124.45
354.484,124.45
354.319,124.45
354.154,124.45
353.989,124.45
353.824,124.45
353.659,124.45
353.494,124.45
353.329,124.45
353.164,124.45
352.999,124.45
352.834,124.45
352.67,124.45
352.505,124.45
352.34,124.45
352.175,124.45
352.01,124.45
351.845,124.45
351.68,124.45
351.515,124.45
351.35,124.45
351.185,124.45
351.02,124.45
350.855,124.45
350.691,124.45
350.526,124.45
350.361,124.45
350.196,124.45
350.031,124.45
349.866,124.45
349.701,124.45
349.536,124.45
349.371,124.45
349.206,124.45
349.041,124.45
348.877,124.45
348.712,124.45
348.547,124.45
348.382,124.45
348.217,124.45
348.052,124.45
347.887,124.45
347.722,124.45
347.557,124.45
347.392,124.45
347.227,124.45
347.062,124.45
346.898,124.45
346.733,124.45
346.568,124.45
346.403,124.45
346.238,124.45
346.073,124.45
345.908,124.45
345.743,124.857
345.578,125.264
345.413,125.264
345.248,125.264
345.083,125.264
344.919,125.264
344.754,125.264
344.589,125.264
344.424,125.264
344.259,125.264
344.094,125.264
343.929,125.264
343.764,125.264
343.599,125.264
343.434,125.468
343.269,125.671
343.105,125.671
342.94,125.671
342.775,125.874
342.61,126.078
342.445,126.078
342.28,126.078
342.115,126.078
341.95,126.078
341.785,126.078
341.62,126.078
341.455,126.078
341.29,126.078
341.126,126.444
340.961,126.851
340.796,126.892
340.631,126.892
340.466,126.526
340.301,126.119
340.136,126.444
339.971,126.851
339.806,126.892
339.641,126.892
339.476,126.892
339.311,126.892
339.147,126.892
338.982,126.892
338.817,127.095
338.652,127.299
338.487,127.299
338.322,127.299
338.157,127.299
337.992,127.299
337.827,127.502
337.662,127.706
337.497,128.072
337.332,128.479
337.168,128.723
337.003,128.926
336.838,128.926
336.673,128.926
336.508,128.926
336.343,128.926
336.178,128.926
336.013,128.926
335.848,128.926
335.683,128.926
335.518,128.926
335.354,128.926
335.189,128.926
335.024,128.926
334.859,128.926
334.694,128.926
334.529,129.293
334.364,129.7
334.199,129.74
334.034,129.74
333.869,129.903
333.704,130.107
333.539,130.147
333.375,130.147
333.21,130.147
333.045,130.147
332.88,130.147
332.715,130.147
332.55,130.147
332.385,130.147
332.22,130.147
332.055,130.147
331.89,130.147
331.725,130.147
331.561,130.147
331.396,130.147
331.231,130.147
331.066,130.147
330.901,130.31
330.736,130.513
330.571,130.391
330.406,130.188
330.241,130.31
330.076,130.513
329.911,131.042
329.746,131.653
329.582,131.775
329.417,131.775
329.252,131.775
329.087,131.775
328.922,131.775
328.757,131.775
328.592,131.775
328.427,131.775
328.262,131.938
328.097,132.141
327.932,132.182
327.767,132.182
327.603,132.507
327.438,132.914
327.273,132.996
327.108,132.996
326.943,133.158
326.778,133.362
326.613,133.403
326.448,133.403
326.283,133.403
326.118,133.403
325.953,133.24
325.788,133.036
325.624,133.158
325.459,133.362
325.294,133.403
325.129,133.403
324.964,133.403
324.799,133.403
324.634,133.403
324.469,133.403
324.304,133.403
324.139,133.403
323.974,133.403
323.81,133.403
323.645,133.565
323.48,133.769
323.315,133.81
323.15,133.81
322.985,133.81
322.82,133.81
322.655,133.81
322.49,133.81
322.325,133.81
322.16,133.81
321.995,133.81
321.831,133.81
321.666,133.81
321.501,133.81
321.336,133.81
321.171,133.81
321.006,133.81
320.841,133.81
320.676,134.094
320.511,134.501
320.346,134.623
320.181,134.623
320.016,134.786
319.852,134.99
319.687,135.03
319.522,135.03
319.357,135.315
319.192,135.722
319.027,135.844
318.862,135.844
318.697,135.966
318.532,136.17
318.367,136.251
318.202,136.251
318.038,136.251
317.873,136.251
317.708,136.251
317.543,136.251
317.378,136.251
317.213,136.251
317.048,136.373
316.883,136.577
316.718,136.658
316.553,136.658
316.388,137.065
316.223,137.675
316.059,138.001
315.894,138.204
315.729,138.286
315.564,138.286
315.399,138.571
315.234,138.978
315.069,139.1
314.904,139.1
314.739,139.1
314.574,139.1
314.409,139.751
314.244,140.768
314.08,141.134
313.915,141.134
313.75,141.134
313.585,141.134
313.42,141.134
313.255,141.134
313.09,141.134
312.925,141.134
312.76,141.134
312.595,141.134
312.43,141.134
312.266,141.134
312.101,141.134
311.936,141.134
311.771,141.134
311.606,141.134
311.441,141.378
311.276,141.785
311.111,142.07
310.946,142.274
310.781,142.477
310.616,142.681
310.451,143.128
310.286,143.739
310.122,144.105
309.957,144.308
309.792,144.634
309.627,145.041
309.462,145.203
309.297,145.203
309.132,145.326
308.967,145.529
308.802,145.488
308.637,145.285
308.472,145.203
308.308,145.203
308.143,144.959
307.978,144.552
307.813,144.268
307.648,144.064
307.483,143.983
307.318,143.983
307.153,143.861
306.988,143.657
306.823,143.332
306.658,142.925
306.493,142.64
306.329,142.436
306.164,142.355
305.999,142.355
305.834,142.233
305.669,142.029
305.504,141.704
305.339,141.338
305.174,140.809
305.009,140.198
304.844,139.791
304.679,139.588
304.515,139.384
304.35,139.181
304.185,138.896
304.02,138.489
303.855,138.489
303.69,138.896
303.525,139.1
303.36,139.1
303.195,139.222
303.03,139.425
302.865,139.507
302.7,139.507
302.536,139.629
302.371,139.832
302.206,140.117
302.041,140.524
301.876,140.849
301.711,141.053
301.546,141.338
301.381,141.745
301.216,142.029
301.051,142.233
300.886,142.355
300.721,142.355
300.557,142.477
300.392,142.681
300.227,142.965
300.062,143.372
299.897,143.657
299.732,143.861
299.567,144.064
299.402,144.268
299.237,144.674
299.072,145.285
298.907,145.692
298.742,145.895
298.578,146.221
298.413,146.628
298.248,147.116
298.083,147.726
297.918,148.54
297.753,149.558
297.588,150.738
297.423,152.162
297.258,153.016
297.093,153.22
296.928,153.342
296.764,153.342
296.599,153.342
296.434,153.342
296.269,153.261
296.104,153.057
295.939,152.65
295.774,152.04
295.609,151.267
295.444,150.249
295.279,149.151
295.114,147.93
294.949,147.238
294.785,147.238
294.62,147.157
294.455,146.953
294.29,146.831
294.125,146.831
293.96,146.668
293.795,146.262
293.63,146.017
293.465,146.017
293.3,146.262
293.135,146.872
292.971,147.238
292.806,147.238
292.641,147.401
292.476,147.808
292.311,148.133
292.146,148.337
291.981,148.54
291.816,148.744
291.651,149.029
291.486,149.436
291.321,149.68
291.156,149.68
290.992,149.68
290.827,149.68
290.662,149.68
290.497,149.68
290.332,149.761
290.167,149.965
290.002,150.087
289.837,150.087
289.672,150.168
289.507,150.371
289.342,150.656
289.177,151.063
289.013,151.389
288.848,151.592
288.683,151.918
288.518,152.528
288.353,153.016
288.188,153.22
288.023,153.505
287.858,153.912
287.693,154.319
287.528,154.726
287.363,155.133
287.198,155.539
287.034,155.784
286.869,155.784
286.704,156.068
286.539,156.882
286.374,157.778
286.209,158.795
286.044,159.649
285.879,160.26
285.714,160.952
285.549,161.765
285.384,162.376
285.22,162.579
285.055,162.823
284.89,163.23
284.725,163.637
284.56,164.044
284.395,164.695
284.23,165.957
284.065,167.096
283.9,168.113
283.735,169.009
283.57,169.619
283.405,170.27
283.241,171.084
283.076,171.898
282.911,172.712
282.746,173.729
282.581,175.153
282.416,176.618
282.251,178.246
282.086,180.158
281.921,182.803
281.756,184.96
281.591,185.978
281.427,187.158
281.262,188.785
281.097,190.535
280.932,192.57
280.767,194.686
280.602,196.924
280.437,199.284
280.272,201.888
280.107,204.981
279.942,209.254
279.777,213.486
279.612,217.514
279.448,221.421
279.283,224.88
279.118,228.461
278.953,232.53
278.788,236.64
278.623,240.913
278.458,245.063
278.293,248.929
278.128,253.161
277.963,258.655
277.798,264.433
277.633,271.188
277.469,277.984
277.304,284.901
277.139,290.965
276.974,294.627
276.809,298.33
276.644,302.196
276.479,306.835
276.314,313.915
276.149,320.833
275.984,327.14
275.819,333.326
275.654,339.226
275.49,344.76
275.325,349.236
275.16,353.997
274.995,359.898
274.83,366.653
274.665,376.582
274.5,385.941
274.335,393.103
274.17,399.37
274.005,402.422
273.84,406.898
273.676,416.664
273.511,426.593
273.346,437.336
273.181,447.55
273.016,455.688
272.851,462.85
272.686,466.106
272.521,468.751
272.356,468.954
272.191,469.076
272.026,468.873
271.861,468.181
271.697,465.373
271.532,462.403
271.367,458.944
271.202,455.729
271.037,453.694
270.872,452.555
270.707,455.403
270.542,458.048
270.377,459.88
270.212,461.874
270.047,464.722
269.883,467.489
269.718,469.931
269.553,471.965
269.388,471.965
269.223,469.849
269.058,456.258
268.893,443.969
268.728,439.086
268.563,433.755
268.398,425.657
268.233,417.071
268.068,405.474
267.904,395.341
267.739,394.283
267.574,393.388
267.409,392.981
267.244,392.737
267.079,393.551
266.914,394.649
266.749,397.701
266.584,400.468
266.419,401.282
266.254,402.34
266.089,405.392
265.925,408.688
265.76,413.734
265.595,418.78
265.43,423.46
265.265,428.099
265.1,432.534
264.935,437.499
264.77,446.614
264.605,454.956
264.44,455.77
264.275,456.665
264.11,458.089
263.946,459.676
263.781,462.728
263.616,465.78
263.451,469.035
263.286,472.128
263.121,473.756
262.956,475.384
262.791,477.215
262.626,479.168
262.461,482.627
262.296,486.086
262.132,489.748
261.967,493.41
261.802,497.236
261.637,500.979
261.472,503.014
261.307,505.048
261.142,507.327
260.977,509.484
260.812,510.501
260.647,511.478
260.482,512.292
260.317,513.106
260.153,513.513
259.988,513.879
259.823,514.082
259.658,514.286
259.493,514.286
259.328,514.286
259.163,514.286
258.998,514.286
258.833,514.082
258.668,513.879
258.503,513.879
258.339,513.879
258.174,513.268
258.009,512.617
257.844,511.397
257.679,510.094
257.514,507.042
257.349,504.031
257.184,501.59
257.019,499.148
256.854,496.096
256.689,493.044
256.524,489.382
256.359,485.719
256.195,480.836
256.03,476.035
255.865,476.035
255.7,476.035
255.535,476.848
255.37,477.662
255.205,480.714
255.04,483.766
254.875,486.981
254.71,490.236
254.545,494.509
254.381,498.823
254.216,502.078
254.051,505.333
253.886,508.345
253.721,511.397
253.556,511.641
253.391,511.844
253.226,511.844
253.061,511.844
252.896,511.641
252.731,511.437
252.566,511.234
252.402,511.03
252.237,510.623
252.072,510.216
251.907,508.06
251.742,505.822
251.577,502.81
251.412,499.799
251.247,497.317
251.082,494.835
250.917,485.76
250.752,476.401
250.588,471.762
250.423,467.286
250.258,463.583
250.093,459.961
249.928,457.438
249.763,454.997
249.598,454.305
249.433,453.694
249.268,451.945
249.103,450.113
248.938,440.347
248.773,430.011
248.609,423.053
248.444,416.339
248.279,412.269
248.114,408.403
247.949,390.458
247.784,371.21
247.619,364.171
247.454,358.107
247.289,349.765
247.124,341.22
246.959,338.656
246.794,336.622
246.63,335.36
246.465,334.139
246.3,332.919
246.135,331.698
245.97,330.843
245.805,330.029
245.64,329.053
245.475,328.036
245.31,326.815
245.145,325.594
244.98,324.21
244.815,322.786
244.651,317.049
244.486,310.7
244.321,301.138
244.156,291.209
243.991,288.645
243.826,287.017
243.661,284.332
243.496,281.483
243.331,273.996
243.166,265.898
243.001,256.905
242.837,247.749
242.672,244.616
242.507,242.378
242.342,237.169
242.177,231.513
242.012,222.357
241.847,212.591
241.682,209.742
241.517,208.114
241.352,206.161
241.187,204.086
241.022,201.563
240.858,198.918
240.693,196.802
240.528,194.767
240.363,193.058
240.198,191.43
240.033,190.169
239.868,188.948
239.703,188.419
239.538,188.012
239.373,187.605
239.208,187.198
239.044,187.117
238.879,187.117
238.714,187.117
238.549,187.117
238.384,187.117
238.219,187.117
238.054,187.442
237.889,187.849
237.724,187.931
237.559,187.931
237.394,188.094
237.229,188.297
237.065,188.989
236.9,189.803
236.735,190.616
236.57,191.43
236.405,192.244
236.24,193.058
236.075,194.035
235.91,195.052
235.745,195.907
235.58,196.72
235.415,198.307
235.25,200.139
235.086,203.231
234.921,206.649
234.756,212.184
234.591,218.328
234.426,224.595
234.261,230.902
234.096,235.134
233.931,238.797
233.766,242.907
233.601,247.179
233.436,253.934
233.271,261.422
233.107,267.078
232.942,272.165
232.777,274.769
232.612,276.6
232.447,277.495
232.282,278.106
232.117,278.879
231.952,279.693
231.787,283.64
231.622,288.726
231.457,291.738
231.293,293.976
231.128,296.214
230.963,298.452
230.798,306.55
230.633,316.682
230.468,328.483
230.303,340.854
230.138,345.655
229.973,347.69
229.808,348.26
229.643,348.26
229.478,345.493
229.314,341.627
229.149,334.587
228.984,326.286
228.819,318.513
228.654,311.026
228.489,300.08
228.324,287.709
228.159,276.519
227.994,265.898
227.829,257.474
227.664,249.946
227.499,238.715
227.335,225.938
227.17,213.323
227.005,200.749
226.84,195.337
226.675,193.099
226.51,187.646
226.345,180.769
226.18,176.781
226.015,174.136
225.85,172.061
225.685,170.229
225.521,167.584
225.356,164.533
225.191,162.172
225.026,160.138
224.861,158.347
224.696,156.72
224.531,156.068
224.366,155.865
224.201,155.377
224.036,154.766
223.871,154.156
223.706,153.545
223.542,152.813
223.377,151.999
223.212,151.307
223.047,150.697
222.882,150.249
222.717,149.842
222.552,149.436
222.387,149.029
222.222,148.622
222.057,148.215
221.892,147.808
221.727,147.401
221.563,146.872
221.398,146.221
221.233,145.895
221.068,145.692
220.903,145.61
220.738,145.61
220.573,145.488
220.408,145.285
220.243,144.959
220.078,144.552
219.913,144.39
219.749,144.39
219.584,144.39
219.419,144.39
219.254,144.39
219.089,144.39
218.924,144.268
218.759,144.064
218.594,143.861
218.429,143.657
218.264,143.698
218.099,143.901
217.934,143.861
217.77,143.657
217.605,143.576
217.44,143.576
217.275,143.576
217.11,143.576
216.945,143.576
216.78,143.576
216.615,143.332
216.45,142.925
216.285,142.762
216.12,142.762
215.955,142.762
215.791,142.762
215.626,142.762
215.461,142.762
215.296,142.762
215.131,142.762
214.966,142.64
214.801,142.436
214.636,142.355
214.471,142.355
214.306,142.233
214.141,142.029
213.977,141.704
213.812,141.338
213.647,141.012
213.482,140.809
213.317,140.524
213.152,140.117
212.987,139.791
212.822,139.588
212.657,139.507
212.492,139.507
212.327,139.507
212.162,139.507
211.998,139.384
211.833,139.181
211.668,139.1
211.503,139.1
211.338,139.1
211.173,139.1
211.008,139.1
210.843,139.1
210.678,139.1
210.513,139.1
210.348,139.1
210.183,139.1
210.019,139.1
209.854,139.1
209.689,138.896
209.524,138.489
209.359,138.286
209.194,138.286
209.029,138.286
208.864,138.286
208.699,138.204
208.534,138.001
208.369,137.879
208.204,137.879
208.04,137.879
207.875,137.879
207.71,137.879
207.545,137.879
207.38,137.879
207.215,137.879
207.05,137.879
206.885,137.879
206.72,137.797
206.555,137.594
206.39,137.268
206.226,136.862
206.061,136.658
205.896,136.658
205.731,136.658
205.566,136.658
205.401,136.658
205.236,136.658
205.071,136.658
204.906,136.658
204.741,136.577
204.576,136.373
204.411,136.251
204.247,136.251
204.082,136.251
203.917,136.251
203.752,136.251
203.587,136.251
203.422,136.251
203.257,136.251
203.092,136.251
202.927,136.251
202.762,136.17
202.597,135.966
202.433,135.844
202.268,135.844
202.103,135.681
201.938,135.275
201.773,135.03
201.608,135.03
201.443,134.949
201.278,134.745
201.113,134.623
200.948,134.623
200.783,134.461
200.618,134.054
200.454,133.728
200.289,133.525
200.124,133.403
199.959,133.403
199.794,133.403
199.629,133.403
199.464,133.403
199.299,133.403
199.134,133.403
198.969,133.403
198.804,133.484
198.639,133.687
198.475,133.81
198.31,133.81
198.145,133.81
197.98,133.81
197.815,133.81
197.65,133.81
197.485,133.81
197.32,133.81
197.155,133.81
196.99,133.81
196.825,133.81
196.66,133.81
196.496,133.81
196.331,133.81
196.166,133.932
196.001,134.339
195.836,134.623
195.671,134.623
195.506,134.623
195.341,134.623
195.176,134.623
195.011,134.623
194.846,134.623
194.682,134.623
194.517,134.623
194.352,134.623
194.187,134.501
194.022,134.094
193.857,133.81
193.692,133.81
193.527,133.728
193.362,133.525
193.197,133.403
193.032,133.403
192.867,133.403
192.703,133.403
192.538,133.403
192.373,133.403
192.208,133.403
192.043,133.403
191.878,133.403
191.713,133.403
191.548,133.403
191.383,133.403
191.218,133.403
191.053,133.403
190.889,133.403
190.724,133.403
190.559,133.403
190.394,133.403
190.229,133.403
190.064,133.403
189.899,133.403
189.734,133.403
189.569,133.403
189.404,133.403
189.239,133.403
189.074,133.403
188.91,133.403
188.745,133.403
188.58,133.443
188.415,133.647
188.25,133.81
188.085,133.81
187.92,133.932
187.755,134.339
187.59,134.623
187.425,134.623
187.26,134.623
187.095,134.623
186.931,134.623
186.766,134.623
186.601,134.623
186.436,134.623
186.271,134.623
186.106,134.623
185.941,134.623
185.776,134.623
185.611,134.623
185.446,134.623
185.281,134.623
185.116,134.623
184.952,134.623
184.787,134.623
184.622,134.623
184.457,134.623
184.292,134.664
184.127,134.868
183.962,135.03
183.797,135.03
183.632,135.03
183.467,135.03
183.302,135.03
183.138,135.03
182.973,135.03
182.808,135.03
182.643,135.03
182.478,135.03
182.313,135.03
182.148,135.03
181.983,135.03
181.818,135.03
181.653,135.03
181.488,135.03
181.323,135.112
181.159,135.519
180.994,135.844
180.829,135.844
180.664,135.844
180.499,135.844
180.334,135.844
180.169,135.844
180.004,135.844
179.839,135.844
179.674,135.844
179.509,135.844
179.344,135.844
179.18,135.844
179.015,135.844
178.85,135.844
178.685,135.844
178.52,135.844
178.355,135.885
178.19,136.088
178.025,136.251
177.86,136.251
177.695,136.251
177.53,136.251
177.365,136.251
177.201,136.251
177.036,136.251
176.871,136.251
176.706,136.251
176.541,136.251
176.376,136.251
176.211,136.251
176.046,136.251
175.881,136.251
175.716,136.251
175.551,136.251
175.387,136.251
175.222,136.251
175.057,136.251
174.892,136.251
174.727,136.251
174.562,136.251
174.397,136.292
174.232,136.495
174.067,136.658
173.902,136.658
173.737,136.658
173.572,136.658
173.408,136.658
173.243,136.658
173.078,136.658
172.913,136.658
172.748,136.658
172.583,136.658
172.418,136.658
172.253,136.658
172.088,136.658
171.923,136.455
171.758,136.251
171.594,136.251
171.429,136.251
171.264,136.251
171.099,136.251
170.934,136.251
170.769,136.251
170.604,136.251
170.439,136.251
170.274,136.251
170.109,136.251
169.944,136.251
169.779,136.251
169.615,136.251
169.45,136.251
169.285,136.251
169.12,136.251
168.955,136.251
168.79,136.251
168.625,136.048
168.46,135.844
168.295,135.844
168.13,135.844
167.965,135.844
167.8,135.844
167.636,135.844
167.471,135.844
167.306,135.844
167.141,135.844
166.976,136.048
166.811,136.251
166.646,136.251
166.481,136.251
166.316,136.251
166.151,136.251
165.986,136.251
165.821,136.251
165.657,136.251
165.492,136.251
165.327,136.251
165.162,136.251
164.997,136.251
164.832,136.251
164.667,136.251
164.502,136.251
164.337,136.251
164.172,136.251
164.007,136.048
163.843,135.844
163.678,135.844
163.513,135.844
163.348,135.844
163.183,135.844
163.018,135.437
162.853,135.03
162.688,135.03
162.523,135.03
162.358,134.827
162.193,134.623
162.028,134.623
161.864,134.623
161.699,134.216
161.534,133.81
161.369,133.81
161.204,133.81
161.039,133.81
160.874,133.81
160.709,133.81
160.544,133.81
160.379,133.81
160.214,133.81
160.049,133.81
159.885,133.81
159.72,133.81
159.555,133.81
159.39,133.81
159.225,133.81
159.06,133.81
158.895,133.81
158.73,133.81
158.565,133.81
158.4,133.81
158.235,133.81
158.07,133.81
157.906,133.81
157.741,133.81
157.576,133.81
157.411,133.81
157.246,133.81
157.081,133.606
156.916,133.403
156.751,133.199
156.586,132.996
156.421,132.996
156.256,132.996
156.092,132.996
155.927,132.996
155.762,132.996
155.597,132.996
155.432,132.629
155.267,132.223
155.102,132.182
154.937,132.182
154.772,132.182
154.607,132.182
154.442,132.019
154.277,131.816
154.113,131.775
153.948,131.775
153.783,131.775
153.618,131.775
153.453,131.612
153.288,131.409
153.123,131.368
152.958,131.368
152.793,131.002
152.628,130.595
152.463,130.554
152.299,130.554
152.134,130.554
151.969,130.554
151.804,130.554
151.639,130.554
151.474,130.554
151.309,130.554
151.144,130.391
150.979,130.188
150.814,130.147
150.649,130.147
150.484,130.147
150.32,130.147
150.155,129.984
149.99,129.781
149.825,129.74
149.66,129.74
149.495,129.74
149.33,129.74
149.165,129.415
149,129.008
148.835,128.926
148.67,128.926
148.505,128.926
148.341,128.926
148.176,128.926
148.011,128.926
147.846,128.926
147.681,128.926
147.516,128.764
147.351,128.56
147.186,128.52
147.021,128.52
146.856,128.52
146.691,128.52
146.526,128.52
146.362,128.52
146.197,128.52
146.032,128.52
145.867,128.52
145.702,128.52
145.537,128.52
145.372,128.52
145.207,128.52
145.042,128.52
144.877,128.52
144.712,128.52
144.548,128.52
144.383,128.52
144.218,128.194
144.053,127.787
143.888,127.706
143.723,127.706
143.558,127.543
143.393,127.339
143.228,127.299
143.063,127.299
142.898,127.136
142.733,126.932
142.569,126.892
142.404,126.892
142.239,126.892
142.074,126.892
141.909,126.892
141.744,126.892
141.579,126.892
141.414,126.892
141.249,126.892
141.084,126.892
140.919,126.607
140.755,126.2
140.59,126.078
140.425,126.078
140.26,126.078
140.095,126.078
139.93,125.915
139.765,125.712
139.6,125.508
139.435,125.305
139.27,125.264
139.105,125.264
138.94,124.979
138.776,124.572
138.611,124.45
138.446,124.45
138.281,124.45
138.116,124.45
137.951,124.45
137.786,124.45
137.621,124.45
137.456,124.45
137.291,124.735
137.126,125.142
136.961,125.264
136.797,125.264
136.632,125.386
136.467,125.59
136.302,125.793
136.137,125.997
135.972,126.078
135.807,126.078
135.642,126.078
135.477,126.078
135.312,126.363
135.147,126.77
134.982,126.892
134.818,126.892
134.653,126.607
134.488,126.2
134.323,125.793
134.158,125.386
133.993,124.857
133.828,124.247
133.663,123.921
133.498,123.718
133.333,123.636
133.168,123.636
133.004,123.352
132.839,122.945
132.674,122.823
132.509,122.823
132.344,122.823
132.179,122.823
132.014,122.823
131.849,122.823
131.684,122.823
131.519,122.823
131.354,122.823
131.189,122.823
131.025,122.823
130.86,122.823
130.695,123.067
130.53,123.474
130.365,123.636
130.2,123.636
130.035,123.636
129.87,123.636
129.705,123.636
129.54,123.636
129.375,123.636
129.21,123.636
129.046,123.636
128.881,123.636
128.716,123.636
128.551,123.636
128.386,123.636
128.221,123.636
128.056,123.636
127.891,123.636
127.726,123.636
127.561,123.636
127.396,123.636
127.232,123.636
127.067,123.636
126.902,123.636
126.737,123.636
126.572,123.636
126.407,123.636
126.242,123.636
126.077,123.636
125.912,123.636
125.747,123.636
125.582,123.636
125.417,123.636
125.253,123.636
125.088,123.392
124.923,122.985
124.758,122.823
124.593,122.823
124.428,122.823
124.263,122.823
124.098,122.823
123.933,122.823
123.768,122.823
123.603,122.823
123.438,122.7
123.274,122.497
123.109,122.416
122.944,122.416
122.779,122.416
122.614,122.416
122.449,122.416
122.284,122.416
122.119,122.416
121.954,122.416
121.789,122.416
121.624,122.416
121.46,122.212
121.295,121.805
121.13,121.602
120.965,121.602
120.8,121.602
120.635,121.602
120.47,121.602
120.305,121.602
120.14,121.602
119.975,121.602
119.81,121.602
119.645,121.602
119.481,121.805
119.316,122.212
119.151,122.416
118.986,122.416
118.821,122.212
118.656,121.805
118.491,121.602
118.326,121.602
118.161,121.602
117.996,121.602
117.831,121.602
117.666,121.602
117.502,121.805
117.337,122.212
117.172,122.416
117.007,122.416
116.842,122.416
116.677,122.416
116.512,122.497
116.347,122.7
116.182,122.823
116.017,122.823
115.852,122.823
115.688,122.823
115.523,123.026
115.358,123.433
115.193,123.636
115.028,123.636
114.863,123.718
114.698,123.921
114.533,124.125
114.368,124.328
114.203,124.45
114.038,124.45
113.873,124.613
113.709,125.02
113.544,125.264
113.379,125.264
113.214,125.101
113.049,124.694
112.884,124.369
112.719,124.165
112.554,124.043
112.389,124.043
112.224,123.962
112.059,123.758
111.894,123.474
111.73,123.067
111.565,122.578
111.4,121.968
111.235,121.52
111.07,121.317
110.905,121.195
110.74,121.195
110.575,121.113
110.41,120.91
110.245,120.788
110.08,120.788
109.915,120.788
109.751,120.788
109.586,120.788
109.421,120.788
109.256,120.788
109.091,120.788
108.926,120.788
108.761,120.788
108.596,120.788
108.431,120.788
108.266,120.625
108.101,120.218
107.937,119.974
107.772,119.974
107.607,119.974
107.442,119.974
107.277,119.974
107.112,119.974
106.947,119.974
106.782,119.974
106.617,119.974
106.452,119.974
106.287,119.974
106.122,119.974
105.958,119.974
105.793,119.974
105.628,119.974
105.463,119.974
105.298,119.974
105.133,119.974
104.968,119.974
104.803,119.974
104.638,119.974
104.473,119.974
104.308,119.974
104.144,119.974
103.979,119.974
103.814,119.974
103.649,119.974
103.484,119.974
103.319,119.974
103.154,119.974
102.989,120.096
102.824,120.503
102.659,120.788
102.494,120.788
102.329,120.788
102.165,120.788
102,120.788
101.835,120.788
101.67,120.788
101.505,120.788
101.34,120.788
101.175,120.788
101.01,120.869
100.845,121.073
100.68,121.195
100.515,121.195
100.35,121.195
100.186,121.195
100.021,121.154
99.8557,120.951
99.6908,120.788
99.5259,120.788
99.361,120.788
99.1961,120.788
99.0311,120.788
98.8662,120.788
98.7013,120.666
98.5364,120.259
98.3715,119.974
98.2066,119.974
98.0417,119.974
97.8767,119.974
97.7119,119.974
97.5469,119.974
97.382,119.974
97.2171,119.974
97.0522,119.974
96.8872,119.974
96.7224,119.974
96.5574,119.974
96.3925,119.974
96.2276,119.974
96.0627,120.055
95.8978,120.503
95.7328,120.829
95.568,121.032
95.403,121.195
95.2381,121.195" />
</g>
</svg>
