<?xml version="1.0"?>
<svg version="1.1"
     xmlns="http://www.w3.org/2000/svg"
     xmlns:xlink="http://www.w3.org/1999/xlink"
     viewBox="0 0 800 600">
<g>
<text fill="#000000" font-family="sans-serif" font-size="19.0476" text-anchor="start" x="4.7619" y="591.429" >
NIST Chemistry WebBook (https://webbook.nist.gov/chemistry)
</text>
<polyline stroke="#000000" stroke-width="1.19048" fill="none" points="95.2381,514.286
742.857,514.286
742.857,66.6667
95.2381,66.6667
95.2381,514.286" />
<text fill="#000000" font-family="sans-serif" font-size="19.0476" text-anchor="middle" x="419.048" y="24.7619" >
2-Hexanol
</text>
<text fill="#000000" font-family="sans-serif" font-size="19.0476" text-anchor="middle" x="419.048" y="53.3333" >
INFRARED SPECTRUM
</text>
<text fill="#000000" font-family="sans-serif" font-size="19.0476" text-anchor="middle" x="419.048" y="558.095" >
Wavenumber (cm-1)
</text>
<text fill="#000000" font-family="sans-serif" font-size="19.0476" text-anchor="middle" transform="translate(20,290.476) rotate(270)" x="0" y="0" >
Relative Transmittance
</text>
<text fill="#000000" font-family="sans-serif" font-size="19.0476" text-anchor="middle" x="641.552" y="534.286" >
1000
</text>
<line stroke="#000000" stroke-width="1.19048" x1="641.552" y1="514.286" x2="641.552" y2="504.762" />
<text fill="#000000" font-family="sans-serif" font-size="19.0476" text-anchor="middle" x="457.36" y="534.286" >
2000
</text>
<line stroke="#000000" stroke-width="1.19048" x1="457.36" y1="514.286" x2="457.36" y2="504.762" />
<text fill="#000000" font-family="sans-serif" font-size="19.0476" text-anchor="middle" x="273.168" y="534.286" >
3000
</text>
<line stroke="#000000" stroke-width="1.19048" x1="273.168" y1="514.286" x2="273.168" y2="504.762" />
<line stroke="#000000" stroke-width="1.19048" x1="733.648" y1="514.286" x2="733.648" y2="509.524" />
<line stroke="#000000" stroke-width="1.19048" x1="715.228" y1="514.286" x2="715.228" y2="509.524" />
<line stroke="#000000" stroke-width="1.19048" x1="696.809" y1="514.286" x2="696.809" y2="509.524" />
<line stroke="#000000" stroke-width="1.19048" x1="678.39" y1="514.286" x2="678.39" y2="509.524" />
<line stroke="#000000" stroke-width="1.19048" x1="659.971" y1="514.286" x2="659.971" y2="509.524" />
<line stroke="#000000" stroke-width="1.19048" x1="641.552" y1="514.286" x2="641.552" y2="509.524" />
<line stroke="#000000" stroke-width="1.19048" x1="623.132" y1="514.286" x2="623.132" y2="509.524" />
<line stroke="#000000" stroke-width="1.19048" x1="604.713" y1="514.286" x2="604.713" y2="509.524" />
<line stroke="#000000" stroke-width="1.19048" x1="586.294" y1="514.286" x2="586.294" y2="509.524" />
<line stroke="#000000" stroke-width="1.19048" x1="567.875" y1="514.286" x2="567.875" y2="509.524" />
<line stroke="#000000" stroke-width="1.19048" x1="549.456" y1="514.286" x2="549.456" y2="509.524" />
<line stroke="#000000" stroke-width="1.19048" x1="531.036" y1="514.286" x2="531.036" y2="509.524" />
<line stroke="#000000" stroke-width="1.19048" x1="512.617" y1="514.286" x2="512.617" y2="509.524" />
<line stroke="#000000" stroke-width="1.19048" x1="494.198" y1="514.286" x2="494.198" y2="509.524" />
<line stroke="#000000" stroke-width="1.19048" x1="475.779" y1="514.286" x2="475.779" y2="509.524" />
<line stroke="#000000" stroke-width="1.19048" x1="457.36" y1="514.286" x2="457.36" y2="509.524" />
<line stroke="#000000" stroke-width="1.19048" x1="438.94" y1="514.286" x2="438.94" y2="509.524" />
<line stroke="#000000" stroke-width="1.19048" x1="420.521" y1="514.286" x2="420.521" y2="509.524" />
<line stroke="#000000" stroke-width="1.19048" x1="402.102" y1="514.286" x2="402.102" y2="509.524" />
<line stroke="#000000" stroke-width="1.19048" x1="383.683" y1="514.286" x2="383.683" y2="509.524" />
<line stroke="#000000" stroke-width="1.19048" x1="365.264" y1="514.286" x2="365.264" y2="509.524" />
<line stroke="#000000" stroke-width="1.19048" x1="346.844" y1="514.286" x2="346.844" y2="509.524" />
<line stroke="#000000" stroke-width="1.19048" x1="328.425" y1="514.286" x2="328.425" y2="509.524" />
<line stroke="#000000" stroke-width="1.19048" x1="310.006" y1="514.286" x2="310.006" y2="509.524" />
<line stroke="#000000" stroke-width="1.19048" x1="291.587" y1="514.286" x2="291.587" y2="509.524" />
<line stroke="#000000" stroke-width="1.19048" x1="273.168" y1="514.286" x2="273.168" y2="509.524" />
<line stroke="#000000" stroke-width="1.19048" x1="254.748" y1="514.286" x2="254.748" y2="509.524" />
<line stroke="#000000" stroke-width="1.19048" x1="236.329" y1="514.286" x2="236.329" y2="509.524" />
<line stroke="#000000" stroke-width="1.19048" x1="217.91" y1="514.286" x2="217.91" y2="509.524" />
<line stroke="#000000" stroke-width="1.19048" x1="199.491" y1="514.286" x2="199.491" y2="509.524" />
<line stroke="#000000" stroke-width="1.19048" x1="181.072" y1="514.286" x2="181.072" y2="509.524" />
<line stroke="#000000" stroke-width="1.19048" x1="162.652" y1="514.286" x2="162.652" y2="509.524" />
<line stroke="#000000" stroke-width="1.19048" x1="144.233" y1="514.286" x2="144.233" y2="509.524" />
<line stroke="#000000" stroke-width="1.19048" x1="125.814" y1="514.286" x2="125.814" y2="509.524" />
<line stroke="#000000" stroke-width="1.19048" x1="107.395" y1="514.286" x2="107.395" y2="509.524" />
<text fill="#000000" font-family="sans-serif" font-size="19.0476" text-anchor="end" x="90.4762" y="458.177" >
0.2
</text>
<line stroke="#000000" stroke-width="1.19048" x1="95.2381" y1="453.891" x2="104.762" y2="453.891" />
<text fill="#000000" font-family="sans-serif" font-size="19.0476" text-anchor="end" x="90.4762" y="361.371" >
0.4
</text>
<line stroke="#000000" stroke-width="1.19048" x1="95.2381" y1="357.085" x2="104.762" y2="357.085" />
<text fill="#000000" font-family="sans-serif" font-size="19.0476" text-anchor="end" x="90.4762" y="264.565" >
0.6
</text>
<line stroke="#000000" stroke-width="1.19048" x1="95.2381" y1="260.279" x2="104.762" y2="260.279" />
<text fill="#000000" font-family="sans-serif" font-size="19.0476" text-anchor="end" x="90.4762" y="167.759" >
0.8
</text>
<line stroke="#000000" stroke-width="1.19048" x1="95.2381" y1="163.473" x2="104.762" y2="163.473" />
<text fill="#000000" font-family="sans-serif" font-size="19.0476" text-anchor="end" x="90.4762" y="70.9524" >
1
</text>
<line stroke="#000000" stroke-width="1.19048" x1="95.2381" y1="66.6667" x2="104.762" y2="66.6667" />
<line stroke="#000000" stroke-width="1.19048" x1="95.2381" y1="502.294" x2="100" y2="502.294" />
<line stroke="#000000" stroke-width="1.19048" x1="95.2381" y1="478.093" x2="100" y2="478.093" />
<line stroke="#000000" stroke-width="1.19048" x1="95.2381" y1="453.891" x2="100" y2="453.891" />
<line stroke="#000000" stroke-width="1.19048" x1="95.2381" y1="429.69" x2="100" y2="429.69" />
<line stroke="#000000" stroke-width="1.19048" x1="95.2381" y1="405.488" x2="100" y2="405.488" />
<line stroke="#000000" stroke-width="1.19048" x1="95.2381" y1="381.287" x2="100" y2="381.287" />
<line stroke="#000000" stroke-width="1.19048" x1="95.2381" y1="357.085" x2="100" y2="357.085" />
<line stroke="#000000" stroke-width="1.19048" x1="95.2381" y1="332.884" x2="100" y2="332.884" />
<line stroke="#000000" stroke-width="1.19048" x1="95.2381" y1="308.682" x2="100" y2="308.682" />
<line stroke="#000000" stroke-width="1.19048" x1="95.2381" y1="284.481" x2="100" y2="284.481" />
<line stroke="#000000" stroke-width="1.19048" x1="95.2381" y1="260.279" x2="100" y2="260.279" />
<line stroke="#000000" stroke-width="1.19048" x1="95.2381" y1="236.077" x2="100" y2="236.077" />
<line stroke="#000000" stroke-width="1.19048" x1="95.2381" y1="211.876" x2="100" y2="211.876" />
<line stroke="#000000" stroke-width="1.19048" x1="95.2381" y1="187.674" x2="100" y2="187.674" />
<line stroke="#000000" stroke-width="1.19048" x1="95.2381" y1="163.473" x2="100" y2="163.473" />
<line stroke="#000000" stroke-width="1.19048" x1="95.2381" y1="139.271" x2="100" y2="139.271" />
<line stroke="#000000" stroke-width="1.19048" x1="95.2381" y1="115.07" x2="100" y2="115.07" />
<line stroke="#000000" stroke-width="1.19048" x1="95.2381" y1="90.8681" x2="100" y2="90.8681" />
<line stroke="#000000" stroke-width="1.19048" x1="95.2381" y1="66.6666" x2="100" y2="66.6666" />
<polyline stroke="#FF0000" stroke-width="1.19048" fill="none" points="742.857,104.55
742.12,79.3951
741.384,78.2964
740.647,73.7525
739.91,75.7227
739.173,77.6849
738.437,88.4523
737.7,70.6575
736.963,85.6934
736.226,82.3126
735.489,94.0392
734.753,77.4401
734.016,88.3327
733.279,84.8505
732.542,74.8618
731.806,83.281
731.069,77.1951
730.332,81.5849
729.595,73.2586
728.859,84.2475
728.122,69.4139
727.385,73.0115
726.648,71.2781
725.911,79.3951
725.175,73.5056
724.438,75.9685
723.701,77.0726
722.964,67.7924
722.228,74.2458
721.491,69.7874
720.754,80.8561
720.017,68.791
719.281,80.2479
718.544,76.4595
717.807,73.1351
717.07,76.4595
716.333,73.9992
715.597,80.3696
714.86,73.7525
714.123,80.6129
713.386,77.3176
712.65,80.7345
711.913,76.4595
711.176,81.7063
710.439,79.1512
709.703,77.8073
708.966,84.8505
708.229,78.6629
707.492,77.8073
706.755,79.5171
706.019,85.934
705.282,77.8073
704.545,80.9777
703.808,79.7608
703.072,81.2206
702.335,77.0726
701.598,79.7608
700.861,84.3682
700.125,78.785
699.388,80.4913
698.651,77.6849
697.914,81.4635
697.177,78.5408
696.441,81.4635
695.704,81.9489
694.967,83.4019
694.23,85.0915
693.494,84.6094
692.757,89.6467
692.02,89.1693
691.283,91.7888
690.547,92.0262
689.81,93.8029
689.073,90.2427
688.336,92.7377
687.6,91.4325
686.863,87.9737
686.126,87.3747
685.389,84.73
684.652,87.4946
683.916,84.73
683.179,90.2427
682.442,88.2131
681.705,92.1449
680.969,91.6701
680.232,96.3961
679.495,93.3298
678.758,91.4325
678.022,93.8029
677.285,91.9076
676.548,94.0392
675.811,93.2114
675.074,96.7486
674.338,96.5136
673.601,101.306
672.864,107.082
672.127,113.01
671.391,116.731
670.654,117.741
669.917,120.087
669.18,114.48
668.444,111.649
667.707,104.781
666.97,103.163
666.233,101.771
665.496,104.319
664.76,106.163
664.023,109.143
663.286,111.081
662.549,111.649
661.813,112.897
661.076,110.056
660.339,111.763
659.602,114.48
658.866,119.864
658.129,127.596
657.392,140.955
656.655,153.378
655.919,166.619
655.182,180.569
654.445,189.649
653.708,197.868
652.971,197.685
652.235,191.791
651.498,178.841
650.761,164.126
650.024,145.907
649.288,131.519
648.551,123.968
647.814,120.087
647.077,122.42
646.341,123.527
645.604,129.017
644.867,132.277
644.13,138.189
643.393,144.228
642.657,152.039
641.92,160.307
641.183,169.884
640.446,182.193
639.71,194.013
638.973,206.523
638.236,213.835
637.499,223.202
636.763,228.414
636.026,232.721
635.289,234.607
634.552,235.75
633.815,236.239
633.079,236.157
632.342,236.239
631.605,234.525
630.868,233.46
630.132,230.657
629.395,230.823
628.658,231.154
627.921,236.401
627.185,243.079
626.448,249.77
625.711,254.405
624.974,253.868
624.237,251.865
623.501,243.715
622.764,234.525
622.027,223.964
621.29,220.992
620.554,221.077
619.817,225.734
619.08,231.154
618.343,236.889
617.607,243.635
616.87,247.66
616.133,250.392
615.396,247.817
614.659,243.873
613.923,232.227
613.186,217.303
612.449,199.052
611.712,179.898
610.976,163.426
610.239,148.309
609.502,139.681
608.765,132.386
608.029,131.41
607.292,130.65
606.555,134.76
605.818,137.655
605.082,143.702
604.345,150.593
603.608,157.061
602.871,163.926
602.134,170.081
601.398,175.944
600.661,179.706
599.924,186.459
599.187,192.904
598.451,200.867
597.714,209.449
596.977,216.785
596.24,220.223
595.504,219.11
594.767,215.66
594.03,205.81
593.293,195.762
592.556,183.526
591.82,173.121
591.083,162.623
590.346,155.428
589.609,148.829
588.873,144.753
588.136,142.225
587.399,140.106
586.662,140
585.926,137.869
585.189,137.335
584.452,134.975
583.715,134.437
582.979,133.682
582.242,134.975
581.505,137.655
580.768,142.331
580.031,148.725
579.295,155.019
578.558,163.426
577.821,170.278
577.084,178.553
576.348,187.024
575.611,196.496
574.874,208.831
574.137,224.471
573.401,243.158
572.664,263.165
571.927,280.057
571.19,289.279
570.453,290.83
569.717,281.384
568.98,263.463
568.243,238.266
567.506,213.399
566.77,191.326
566.033,171.457
565.296,155.837
564.559,143.386
563.823,136.478
563.086,133.358
562.349,135.727
561.612,140.212
560.875,149.867
560.139,160.912
559.402,173.902
558.665,190.209
557.928,202.673
557.192,213.399
556.455,217.217
555.718,215.66
554.981,207.412
554.245,192.44
553.508,175.264
552.771,155.326
552.034,136.371
551.297,119.975
550.561,108.8
549.824,98.8577
549.087,92.8562
548.35,88.9304
547.614,87.1349
546.877,82.9181
546.14,82.9181
545.403,81.7063
544.667,80.2479
543.93,79.8826
543.193,79.0292
542.456,79.1512
541.719,78.1742
540.983,78.4186
540.246,76.4595
539.509,76.8275
538.772,75.7227
538.036,76.7048
537.299,73.9992
536.562,73.6291
535.825,74.4923
535.089,73.7525
534.352,72.8879
533.615,72.5169
532.878,73.3821
532.141,72.2694
531.405,73.0115
530.668,72.8879
529.931,73.1351
529.194,72.2694
528.458,72.5169
527.721,73.0115
526.984,72.6406
526.247,72.7643
525.511,72.0218
524.774,71.8979
524.037,71.5262
523.3,71.03
522.563,71.774
521.827,70.5333
521.09,72.7643
520.353,71.2781
519.616,72.0218
518.88,71.03
518.143,72.2694
517.406,71.5262
516.669,72.1456
515.933,71.1541
515.196,73.1351
514.459,71.4021
513.722,71.03
512.986,72.0218
512.249,72.0218
511.512,71.4021
510.775,70.1605
510.038,71.2781
509.302,71.5262
508.565,71.774
507.828,71.5262
507.091,71.6501
506.355,71.8979
505.618,71.774
504.881,70.9059
504.144,70.0361
503.408,70.7817
502.671,70.0361
501.934,70.7817
501.197,69.9117
500.46,70.1605
499.724,69.6629
498.987,70.0361
498.25,69.5384
497.513,69.9117
496.777,69.9117
496.04,69.5384
495.303,69.7874
494.566,69.5384
493.83,69.5384
493.093,68.791
492.356,68.9156
491.619,69.0402
490.882,68.9156
490.146,68.9156
489.409,69.2894
488.672,69.2894
487.935,68.9156
487.199,68.791
486.462,69.2894
485.725,69.0402
484.988,69.0402
484.252,69.2894
483.515,69.4139
482.778,69.0402
482.041,69.5384
481.305,68.9156
480.568,69.2894
479.831,69.1649
479.094,69.2894
478.357,68.9156
477.621,69.2894
476.884,68.9156
476.147,68.6663
475.41,68.4167
474.674,68.4167
473.937,68.4167
473.2,67.6675
472.463,68.2919
471.727,67.9174
470.99,68.0423
470.253,68.0423
469.516,67.5425
468.779,67.7924
468.043,68.0423
467.306,68.6663
466.569,68.4167
465.832,68.2919
465.096,67.5425
464.359,68.0423
463.622,67.2924
462.885,67.9174
462.149,68.0423
461.412,67.9174
460.675,68.1671
459.938,67.5425
459.201,68.4167
458.465,68.1671
457.728,68.2919
456.991,68.1671
456.254,68.0423
455.518,67.7924
454.781,67.7924
454.044,68.791
453.307,68.0423
452.571,68.2919
451.834,68.791
451.097,68.5415
450.36,68.791
449.623,69.1649
448.887,68.9156
448.15,68.6663
447.413,67.7924
446.676,68.1671
445.94,68.0423
445.203,67.2924
444.466,68.4167
443.729,67.1674
442.993,67.6675
442.256,67.2924
441.519,67.6675
440.782,67.2924
440.046,67.2924
439.309,67.5425
438.572,67.0422
437.835,67.6675
437.098,67.4175
436.362,67.6675
435.625,67.4175
434.888,68.0423
434.151,67.5425
433.415,67.7924
432.678,67.6675
431.941,67.7924
431.204,68.1671
430.468,67.7924
429.731,69.4139
428.994,68.5415
428.257,68.9156
427.52,68.0423
426.784,68.791
426.047,68.4167
425.31,68.791
424.573,69.0402
423.837,68.6663
423.1,69.2894
422.363,68.4167
421.626,69.2894
420.89,68.0423
420.153,68.6663
419.416,68.5415
418.679,68.5415
417.942,68.9156
417.206,68.0423
416.469,69.0402
415.732,68.4167
414.995,68.5415
414.259,67.6675
413.522,67.9174
412.785,67.1674
412.048,68.1671
411.312,67.7924
410.575,67.5425
409.838,68.0423
409.101,68.4167
408.364,68.2919
407.628,67.9174
406.891,68.1671
406.154,68.0423
405.417,68.4167
404.681,67.9174
403.944,68.0423
403.207,67.1674
402.47,66.9171
401.734,67.7924
400.997,67.5425
400.26,67.4175
399.523,67.7924
398.786,68.9156
398.05,69.4139
397.313,69.5384
396.576,69.6629
395.839,71.1541
395.103,69.9117
394.366,70.2848
393.629,71.1541
392.892,69.0402
392.156,71.5262
391.419,71.1541
390.682,72.5169
389.945,70.0361
389.208,72.0218
388.472,70.6575
387.735,70.0361
386.998,69.9117
386.261,69.6629
385.525,70.2848
384.788,70.4091
384.051,70.2848
383.314,70.2848
382.578,70.2848
381.841,70.2848
381.104,69.5384
380.367,70.0361
379.631,69.4139
378.894,69.5384
378.157,69.4139
377.42,69.0402
376.683,68.5415
375.947,68.9156
375.21,68.5415
374.473,68.791
373.736,68.791
373,68.6663
372.263,69.0402
371.526,68.4167
370.789,68.9156
370.053,68.2919
369.316,69.2894
368.579,68.6663
367.842,69.2894
367.105,68.791
366.369,68.1671
365.632,69.5384
364.895,68.2919
364.158,69.0402
363.422,68.791
362.685,69.2894
361.948,68.791
361.211,69.0402
360.475,69.6629
359.738,70.1605
359.001,69.9117
358.264,70.2848
357.527,70.7817
356.791,69.7874
356.054,71.03
355.317,71.03
354.58,71.8979
353.844,71.8979
353.107,72.5169
352.37,73.6291
351.633,73.5056
350.897,74.2458
350.16,74.8618
349.423,75.8456
348.686,75.7227
347.95,76.8275
347.213,76.4595
346.476,77.8073
345.739,78.5408
345.002,79.2732
344.266,79.6389
343.529,79.8826
342.792,81.0992
342.055,81.3421
341.319,81.8276
340.582,82.5549
339.845,84.006
339.108,83.5228
338.372,84.73
337.635,84.971
336.898,85.5731
336.161,85.934
335.424,87.015
334.688,87.2548
333.951,87.3747
333.214,87.854
332.477,87.7342
331.741,86.895
331.004,85.6934
330.267,86.4147
329.53,85.934
328.794,85.5731
328.057,85.2119
327.32,84.8505
326.583,85.2119
325.846,85.5731
325.11,86.775
324.373,86.895
323.636,88.4523
322.899,90.0044
322.163,91.4325
321.426,92.3821
320.689,94.1573
319.952,95.337
319.216,94.9834
318.479,96.5136
317.742,95.1013
317.005,94.9834
316.268,94.1573
315.532,95.1013
314.795,96.161
314.058,97.3354
313.321,98.0387
312.585,100.491
311.848,102.815
311.111,105.933
310.374,108.915
309.638,111.649
308.901,114.706
308.164,118.3
307.427,122.752
306.69,127.925
305.954,132.818
305.217,140.743
304.48,150.178
303.743,161.819
303.007,178.071
302.27,199.143
301.533,222.354
300.796,250.935
300.06,281.732
299.323,312.466
298.586,343.208
297.849,369.889
297.113,391.952
296.376,409.07
295.639,422.895
294.902,426.288
294.165,421.565
293.429,413.612
292.692,404.111
291.955,391.253
291.218,385.756
290.482,393.383
289.745,408.996
289.008,431.918
288.271,453.121
287.535,473.17
286.798,488.395
286.061,499.728
285.324,507.717
284.587,510.43
283.851,508.347
283.114,502.969
282.377,496.153
281.64,490.268
280.904,490.096
280.167,499.01
279.43,509.969
278.693,514.286
277.957,512.54
277.22,505.587
276.483,482.719
275.746,442.005
275.009,389.135
274.273,327.33
273.536,260.775
272.799,206.523
272.062,169.588
271.326,148.517
270.589,135.727
269.852,126.39
269.115,119.975
268.379,115.607
267.642,112.33
266.905,110.967
266.168,107.541
265.431,102.699
264.695,100.841
263.958,98.0387
263.221,94.7476
262.484,91.6701
261.748,90.0044
261.011,88.811
260.274,88.3327
259.537,87.9737
258.801,85.3324
258.064,85.934
257.327,85.5731
256.59,84.2475
255.854,84.1268
255.117,84.006
254.38,82.3126
253.643,82.9181
252.906,83.1601
252.17,80.6129
251.433,81.0992
250.696,81.7063
249.959,81.2206
249.223,77.4401
248.486,79.8826
247.749,78.9071
247.012,77.8073
246.276,76.9501
245.539,77.6849
244.802,75.9685
244.065,76.3368
243.328,77.1951
242.592,78.0519
241.855,78.2964
241.118,79.0292
240.381,75.8456
239.645,80.6129
238.908,78.6629
238.171,78.1742
237.434,77.0726
236.698,77.8073
235.961,76.8275
235.224,75.9685
234.487,73.2586
233.75,74.3691
233.014,71.2781
232.277,72.2694
231.54,73.7525
230.803,70.2848
230.067,67.6675
229.33,67.0422
228.593,67.6675
227.856,67.7924
227.12,67.9174
226.383,68.2919
225.646,67.2924
224.909,67.6675
224.172,69.4139
223.436,68.0423
222.699,67.4175
221.962,67.5425
221.225,68.4167
220.489,70.6575
219.752,67.4175
219.015,67.0422
218.278,70.1605
217.542,71.2781
216.805,69.2894
216.068,68.4167
215.331,70.4091
214.595,72.7643
213.858,67.4175
213.121,68.6663
212.384,69.6629
211.647,66.6667
210.911,69.6629
210.174,71.03
209.437,71.2781
208.7,71.5262
207.964,72.3932
207.227,73.3821
206.49,72.2694
205.753,71.2781
205.017,72.0218
204.28,70.1605
203.543,72.5169
202.806,70.6575
202.069,72.3932
201.333,71.5262
200.596,71.1541
199.859,74.1225
199.122,73.5056
198.386,71.774
197.649,74.9849
196.912,73.2586
196.175,73.1351
195.439,74.1225
194.702,74.6155
193.965,74.4923
193.228,73.2586
192.491,72.0218
191.755,72.2694
191.018,74.6155
190.281,73.9992
189.544,73.2586
188.808,74.2458
188.071,72.2694
187.334,71.2781
186.597,70.2848
185.861,72.6406
185.124,73.2586
184.387,72.1456
183.65,72.1456
182.913,70.4091
182.177,70.5333
181.44,70.5333
180.703,71.8979
179.966,71.774
179.23,70.4091
178.493,70.5333
177.756,72.3932
177.019,70.1605
176.283,70.2848
175.546,71.8979
174.809,73.0115
174.072,69.1649
173.336,70.2848
172.599,69.6629
171.862,69.0402
171.125,69.9117
170.388,68.6663
169.652,70.1605
168.915,71.2781
168.178,72.0218
167.441,69.7874
166.705,71.2781
165.968,72.6406
165.231,72.5169
164.494,73.9992
163.758,71.1541
163.021,74.3691
162.284,70.0361
161.547,77.5625
160.81,77.9296
160.074,79.0292
159.337,80.2479
158.6,88.4523
157.863,90.6
157.127,98.9746
156.39,105.818
155.653,116.282
154.916,128.471
154.18,141.908
153.443,152.966
152.706,161.215
151.969,166.022
151.232,161.316
150.496,153.686
149.759,132.71
149.022,114.254
148.285,100.375
147.549,92.6192
146.812,84.73
146.075,80.9777
145.338,78.5408
144.602,76.0913
143.865,76.9501
143.128,76.5822
142.391,73.3821
141.654,73.1351
140.918,73.1351
140.181,73.6291
139.444,72.2694
138.707,72.6406
137.971,74.1225
137.234,72.3932
136.497,72.7643
135.76,71.774
135.024,69.4139
134.287,70.7817
133.55,72.3932
132.813,72.0218
132.076,72.8879
131.34,70.7817
130.603,73.0115
129.866,74.7386
129.129,74.6155
128.393,74.3691
127.656,73.7525
126.919,70.0361
126.182,71.1541
125.446,72.5169
124.709,73.2586
123.972,74.1225
123.235,73.0115
122.499,75.231
121.762,73.0115
121.025,74.8618
120.288,76.0913
119.551,74.1225
118.815,76.5822
118.078,74.2458
117.341,74.6155
116.604,76.9501
115.868,73.1351
115.131,75.231
114.394,73.8759
113.657,73.3821
112.921,73.5056
112.184,73.7525
111.447,72.6406
110.71,73.2586
109.973,74.4923
109.237,73.9992
108.5,72.3932
107.763,74.4923
107.026,73.7525
106.29,72.5169
105.553,76.5822
104.816,72.6406
104.079,71.774
103.343,72.6406
102.606,70.4091
101.869,70.4091
101.132,68.9156
100.395,74.6155
99.6587,69.6629
98.9219,68.791
98.1852,72.2694
97.4484,76.3368
96.7116,75.5999
95.9749,71.5262
95.2381,67.9174" />
</g>
</svg>
