<svg version="1.1" viewBox="0.0 0.0 600.0 371.0" fill="none" stroke="none" stroke-linecap="square" stroke-miterlimit="10" width="600" height="371" xmlns:xlink="http://www.w3.org/1999/xlink" xmlns="http://www.w3.org/2000/svg"><path fill="#ffffff" d="M0 0L600.0 0L600.0 371.0L0 371.0L0 0Z" fill-rule="nonzero"/><path stroke="#333333" stroke-width="1.0" stroke-linecap="butt" d="M82.5 330.5L581.5 330.5" fill-rule="nonzero"/><path stroke="#cccccc" stroke-width="1.0" stroke-linecap="butt" d="M82.5 277.5L581.5 277.5" fill-rule="nonzero"/><path stroke="#cccccc" stroke-width="1.0" stroke-linecap="butt" d="M82.5 224.5L581.5 224.5" fill-rule="nonzero"/><path stroke="#cccccc" stroke-width="1.0" stroke-linecap="butt" d="M82.5 171.5L581.5 171.5" fill-rule="nonzero"/><path stroke="#cccccc" stroke-width="1.0" stroke-linecap="butt" d="M82.5 118.5L581.5 118.5" fill-rule="nonzero"/><path stroke="#cccccc" stroke-width="1.0" stroke-linecap="butt" d="M82.5 64.5L581.5 64.5" fill-rule="nonzero"/><path stroke="#000000" stroke-width="1.0" stroke-linecap="butt" stroke-opacity="0.0" d="M82.5 321.5L581.5 321.5" fill-rule="nonzero"/><path stroke="#000000" stroke-width="1.0" stroke-linecap="butt" stroke-opacity="0.0" d="M82.5 312.5L581.5 312.5" fill-rule="nonzero"/><path stroke="#000000" stroke-width="1.0" stroke-linecap="butt" stroke-opacity="0.0" d="M82.5 303.5L581.5 303.5" fill-rule="nonzero"/><path stroke="#000000" stroke-width="1.0" stroke-linecap="butt" stroke-opacity="0.0" d="M82.5 295.5L581.5 295.5" fill-rule="nonzero"/><path stroke="#000000" stroke-width="1.0" stroke-linecap="butt" stroke-opacity="0.0" d="M82.5 286.5L581.5 286.5" fill-rule="nonzero"/><path stroke="#000000" stroke-width="1.0" stroke-linecap="butt" stroke-opacity="0.0" d="M82.5 268.5L581.5 268.5" fill-rule="nonzero"/><path stroke="#000000" stroke-width="1.0" stroke-linecap="butt" stroke-opacity="0.0" d="M82.5 259.5L581.5 259.5" fill-rule="nonzero"/><path stroke="#000000" stroke-width="1.0" stroke-linecap="butt" stroke-opacity="0.0" d="M82.5 250.5L581.5 250.5" fill-rule="nonzero"/><path stroke="#000000" stroke-width="1.0" stroke-linecap="butt" stroke-opacity="0.0" d="M82.5 241.5L581.5 241.5" fill-rule="nonzero"/><path stroke="#000000" stroke-width="1.0" stroke-linecap="butt" stroke-opacity="0.0" d="M82.5 233.5L581.5 233.5" fill-rule="nonzero"/><path stroke="#000000" stroke-width="1.0" stroke-linecap="butt" stroke-opacity="0.0" d="M82.5 215.5L581.5 215.5" fill-rule="nonzero"/><path stroke="#000000" stroke-width="1.0" stroke-linecap="butt" stroke-opacity="0.0" d="M82.5 206.5L581.5 206.5" fill-rule="nonzero"/><path stroke="#000000" stroke-width="1.0" stroke-linecap="butt" stroke-opacity="0.0" d="M82.5 197.5L581.5 197.5" fill-rule="nonzero"/><path stroke="#000000" stroke-width="1.0" stroke-linecap="butt" stroke-opacity="0.0" d="M82.5 188.5L581.5 188.5" fill-rule="nonzero"/><path stroke="#000000" stroke-width="1.0" stroke-linecap="butt" stroke-opacity="0.0" d="M82.5 179.5L581.5 179.5" fill-rule="nonzero"/><path stroke="#000000" stroke-width="1.0" stroke-linecap="butt" stroke-opacity="0.0" d="M82.5 162.5L581.5 162.5" fill-rule="nonzero"/><path stroke="#000000" stroke-width="1.0" stroke-linecap="butt" stroke-opacity="0.0" d="M82.5 153.5L581.5 153.5" fill-rule="nonzero"/><path stroke="#000000" stroke-width="1.0" stroke-linecap="butt" stroke-opacity="0.0" d="M82.5 144.5L581.5 144.5" fill-rule="nonzero"/><path stroke="#000000" stroke-width="1.0" stroke-linecap="butt" stroke-opacity="0.0" d="M82.5 135.5L581.5 135.5" fill-rule="nonzero"/><path stroke="#000000" stroke-width="1.0" stroke-linecap="butt" stroke-opacity="0.0" d="M82.5 126.5L581.5 126.5" fill-rule="nonzero"/><path stroke="#000000" stroke-width="1.0" stroke-linecap="butt" stroke-opacity="0.0" d="M82.5 109.5L581.5 109.5" fill-rule="nonzero"/><path stroke="#000000" stroke-width="1.0" stroke-linecap="butt" stroke-opacity="0.0" d="M82.5 100.5L581.5 100.5" fill-rule="nonzero"/><path stroke="#000000" stroke-width="1.0" stroke-linecap="butt" stroke-opacity="0.0" d="M82.5 91.5L581.5 91.5" fill-rule="nonzero"/><path stroke="#000000" stroke-width="1.0" stroke-linecap="butt" stroke-opacity="0.0" d="M82.5 82.5L581.5 82.5" fill-rule="nonzero"/><path stroke="#000000" stroke-width="1.0" stroke-linecap="butt" stroke-opacity="0.0" d="M82.5 73.5L581.5 73.5" fill-rule="nonzero"/><clipPath id="id_0"><path d="M82.55 64.916664L581.45 64.916664L581.45 330.45L82.55 330.45L82.55 64.916664Z" clip-rule="nonzero"/></clipPath><path stroke="#000000" stroke-width="2.0" stroke-linecap="butt" stroke-opacity="0.0" clip-path="url(#id_0)" d="M131.0 330.0L84.0 330.0L84.0 330.0L131.0 330.0Z" fill-rule="nonzero"/><path fill="#00796b" clip-path="url(#id_0)" d="M131.0 330.0L84.0 330.0L84.0 330.0L131.0 330.0Z" fill-rule="nonzero"/><path stroke="#000000" stroke-width="2.0" stroke-linecap="butt" stroke-opacity="0.0" clip-path="url(#id_0)" d="M181.0 330.0L134.0 330.0L134.0 226.0C134.0 224.89543 134.89543 224.0 136.0 224.0L179.0 224.0C180.10457 224.0 181.0 224.89543 181.0 226.0Z" fill-rule="nonzero"/><path fill="#00796b" clip-path="url(#id_0)" d="M181.0 330.0L134.0 330.0L134.0 226.0C134.0 224.89543 134.89543 224.0 136.0 224.0L179.0 224.0C180.10457 224.0 181.0 224.89543 181.0 226.0Z" fill-rule="nonzero"/><path stroke="#000000" stroke-width="2.0" stroke-linecap="butt" stroke-opacity="0.0" clip-path="url(#id_0)" d="M231.0 330.0L184.0 330.0L184.0 226.0C184.0 224.89543 184.89543 224.0 186.0 224.0L229.0 224.0C230.10457 224.0 231.0 224.89543 231.0 226.0Z" fill-rule="nonzero"/><path fill="#00796b" clip-path="url(#id_0)" d="M231.0 330.0L184.0 330.0L184.0 226.0C184.0 224.89543 184.89543 224.0 186.0 224.0L229.0 224.0C230.10457 224.0 231.0 224.89543 231.0 226.0Z" fill-rule="nonzero"/><path stroke="#000000" stroke-width="2.0" stroke-linecap="butt" stroke-opacity="0.0" clip-path="url(#id_0)" d="M281.0 330.0L234.0 330.0L234.0 67.0C234.0 65.89543 234.89543 65.0 236.0 65.0L279.0 65.0C280.10458 65.0 281.0 65.89543 281.0 67.0Z" fill-rule="nonzero"/><path fill="#00796b" clip-path="url(#id_0)" d="M281.0 330.0L234.0 330.0L234.0 67.0C234.0 65.89543 234.89543 65.0 236.0 65.0L279.0 65.0C280.10458 65.0 281.0 65.89543 281.0 67.0Z" fill-rule="nonzero"/><path stroke="#000000" stroke-width="2.0" stroke-linecap="butt" stroke-opacity="0.0" clip-path="url(#id_0)" d="M331.0 330.0L284.0 330.0L284.0 173.0C284.0 171.89543 284.89542 171.0 286.0 171.0L329.0 171.0C330.10458 171.0 331.0 171.89543 331.0 173.0Z" fill-rule="nonzero"/><path fill="#00796b" clip-path="url(#id_0)" d="M331.0 330.0L284.0 330.0L284.0 173.0C284.0 171.89543 284.89542 171.0 286.0 171.0L329.0 171.0C330.10458 171.0 331.0 171.89543 331.0 173.0Z" fill-rule="nonzero"/><path stroke="#000000" stroke-width="2.0" stroke-linecap="butt" stroke-opacity="0.0" clip-path="url(#id_0)" d="M381.0 330.0L334.0 330.0L334.0 226.0C334.0 224.89543 334.89542 224.0 336.0 224.0L379.0 224.0C380.10458 224.0 381.0 224.89543 381.0 226.0Z" fill-rule="nonzero"/><path fill="#00796b" clip-path="url(#id_0)" d="M381.0 330.0L334.0 330.0L334.0 226.0C334.0 224.89543 334.89542 224.0 336.0 224.0L379.0 224.0C380.10458 224.0 381.0 224.89543 381.0 226.0Z" fill-rule="nonzero"/><path stroke="#000000" stroke-width="2.0" stroke-linecap="butt" stroke-opacity="0.0" clip-path="url(#id_0)" d="M431.0 330.0L384.0 330.0L384.0 226.0C384.0 224.89543 384.89542 224.0 386.0 224.0L429.0 224.0C430.10458 224.0 431.0 224.89543 431.0 226.0Z" fill-rule="nonzero"/><path fill="#00796b" clip-path="url(#id_0)" d="M431.0 330.0L384.0 330.0L384.0 226.0C384.0 224.89543 384.89542 224.0 386.0 224.0L429.0 224.0C430.10458 224.0 431.0 224.89543 431.0 226.0Z" fill-rule="nonzero"/><path stroke="#000000" stroke-width="2.0" stroke-linecap="butt" stroke-opacity="0.0" clip-path="url(#id_0)" d="M481.0 330.0L434.0 330.0L434.0 173.0C434.0 171.89543 434.89542 171.0 436.0 171.0L479.0 171.0C480.10458 171.0 481.0 171.89543 481.0 173.0Z" fill-rule="nonzero"/><path fill="#00796b" clip-path="url(#id_0)" d="M481.0 330.0L434.0 330.0L434.0 173.0C434.0 171.89543 434.89542 171.0 436.0 171.0L479.0 171.0C480.10458 171.0 481.0 171.89543 481.0 173.0Z" fill-rule="nonzero"/><path stroke="#000000" stroke-width="2.0" stroke-linecap="butt" stroke-opacity="0.0" clip-path="url(#id_0)" d="M531.0 330.0L484.0 330.0L484.0 279.0C484.0 277.89542 484.89542 277.0 486.0 277.0L529.0 277.0C530.10455 277.0 531.0 277.89542 531.0 279.0Z" fill-rule="nonzero"/><path fill="#00796b" clip-path="url(#id_0)" d="M531.0 330.0L484.0 330.0L484.0 279.0C484.0 277.89542 484.89542 277.0 486.0 277.0L529.0 277.0C530.10455 277.0 531.0 277.89542 531.0 279.0Z" fill-rule="nonzero"/><path stroke="#000000" stroke-width="2.0" stroke-linecap="butt" stroke-opacity="0.0" clip-path="url(#id_0)" d="M581.0 330.0L534.0 330.0L534.0 330.0L581.0 330.0Z" fill-rule="nonzero"/><path fill="#00796b" clip-path="url(#id_0)" d="M581.0 330.0L534.0 330.0L534.0 330.0L581.0 330.0Z" fill-rule="nonzero"/><path fill="#233a44" d="M31.550013 259.85522L31.550013 261.29272L23.737513 265.43335L31.550013 265.43335L31.550013 266.51147L22.831263 266.51147L22.831263 264.7146L29.956263 260.93335L22.831263 260.93335L22.831263 259.85522L31.550013 259.85522ZM28.284388 252.02708Q29.878138 252.02708 30.815638 252.85521Q31.737513 253.66771 31.737513 255.04271Q31.737513 256.43335 30.815638 257.24585Q29.878138 258.05835 28.284388 258.05835Q26.675013 258.05835 25.753138 257.24585Q24.815638 256.43335 24.815638 255.04271Q24.815638 253.66771 25.753138 252.85521Q26.675013 252.02708 28.284388 252.02708ZM28.284388 253.15208Q27.003138 253.15208 26.393763 253.65208Q25.768763 254.15208 25.768763 255.04271Q25.768763 255.93333 26.393763 256.43335Q27.003138 256.91772 28.284388 256.91772Q29.503138 256.91772 30.143763 256.43335Q30.784388 255.93333 30.784388 255.04271Q30.784388 254.15208 30.159388 253.65208Q29.518763 253.15208 28.284388 253.15208ZM31.550013 241.04271L31.550013 242.15208L27.815638 242.15208Q27.393763 242.15208 27.003138 242.19896Q26.612513 242.23021 26.378138 242.35521Q26.128138 242.48021 26.003138 242.73021Q25.878138 242.98021 25.878138 243.46458Q25.878138 243.91771 26.112513 244.38646Q26.331263 244.85521 26.690638 245.30833Q26.831263 245.29271 27.018763 245.29271Q27.190638 245.27708 27.362513 245.27708L31.550013 245.27708L31.550013 246.37083L27.815638 246.37083Q27.393763 246.37083 27.003138 246.41771Q26.612513 246.44896 26.378138 246.57396Q26.128138 246.71458 26.003138 246.96458Q25.878138 247.21458 25.878138 247.68333Q25.878138 248.13646 26.096888 248.58958Q26.315638 249.04271 26.659388 249.49583L31.550013 249.49583L31.550013 250.60521L25.003138 250.60521L25.003138 249.49583L25.737513 249.49583Q25.300013 248.98021 25.065638 248.46458Q24.815638 247.94896 24.815638 247.37083Q24.815638 246.71458 25.096888 246.24583Q25.378138 245.77708 25.878138 245.54271Q25.315638 244.88646 25.065638 244.33958Q24.815638 243.77708 24.815638 243.15208Q24.815638 242.07396 25.471888 241.55833Q26.128138 241.04271 27.300013 241.04271L31.550013 241.04271ZM28.221888 232.83958Q29.050013 232.83958 29.706263 233.07396Q30.362513 233.30833 30.800013 233.69896Q31.268763 234.10521 31.503138 234.60521Q31.737513 235.10521 31.737513 235.69896Q31.737513 236.26146 31.596888 236.68333Q31.471888 237.08958 31.237513 237.49583L31.550013 237.57396L31.550013 238.60521L22.425013 238.60521L22.425013 237.49583L25.690638 237.49583Q25.315638 237.02708 25.065638 236.51146Q24.815638 235.99583 24.815638 235.33958Q24.815638 234.18333 25.706263 233.51146Q26.596888 232.83958 28.221888 232.83958ZM28.253138 233.98021Q27.081263 233.98021 26.487513 234.37083Q25.878138 234.74583 25.878138 235.60521Q25.878138 236.08958 26.081263 236.58958Q26.284388 237.07396 26.612513 237.49583L30.362513 237.49583Q30.581263 237.02708 30.659388 236.69896Q30.737513 236.35521 30.737513 235.93333Q30.737513 235.01146 30.143763 234.49583Q29.534388 233.98021 28.253138 233.98021ZM26.206263 227.51146L26.206263 227.57396Q26.143763 227.82396 26.128138 228.05833Q26.096888 228.27708 26.096888 228.60521Q26.096888 229.10521 26.331263 229.58958Q26.550013 230.05833 26.909388 230.49583L31.550013 230.49583L31.550013 231.60521L25.003138 231.60521L25.003138 230.49583L25.971888 230.49583Q25.440638 229.83958 25.221888 229.33958Q25.003138 228.83958 25.003138 228.32396Q25.003138 228.02708 25.018763 227.90208Q25.034388 227.77708 25.081263 227.51146L26.206263 227.51146ZM28.393763 221.12083L28.393763 225.94896Q28.987513 225.94896 29.440638 225.76146Q29.893763 225.57396 30.175013 225.26146Q30.456263 224.96458 30.596888 224.54271Q30.737513 224.12083 30.737513 223.62083Q30.737513 222.94896 30.471888 222.27708Q30.206263 221.58958 29.956263 221.30833L29.956263 221.24583L31.143763 221.24583Q31.378138 221.80833 31.550013 222.38646Q31.706263 222.96458 31.706263 223.60521Q31.706263 225.23021 30.831263 226.15208Q29.940638 227.05833 28.315638 227.05833Q26.706263 227.05833 25.768763 226.18333Q24.815638 225.30833 24.815638 223.88646Q24.815638 222.55833 25.596888 221.83958Q26.362513 221.12083 27.800013 221.12083L28.393763 221.12083ZM27.550013 222.19896Q26.675013 222.19896 26.206263 222.63646Q25.737513 223.05833 25.737513 223.93333Q25.737513 224.82396 26.253138 225.35521Q26.768763 225.87083 27.550013 225.94896L27.550013 222.19896ZM31.550013 210.29271L31.550013 211.38646L30.862513 211.38646Q31.268763 211.87083 31.503138 212.38646Q31.737513 212.90208 31.737513 213.49583Q31.737513 214.66771 30.831263 215.35521Q29.925013 216.04271 28.331263 216.04271Q27.487513 216.04271 26.846888 215.80833Q26.190638 215.57396 25.737513 215.16771Q25.284388 214.77708 25.050013 214.24583Q24.815638 213.71458 24.815638 213.13646Q24.815638 212.62083 24.925013 212.23021Q25.034388 211.82396 25.268763 211.38646L22.425013 211.38646L22.425013 210.29271L31.550013 210.29271ZM29.940638 211.38646L26.175013 211.38646Q25.987513 211.83958 25.909388 212.19896Q25.831263 212.54271 25.831263 212.94896Q25.831263 213.88646 26.471888 214.40208Q27.112513 214.91771 28.300013 214.91771Q29.471888 214.91771 30.081263 214.52708Q30.675013 214.12083 30.675013 213.23021Q30.675013 212.76146 30.471888 212.29271Q30.268763 211.80833 29.940638 211.38646ZM22.425013 207.41771L25.831263 207.66771L25.831263 208.46458L22.425013 208.71458L22.425013 207.41771ZM31.550013 200.51146L31.550013 201.60521L30.846888 201.60521Q30.956263 201.76146 31.143763 202.01146Q31.315638 202.24583 31.409388 202.48021Q31.550013 202.76146 31.643763 203.12083Q31.737513 203.48021 31.737513 203.96458Q31.737513 204.83958 31.159388 205.46458Q30.565638 206.07396 29.643763 206.07396Q28.909388 206.07396 28.456263 205.76146Q27.987513 205.43333 27.721888 204.83958Q27.456263 204.24583 27.362513 203.41771Q27.268763 202.57396 27.221888 201.60521L27.050013 201.60521Q26.675013 201.60521 26.440638 201.74583Q26.190638 201.87083 26.050013 202.12083Q25.909388 202.35521 25.862513 202.68333Q25.815638 203.01146 25.815638 203.37083Q25.815638 203.79271 25.940638 204.33958Q26.050013 204.87083 26.268763 205.43333L26.268763 205.49583L25.143763 205.49583Q25.050013 205.16771 24.956263 204.55833Q24.846888 203.94896 24.846888 203.35521Q24.846888 202.66771 24.971888 202.15208Q25.081263 201.63646 25.346888 201.26146Q25.612513 200.90208 26.050013 200.71458Q26.471888 200.51146 27.112513 200.51146L31.550013 200.51146ZM29.940638 201.60521L28.112513 201.60521Q28.143763 202.10521 28.206263 202.79271Q28.268763 203.48021 28.378138 203.87083Q28.503138 204.35521 28.800013 204.65208Q29.081263 204.93333 29.581263 204.93333Q30.143763 204.93333 30.425013 204.60521Q30.706263 204.26146 30.706263 203.55833Q30.706263 202.98021 30.487513 202.49583Q30.253138 202.01146 29.940638 201.60521ZM28.190638 192.83958Q28.987513 192.83958 29.659388 193.07396Q30.315638 193.29271 30.768763 193.71458Q31.206263 194.10521 31.440638 194.63646Q31.675013 195.15208 31.675013 195.73021Q31.675013 196.24583 31.565638 196.66771Q31.456263 197.07396 31.221888 197.49583L33.971886 197.49583L33.971886 198.60521L25.003138 198.60521L25.003138 197.49583L25.690638 197.49583Q25.315638 197.05833 25.065638 196.51146Q24.815638 195.96458 24.815638 195.33958Q24.815638 194.15208 25.721888 193.49583Q26.612513 192.83958 28.190638 192.83958ZM28.221888 193.98021Q27.050013 193.98021 26.471888 194.38646Q25.878138 194.77708 25.878138 195.62083Q25.878138 196.08958 26.081263 196.57396Q26.284388 197.05833 26.612513 197.49583L30.331263 197.49583Q30.534388 197.02708 30.612513 196.69896Q30.690638 196.35521 30.690638 195.93333Q30.690638 195.01146 30.065638 194.49583Q29.440638 193.98021 28.221888 193.98021ZM28.190638 185.83958Q28.987513 185.83958 29.659388 186.07396Q30.315638 186.29271 30.768763 186.71458Q31.206263 187.10521 31.440638 187.63646Q31.675013 188.15208 31.675013 188.73021Q31.675013 189.24583 31.565638 189.66771Q31.456263 190.07396 31.221888 190.49583L33.971886 190.49583L33.971886 191.60521L25.003138 191.60521L25.003138 190.49583L25.690638 190.49583Q25.315638 190.05833 25.065638 189.51146Q24.815638 188.96458 24.815638 188.33958Q24.815638 187.15208 25.721888 186.49583Q26.612513 185.83958 28.190638 185.83958ZM28.221888 186.98021Q27.050013 186.98021 26.471888 187.38646Q25.878138 187.77708 25.878138 188.62083Q25.878138 189.08958 26.081263 189.57396Q26.284388 190.05833 26.612513 190.49583L30.331263 190.49583Q30.534388 190.02708 30.612513 189.69896Q30.690638 189.35521 30.690638 188.93333Q30.690638 188.01146 30.065638 187.49583Q29.440638 186.98021 28.221888 186.98021ZM31.550013 179.51146L31.550013 180.60521L30.846888 180.60521Q30.956263 180.76146 31.143763 181.01146Q31.315638 181.24583 31.409388 181.48021Q31.550013 181.76146 31.643763 182.12083Q31.737513 182.48021 31.737513 182.96458Q31.737513 183.83958 31.159388 184.46458Q30.565638 185.07396 29.643763 185.07396Q28.909388 185.07396 28.456263 184.76146Q27.987513 184.43333 27.721888 183.83958Q27.456263 183.24583 27.362513 182.41771Q27.268763 181.57396 27.221888 180.60521L27.050013 180.60521Q26.675013 180.60521 26.440638 180.74583Q26.190638 180.87083 26.050013 181.12083Q25.909388 181.35521 25.862513 181.68333Q25.815638 182.01146 25.815638 182.37083Q25.815638 182.79271 25.940638 183.33958Q26.050013 183.87083 26.268763 184.43333L26.268763 184.49583L25.143763 184.49583Q25.050013 184.16771 24.956263 183.55833Q24.846888 182.94896 24.846888 182.35521Q24.846888 181.66771 24.971888 181.15208Q25.081263 180.63646 25.346888 180.26146Q25.612513 179.90208 26.050013 179.71458Q26.471888 179.51146 27.112513 179.51146L31.550013 179.51146ZM29.940638 180.60521L28.112513 180.60521Q28.143763 181.10521 28.206263 181.79271Q28.268763 182.48021 28.378138 182.87083Q28.503138 183.35521 28.800013 183.65208Q29.081263 183.93333 29.581263 183.93333Q30.143763 183.93333 30.425013 183.60521Q30.706263 183.26146 30.706263 182.55833Q30.706263 181.98021 30.487513 181.49583Q30.253138 181.01146 29.940638 180.60521ZM26.206263 173.51146L26.206263 173.57396Q26.143763 173.82396 26.128138 174.05833Q26.096888 174.27708 26.096888 174.60521Q26.096888 175.10521 26.331263 175.58958Q26.550013 176.05833 26.909388 176.49583L31.550013 176.49583L31.550013 177.60521L25.003138 177.60521L25.003138 176.49583L25.971888 176.49583Q25.440638 175.83958 25.221888 175.33958Q25.003138 174.83958 25.003138 174.32396Q25.003138 174.02708 25.018763 173.90208Q25.034388 173.77708 25.081263 173.51146L26.206263 173.51146ZM23.909388 171.41771L23.909388 172.65208L22.768763 172.65208L22.768763 171.41771L23.909388 171.41771ZM31.550013 171.48021L31.550013 172.58958L25.003138 172.58958L25.003138 171.48021L31.550013 171.48021ZM31.487513 166.19896Q31.581263 166.51146 31.628138 166.88646Q31.675013 167.24583 31.675013 167.52708Q31.675013 168.52708 31.143763 169.05833Q30.596888 169.57396 29.409388 169.57396L25.925013 169.57396L25.925013 170.32396L25.003138 170.32396L25.003138 169.57396L23.128138 169.57396L23.128138 168.48021L25.003138 168.48021L25.003138 166.19896L25.925013 166.19896L25.925013 168.48021L28.909388 168.48021Q29.425013 168.48021 29.721888 168.46458Q30.003138 168.43333 30.253138 168.29271Q30.487513 168.15208 30.596888 167.93333Q30.706263 167.69896 30.706263 167.24583Q30.706263 166.98021 30.628138 166.68333Q30.550013 166.38646 30.503138 166.26146L30.503138 166.19896L31.487513 166.19896ZM23.909388 163.41771L23.909388 164.65208L22.768763 164.65208L22.768763 163.41771L23.909388 163.41771ZM31.550013 163.48021L31.550013 164.58958L25.003138 164.58958L25.003138 163.48021L31.550013 163.48021ZM28.284388 156.02708Q29.878138 156.02708 30.815638 156.85521Q31.737513 157.66771 31.737513 159.04271Q31.737513 160.43333 30.815638 161.24583Q29.878138 162.05833 28.284388 162.05833Q26.675013 162.05833 25.753138 161.24583Q24.815638 160.43333 24.815638 159.04271Q24.815638 157.66771 25.753138 156.85521Q26.675013 156.02708 28.284388 156.02708ZM28.284388 157.15208Q27.003138 157.15208 26.393763 157.65208Q25.768763 158.15208 25.768763 159.04271Q25.768763 159.93333 26.393763 160.43333Q27.003138 160.91771 28.284388 160.91771Q29.503138 160.91771 30.143763 160.43333Q30.784388 159.93333 30.784388 159.04271Q30.784388 158.15208 30.159388 157.65208Q29.518763 157.15208 28.284388 157.15208ZM31.550013 149.12083L31.550013 150.23021L27.815638 150.23021Q27.378138 150.23021 26.987513 150.29271Q26.581263 150.33958 26.362513 150.48021Q26.112513 150.62083 26.003138 150.90208Q25.878138 151.16771 25.878138 151.60521Q25.878138 152.05833 26.096888 152.55833Q26.315638 153.04271 26.659388 153.49583L31.550013 153.49583L31.550013 154.60521L25.003138 154.60521L25.003138 153.49583L25.737513 153.49583Q25.300013 152.98021 25.065638 152.43333Q24.815638 151.88646 24.815638 151.29271Q24.815638 150.24583 25.456263 149.68333Q26.096888 149.12083 27.300013 149.12083L31.550013 149.12083ZM29.659388 141.91771Q30.565638 141.91771 31.143763 142.66771Q31.706263 143.40208 31.706263 144.68333Q31.706263 145.41771 31.534388 146.02708Q31.362513 146.62083 31.159388 147.04271L29.925013 147.04271L29.925013 146.98021Q30.315638 146.46458 30.550013 145.82396Q30.768763 145.18333 30.768763 144.58958Q30.768763 143.87083 30.534388 143.46458Q30.300013 143.04271 29.800013 143.04271Q29.409388 143.04271 29.221888 143.27708Q29.018763 143.49583 28.878138 144.12083Q28.831263 144.35521 28.768763 144.74583Q28.690638 145.12083 28.596888 145.43333Q28.378138 146.29271 27.940638 146.65208Q27.487513 147.01146 26.846888 147.01146Q26.440638 147.01146 26.081263 146.83958Q25.721888 146.66771 25.440638 146.33958Q25.175013 146.01146 25.018763 145.51146Q24.846888 144.99583 24.846888 144.37083Q24.846888 143.77708 24.987513 143.18333Q25.128138 142.57396 25.331263 142.18333L26.518763 142.18333L26.518763 142.24583Q26.206263 142.66771 26.003138 143.27708Q25.784388 143.87083 25.784388 144.44896Q25.784388 145.05833 26.018763 145.48021Q26.237513 145.88646 26.690638 145.88646Q27.096888 145.88646 27.300013 145.63646Q27.518763 145.38646 27.643763 144.83958Q27.706263 144.52708 27.784388 144.15208Q27.846888 143.77708 27.909388 143.52708Q28.081263 142.76146 28.518763 142.33958Q28.940638 141.91771 29.659388 141.91771Z" fill-rule="nonzero"/><path fill="#233a44" d="M75.39375 331.09064Q75.39375 333.4344 74.65938 334.54376Q73.925 335.6375 72.37813 335.6375Q70.8 335.6375 70.06563 334.52814Q69.34688 333.40314 69.34688 331.09064Q69.34688 328.7625 70.08125 327.65314Q70.81563 326.54376 72.37813 326.54376Q73.94063 326.54376 74.65938 327.6844Q75.39375 328.8094 75.39375 331.09064ZM73.84688 333.7469Q74.05 333.2625 74.12813 332.6219Q74.20625 331.98126 74.20625 331.09064Q74.20625 330.2 74.12813 329.54376Q74.05 328.8875 73.84688 328.41876Q73.64375 327.96564 73.28438 327.7469Q72.925 327.5125 72.37813 327.5125Q71.81563 327.5125 71.45625 327.7469Q71.09688 327.96564 70.89375 328.4344Q70.69063 328.8719 70.6125 329.575Q70.55 330.2625 70.55 331.09064Q70.55 332.0125 70.6125 332.6375Q70.675 333.2469 70.87813 333.73126Q71.08125 334.1844 71.425 334.4344Q71.78438 334.66876 72.37813 334.66876Q72.925 334.66876 73.28438 334.4344Q73.64375 334.2 73.84688 333.7469Z" fill-rule="nonzero"/><path fill="#233a44" d="M74.90938 282.34332L70.175 282.34332L70.175 281.4527L72.00313 281.4527L72.00313 275.60895L70.175 275.60895L70.175 274.81207Q70.55 274.81207 70.97188 274.74957Q71.39375 274.68707 71.6125 274.56207Q71.87813 274.42145 72.03438 274.2027Q72.19063 273.96832 72.20625 273.59332L73.12813 273.59332L73.12813 281.4527L74.90938 281.4527L74.90938 282.34332Z" fill-rule="nonzero"/><path fill="#233a44" d="M75.39375 229.23666L69.4875 229.23666L69.4875 228.01791Q70.1125 227.48666 70.72188 226.95541Q71.34688 226.42416 71.87813 225.90854Q73.00313 224.81479 73.40938 224.17416Q73.83125 223.53354 73.83125 222.78354Q73.83125 222.11166 73.37813 221.73666Q72.94063 221.34604 72.14375 221.34604Q71.59688 221.34604 70.97188 221.53354Q70.3625 221.72104 69.76875 222.11166L69.70625 222.11166L69.70625 220.87729Q70.12813 220.67416 70.81563 220.50229Q71.51875 220.33041 72.15938 220.33041Q73.50313 220.33041 74.26875 220.98666Q75.03438 221.62729 75.03438 222.73666Q75.03438 223.23666 74.90938 223.67416Q74.78438 224.09604 74.53438 224.47104Q74.3 224.84604 73.9875 225.20541Q73.69063 225.54916 73.25313 225.97104Q72.62813 226.58041 71.95625 227.15854Q71.28438 227.73666 70.70625 228.23666L75.39375 228.23666L75.39375 229.23666Z" fill-rule="nonzero"/><path fill="#233a44" d="M74.62813 171.92688Q74.90938 172.17688 75.09688 172.5675Q75.28438 172.9425 75.28438 173.55188Q75.28438 174.14563 75.06563 174.64563Q74.84688 175.14563 74.45625 175.505Q74.01875 175.91125 73.40938 176.11438Q72.81563 176.3175 72.1125 176.3175Q71.39375 176.3175 70.69063 176.13Q69.9875 175.95813 69.53438 175.755L69.53438 174.53625L69.6125 174.53625Q70.1125 174.86438 70.78438 175.08313Q71.45625 175.30188 72.09688 175.30188Q72.45625 175.30188 72.8625 175.17688Q73.28438 175.05188 73.55 174.8175Q73.81563 174.55188 73.94063 174.23938Q74.08125 173.92688 74.08125 173.45813Q74.08125 172.98938 73.925 172.6925Q73.78438 172.38 73.51875 172.1925Q73.25313 172.02063 72.87813 171.95813Q72.50313 171.88 72.06563 171.88L71.55 171.88L71.55 170.91125L71.95625 170.91125Q72.84688 170.91125 73.37813 170.53625Q73.90938 170.16125 73.90938 169.4425Q73.90938 169.13 73.76875 168.89563Q73.64375 168.66125 73.39375 168.505Q73.14375 168.34875 72.84688 168.30188Q72.56563 168.23938 72.20625 168.23938Q71.64375 168.23938 71.01875 168.4425Q70.39375 168.63 69.84688 169.005L69.78438 169.005L69.78438 167.77063Q70.19063 167.5675 70.87813 167.39563Q71.58125 167.22375 72.2375 167.22375Q72.87813 167.22375 73.3625 167.34875Q73.84688 167.45813 74.2375 167.70813Q74.65938 167.98938 74.87813 168.39563Q75.09688 168.78625 75.09688 169.33313Q75.09688 170.05188 74.58125 170.59875Q74.06563 171.13 73.37813 171.27063L73.37813 171.36438Q73.65938 171.41125 74.01875 171.5675Q74.37813 171.70813 74.62813 171.92688Z" fill-rule="nonzero"/><path fill="#233a44" d="M75.59688 120.570206L74.3 120.570206L74.3 123.02333L73.175 123.02333L73.175 120.570206L69.00313 120.570206L69.00313 119.226456L73.22188 114.30458L74.3 114.30458L74.3 119.632706L75.59688 119.632706L75.59688 120.570206ZM73.175 119.632706L73.175 115.695206L69.8 119.632706L73.175 119.632706Z" fill-rule="nonzero"/><path fill="#233a44" d="M75.33125 67.15104Q75.33125 67.760414 75.09688 68.322914Q74.87813 68.86979 74.50313 69.24479Q74.08125 69.65104 73.4875 69.885414Q72.90938 70.104164 72.14375 70.104164Q71.425 70.104164 70.75313 69.947914Q70.09688 69.791664 69.64375 69.58854L69.64375 68.354164L69.72188 68.354164Q70.20625 68.65104 70.84688 68.86979Q71.50313 69.08854 72.1125 69.08854Q72.53438 69.08854 72.925 68.979164Q73.31563 68.854164 73.6125 68.55729Q73.87813 68.30729 74.00313 67.96354Q74.14375 67.604164 74.14375 67.135414Q74.14375 66.68229 73.9875 66.385414Q73.83125 66.072914 73.55 65.885414Q73.25313 65.65104 72.81563 65.572914Q72.37813 65.479164 71.83125 65.479164Q71.31563 65.479164 70.83125 65.55729Q70.3625 65.61979 70.01875 65.68229L70.01875 61.197914L75.26875 61.197914L75.26875 62.21354L71.15938 62.21354L71.15938 64.541664Q71.40938 64.510414 71.65938 64.510414Q71.925 64.49479 72.12813 64.49479Q72.83125 64.49479 73.3625 64.61979Q73.89375 64.729164 74.34688 65.041664Q74.81563 65.354164 75.06563 65.86979Q75.33125 66.36979 75.33125 67.15104Z" fill-rule="nonzero"/><path fill="#233a44" d="M66.62813 345.2469Q66.90938 345.4969 67.09688 345.8875Q67.28438 346.2625 67.28438 346.8719Q67.28438 347.46564 67.06563 347.96564Q66.84688 348.46564 66.45625 348.825Q66.01875 349.23126 65.40938 349.4344Q64.81563 349.6375 64.1125 349.6375Q63.39375 349.6375 62.690624 349.45Q61.9875 349.27814 61.534374 349.075L61.534374 347.85626L61.6125 347.85626Q62.1125 348.1844 62.784374 348.40314Q63.45625 348.6219 64.09688 348.6219Q64.45625 348.6219 64.8625 348.4969Q65.28438 348.3719 65.55 348.1375Q65.81563 347.8719 65.94063 347.5594Q66.08125 347.2469 66.08125 346.77814Q66.08125 346.3094 65.925 346.0125Q65.78438 345.7 65.51875 345.5125Q65.25313 345.34064 64.87813 345.27814Q64.50313 345.2 64.06563 345.2L63.55 345.2L63.55 344.23126L63.95625 344.23126Q64.84688 344.23126 65.37813 343.85626Q65.90938 343.48126 65.90938 342.7625Q65.90938 342.45 65.76875 342.21564Q65.64375 341.98126 65.39375 341.825Q65.14375 341.66876 64.84688 341.6219Q64.56563 341.5594 64.20625 341.5594Q63.64375 341.5594 63.01875 341.7625Q62.39375 341.95 61.846874 342.325L61.784374 342.325L61.784374 341.09064Q62.190624 340.8875 62.878124 340.71564Q63.58125 340.54376 64.2375 340.54376Q64.87813 340.54376 65.3625 340.66876Q65.84688 340.77814 66.2375 341.02814Q66.65938 341.3094 66.87813 341.71564Q67.09688 342.10626 67.09688 342.65314Q67.09688 343.3719 66.58125 343.91876Q66.06563 344.45 65.37813 344.59064L65.37813 344.6844Q65.65938 344.73126 66.01875 344.8875Q66.37813 345.02814 66.62813 345.2469ZM74.62813 345.2469Q74.90938 345.4969 75.09688 345.8875Q75.28438 346.2625 75.28438 346.8719Q75.28438 347.46564 75.06563 347.96564Q74.84688 348.46564 74.45625 348.825Q74.01875 349.23126 73.40938 349.4344Q72.81563 349.6375 72.1125 349.6375Q71.39375 349.6375 70.69063 349.45Q69.9875 349.27814 69.53438 349.075L69.53438 347.85626L69.6125 347.85626Q70.1125 348.1844 70.78438 348.40314Q71.45625 348.6219 72.09688 348.6219Q72.45625 348.6219 72.8625 348.4969Q73.28438 348.3719 73.55 348.1375Q73.81563 347.8719 73.94063 347.5594Q74.08125 347.2469 74.08125 346.77814Q74.08125 346.3094 73.925 346.0125Q73.78438 345.7 73.51875 345.5125Q73.25313 345.34064 72.87813 345.27814Q72.50313 345.2 72.06563 345.2L71.55 345.2L71.55 344.23126L71.95625 344.23126Q72.84688 344.23126 73.37813 343.85626Q73.90938 343.48126 73.90938 342.7625Q73.90938 342.45 73.76875 342.21564Q73.64375 341.98126 73.39375 341.825Q73.14375 341.66876 72.84688 341.6219Q72.56563 341.5594 72.20625 341.5594Q71.64375 341.5594 71.01875 341.7625Q70.39375 341.95 69.84688 342.325L69.78438 342.325L69.78438 341.09064Q70.19063 340.8875 70.87813 340.71564Q71.58125 340.54376 72.2375 340.54376Q72.87813 340.54376 73.3625 340.66876Q73.84688 340.77814 74.2375 341.02814Q74.65938 341.3094 74.87813 341.71564Q75.09688 342.10626 75.09688 342.65314Q75.09688 343.3719 74.58125 343.91876Q74.06563 344.45 73.37813 344.59064L73.37813 344.6844Q73.65938 344.73126 74.01875 344.8875Q74.37813 345.02814 74.62813 345.2469ZM83.33125 346.6844Q83.33125 347.29376 83.09688 347.85626Q82.87813 348.40314 82.50313 348.77814Q82.08125 349.1844 81.4875 349.41876Q80.90938 349.6375 80.14375 349.6375Q79.425 349.6375 78.75313 349.48126Q78.09688 349.325 77.64375 349.1219L77.64375 347.8875L77.72188 347.8875Q78.20625 348.1844 78.84688 348.40314Q79.50313 348.6219 80.1125 348.6219Q80.53438 348.6219 80.925 348.5125Q81.31563 348.3875 81.6125 348.09064Q81.87813 347.84064 82.00313 347.4969Q82.14375 347.1375 82.14375 346.66876Q82.14375 346.21564 81.9875 345.91876Q81.83125 345.60626 81.55 345.41876Q81.25313 345.1844 80.81563 345.10626Q80.37813 345.0125 79.83125 345.0125Q79.31563 345.0125 78.83125 345.09064Q78.3625 345.15314 78.01875 345.21564L78.01875 340.73126L83.26875 340.73126L83.26875 341.7469L79.15938 341.7469L79.15938 344.075Q79.40938 344.04376 79.65938 344.04376Q79.925 344.02814 80.12813 344.02814Q80.83125 344.02814 81.3625 344.15314Q81.89375 344.2625 82.34688 344.575Q82.81563 344.8875 83.06563 345.40314Q83.33125 345.90314 83.33125 346.6844ZM87.925 347.77814L86.26875 351.6219L85.40938 351.6219L86.425 347.77814L87.925 347.77814ZM95.39375 345.09064Q95.39375 347.4344 94.65938 348.54376Q93.925 349.6375 92.37813 349.6375Q90.8 349.6375 90.06563 348.52814Q89.34688 347.40314 89.34688 345.09064Q89.34688 342.7625 90.08125 341.65314Q90.81563 340.54376 92.37813 340.54376Q93.94063 340.54376 94.65938 341.6844Q95.39375 342.8094 95.39375 345.09064ZM93.84688 347.7469Q94.05 347.2625 94.12813 346.6219Q94.20625 345.98126 94.20625 345.09064Q94.20625 344.2 94.12813 343.54376Q94.05 342.8875 93.84688 342.41876Q93.64375 341.96564 93.28438 341.7469Q92.925 341.5125 92.37813 341.5125Q91.81563 341.5125 91.45625 341.7469Q91.09688 341.96564 90.89375 342.4344Q90.69063 342.8719 90.6125 343.575Q90.55 344.2625 90.55 345.09064Q90.55 346.0125 90.6125 346.6375Q90.675 347.2469 90.87813 347.73126Q91.08125 348.1844 91.425 348.4344Q91.78438 348.66876 92.37813 348.66876Q92.925 348.66876 93.28438 348.4344Q93.64375 348.2 93.84688 347.7469ZM103.39375 345.09064Q103.39375 347.4344 102.65938 348.54376Q101.925 349.6375 100.37813 349.6375Q98.8 349.6375 98.06563 348.52814Q97.34688 347.40314 97.34688 345.09064Q97.34688 342.7625 98.08125 341.65314Q98.81563 340.54376 100.37813 340.54376Q101.94063 340.54376 102.65938 341.6844Q103.39375 342.8094 103.39375 345.09064ZM101.84688 347.7469Q102.05 347.2625 102.12813 346.6219Q102.20625 345.98126 102.20625 345.09064Q102.20625 344.2 102.12813 343.54376Q102.05 342.8875 101.84688 342.41876Q101.64375 341.96564 101.28438 341.7469Q100.925 341.5125 100.37813 341.5125Q99.81563 341.5125 99.45625 341.7469Q99.09688 341.96564 98.89375 342.4344Q98.69063 342.8719 98.6125 343.575Q98.55 344.2625 98.55 345.09064Q98.55 346.0125 98.6125 346.6375Q98.675 347.2469 98.87813 347.73126Q99.08125 348.1844 99.425 348.4344Q99.78438 348.66876 100.37813 348.66876Q100.925 348.66876 101.28438 348.4344Q101.64375 348.2 101.84688 347.7469Z" fill-rule="nonzero"/><path fill="#233a44" d="M116.51813 345.2469Q116.79938 345.4969 116.98688 345.8875Q117.17438 346.2625 117.17438 346.8719Q117.17438 347.46564 116.95563 347.96564Q116.73688 348.46564 116.34625 348.825Q115.90875 349.23126 115.29938 349.4344Q114.70563 349.6375 114.0025 349.6375Q113.28375 349.6375 112.58063 349.45Q111.8775 349.27814 111.42438 349.075L111.42438 347.85626L111.5025 347.85626Q112.0025 348.1844 112.67438 348.40314Q113.34625 348.6219 113.98688 348.6219Q114.34625 348.6219 114.7525 348.4969Q115.17438 348.3719 115.44 348.1375Q115.70563 347.8719 115.83063 347.5594Q115.97125 347.2469 115.97125 346.77814Q115.97125 346.3094 115.815 346.0125Q115.67438 345.7 115.40875 345.5125Q115.14313 345.34064 114.76813 345.27814Q114.39313 345.2 113.95563 345.2L113.44 345.2L113.44 344.23126L113.84625 344.23126Q114.73688 344.23126 115.26813 343.85626Q115.79938 343.48126 115.79938 342.7625Q115.79938 342.45 115.65875 342.21564Q115.53375 341.98126 115.28375 341.825Q115.03375 341.66876 114.73688 341.6219Q114.45563 341.5594 114.09625 341.5594Q113.53375 341.5594 112.90875 341.7625Q112.28375 341.95 111.73688 342.325L111.67438 342.325L111.67438 341.09064Q112.08063 340.8875 112.76813 340.71564Q113.47125 340.54376 114.1275 340.54376Q114.76813 340.54376 115.2525 340.66876Q115.73688 340.77814 116.1275 341.02814Q116.54938 341.3094 116.76813 341.71564Q116.98688 342.10626 116.98688 342.65314Q116.98688 343.3719 116.47125 343.91876Q115.95563 344.45 115.26813 344.59064L115.26813 344.6844Q115.54938 344.73126 115.90875 344.8875Q116.26813 345.02814 116.51813 345.2469ZM124.51813 345.2469Q124.79938 345.4969 124.98688 345.8875Q125.17438 346.2625 125.17438 346.8719Q125.17438 347.46564 124.95563 347.96564Q124.73688 348.46564 124.34625 348.825Q123.90875 349.23126 123.29938 349.4344Q122.70563 349.6375 122.0025 349.6375Q121.28375 349.6375 120.58063 349.45Q119.8775 349.27814 119.42438 349.075L119.42438 347.85626L119.5025 347.85626Q120.0025 348.1844 120.67438 348.40314Q121.34625 348.6219 121.98688 348.6219Q122.34625 348.6219 122.7525 348.4969Q123.17438 348.3719 123.44 348.1375Q123.70563 347.8719 123.83063 347.5594Q123.97125 347.2469 123.97125 346.77814Q123.97125 346.3094 123.815 346.0125Q123.67438 345.7 123.40875 345.5125Q123.14313 345.34064 122.76813 345.27814Q122.39313 345.2 121.95563 345.2L121.44 345.2L121.44 344.23126L121.84625 344.23126Q122.73688 344.23126 123.26813 343.85626Q123.79938 343.48126 123.79938 342.7625Q123.79938 342.45 123.65875 342.21564Q123.53375 341.98126 123.28375 341.825Q123.03375 341.66876 122.73688 341.6219Q122.45563 341.5594 122.09625 341.5594Q121.53375 341.5594 120.90875 341.7625Q120.28375 341.95 119.73688 342.325L119.67438 342.325L119.67438 341.09064Q120.08063 340.8875 120.76813 340.71564Q121.47125 340.54376 122.1275 340.54376Q122.76813 340.54376 123.2525 340.66876Q123.73688 340.77814 124.1275 341.02814Q124.54938 341.3094 124.76813 341.71564Q124.98688 342.10626 124.98688 342.65314Q124.98688 343.3719 124.47125 343.91876Q123.95563 344.45 123.26813 344.59064L123.26813 344.6844Q123.54938 344.73126 123.90875 344.8875Q124.26813 345.02814 124.51813 345.2469ZM133.42438 346.6219Q133.42438 347.95 132.54938 348.79376Q131.67438 349.6375 130.39313 349.6375Q129.7525 349.6375 129.22125 349.4344Q128.69 349.23126 128.29938 348.84064Q127.78375 348.35626 127.5025 347.5594Q127.23688 346.7469 127.23688 345.6219Q127.23688 344.45 127.48688 343.5594Q127.73688 342.66876 128.28375 341.96564Q128.79938 341.3094 129.61188 340.9344Q130.42438 340.5594 131.51813 340.5594Q131.86188 340.5594 132.09625 340.59064Q132.33063 340.6219 132.565 340.7L132.565 341.8094L132.51813 341.8094Q132.34625 341.73126 132.01813 341.65314Q131.69 341.575 131.34625 341.575Q130.08063 341.575 129.33063 342.35626Q128.58063 343.1375 128.45563 344.48126Q128.95563 344.1844 129.42438 344.02814Q129.90875 343.8719 130.53375 343.8719Q131.08063 343.8719 131.5025 343.98126Q131.94 344.075 132.3775 344.3875Q132.89313 344.7469 133.15875 345.29376Q133.42438 345.84064 133.42438 346.6219ZM132.23688 346.66876Q132.23688 346.1219 132.065 345.7625Q131.90875 345.40314 131.53375 345.1375Q131.26813 344.95 130.94 344.90314Q130.61188 344.84064 130.2525 344.84064Q129.7525 344.84064 129.33063 344.96564Q128.90875 345.075 128.45563 345.325Q128.44 345.45 128.42438 345.575Q128.42438 345.6844 128.42438 345.8719Q128.42438 346.79376 128.61188 347.34064Q128.815 347.8719 129.14313 348.1844Q129.40875 348.4344 129.72125 348.5594Q130.03375 348.66876 130.40875 348.66876Q131.2525 348.66876 131.73688 348.15314Q132.23688 347.6375 132.23688 346.66876ZM137.815 347.77814L136.15875 351.6219L135.29938 351.6219L136.315 347.77814L137.815 347.77814ZM145.28375 345.09064Q145.28375 347.4344 144.54938 348.54376Q143.815 349.6375 142.26813 349.6375Q140.69 349.6375 139.95563 348.52814Q139.23688 347.40314 139.23688 345.09064Q139.23688 342.7625 139.97125 341.65314Q140.70563 340.54376 142.26813 340.54376Q143.83063 340.54376 144.54938 341.6844Q145.28375 342.8094 145.28375 345.09064ZM143.73688 347.7469Q143.94 347.2625 144.01813 346.6219Q144.09625 345.98126 144.09625 345.09064Q144.09625 344.2 144.01813 343.54376Q143.94 342.8875 143.73688 342.41876Q143.53375 341.96564 143.17438 341.7469Q142.815 341.5125 142.26813 341.5125Q141.70563 341.5125 141.34625 341.7469Q140.98688 341.96564 140.78375 342.4344Q140.58063 342.8719 140.5025 343.575Q140.44 344.2625 140.44 345.09064Q140.44 346.0125 140.5025 346.6375Q140.565 347.2469 140.76813 347.73126Q140.97125 348.1844 141.315 348.4344Q141.67438 348.66876 142.26813 348.66876Q142.815 348.66876 143.17438 348.4344Q143.53375 348.2 143.73688 347.7469ZM153.28375 345.09064Q153.28375 347.4344 152.54938 348.54376Q151.815 349.6375 150.26813 349.6375Q148.69 349.6375 147.95563 348.52814Q147.23688 347.40314 147.23688 345.09064Q147.23688 342.7625 147.97125 341.65314Q148.70563 340.54376 150.26813 340.54376Q151.83063 340.54376 152.54938 341.6844Q153.28375 342.8094 153.28375 345.09064ZM151.73688 347.7469Q151.94 347.2625 152.01813 346.6219Q152.09625 345.98126 152.09625 345.09064Q152.09625 344.2 152.01813 343.54376Q151.94 342.8875 151.73688 342.41876Q151.53375 341.96564 151.17438 341.7469Q150.815 341.5125 150.26813 341.5125Q149.70563 341.5125 149.34625 341.7469Q148.98688 341.96564 148.78375 342.4344Q148.58063 342.8719 148.5025 343.575Q148.44 344.2625 148.44 345.09064Q148.44 346.0125 148.5025 346.6375Q148.565 347.2469 148.76813 347.73126Q148.97125 348.1844 149.315 348.4344Q149.67438 348.66876 150.26813 348.66876Q150.815 348.66876 151.17438 348.4344Q151.53375 348.2 151.73688 347.7469Z" fill-rule="nonzero"/><path fill="#233a44" d="M166.40813 345.2469Q166.68938 345.4969 166.87688 345.8875Q167.06438 346.2625 167.06438 346.8719Q167.06438 347.46564 166.84563 347.96564Q166.62688 348.46564 166.23625 348.825Q165.79875 349.23126 165.18938 349.4344Q164.59563 349.6375 163.8925 349.6375Q163.17375 349.6375 162.47063 349.45Q161.7675 349.27814 161.31438 349.075L161.31438 347.85626L161.3925 347.85626Q161.8925 348.1844 162.56438 348.40314Q163.23625 348.6219 163.87688 348.6219Q164.23625 348.6219 164.6425 348.4969Q165.06438 348.3719 165.33 348.1375Q165.59563 347.8719 165.72063 347.5594Q165.86125 347.2469 165.86125 346.77814Q165.86125 346.3094 165.705 346.0125Q165.56438 345.7 165.29875 345.5125Q165.03313 345.34064 164.65813 345.27814Q164.28313 345.2 163.84563 345.2L163.33 345.2L163.33 344.23126L163.73625 344.23126Q164.62688 344.23126 165.15813 343.85626Q165.68938 343.48126 165.68938 342.7625Q165.68938 342.45 165.54875 342.21564Q165.42375 341.98126 165.17375 341.825Q164.92375 341.66876 164.62688 341.6219Q164.34563 341.5594 163.98625 341.5594Q163.42375 341.5594 162.79875 341.7625Q162.17375 341.95 161.62688 342.325L161.56438 342.325L161.56438 341.09064Q161.97063 340.8875 162.65813 340.71564Q163.36125 340.54376 164.0175 340.54376Q164.65813 340.54376 165.1425 340.66876Q165.62688 340.77814 166.0175 341.02814Q166.43938 341.3094 166.65813 341.71564Q166.87688 342.10626 166.87688 342.65314Q166.87688 343.3719 166.36125 343.91876Q165.84563 344.45 165.15813 344.59064L165.15813 344.6844Q165.43938 344.73126 165.79875 344.8875Q166.15813 345.02814 166.40813 345.2469ZM174.40813 345.2469Q174.68938 345.4969 174.87688 345.8875Q175.06438 346.2625 175.06438 346.8719Q175.06438 347.46564 174.84563 347.96564Q174.62688 348.46564 174.23625 348.825Q173.79875 349.23126 173.18938 349.4344Q172.59563 349.6375 171.8925 349.6375Q171.17375 349.6375 170.47063 349.45Q169.7675 349.27814 169.31438 349.075L169.31438 347.85626L169.3925 347.85626Q169.8925 348.1844 170.56438 348.40314Q171.23625 348.6219 171.87688 348.6219Q172.23625 348.6219 172.6425 348.4969Q173.06438 348.3719 173.33 348.1375Q173.59563 347.8719 173.72063 347.5594Q173.86125 347.2469 173.86125 346.77814Q173.86125 346.3094 173.705 346.0125Q173.56438 345.7 173.29875 345.5125Q173.03313 345.34064 172.65813 345.27814Q172.28313 345.2 171.84563 345.2L171.33 345.2L171.33 344.23126L171.73625 344.23126Q172.62688 344.23126 173.15813 343.85626Q173.68938 343.48126 173.68938 342.7625Q173.68938 342.45 173.54875 342.21564Q173.42375 341.98126 173.17375 341.825Q172.92375 341.66876 172.62688 341.6219Q172.34563 341.5594 171.98625 341.5594Q171.42375 341.5594 170.79875 341.7625Q170.17375 341.95 169.62688 342.325L169.56438 342.325L169.56438 341.09064Q169.97063 340.8875 170.65813 340.71564Q171.36125 340.54376 172.0175 340.54376Q172.65813 340.54376 173.1425 340.66876Q173.62688 340.77814 174.0175 341.02814Q174.43938 341.3094 174.65813 341.71564Q174.87688 342.10626 174.87688 342.65314Q174.87688 343.3719 174.36125 343.91876Q173.84563 344.45 173.15813 344.59064L173.15813 344.6844Q173.43938 344.73126 173.79875 344.8875Q174.15813 345.02814 174.40813 345.2469ZM183.205 342.02814L179.25188 349.45L178.00188 349.45L182.205 341.7469L177.23625 341.7469L177.23625 340.73126L183.205 340.73126L183.205 342.02814ZM187.705 347.77814L186.04875 351.6219L185.18938 351.6219L186.205 347.77814L187.705 347.77814ZM195.17375 345.09064Q195.17375 347.4344 194.43938 348.54376Q193.705 349.6375 192.15813 349.6375Q190.58 349.6375 189.84563 348.52814Q189.12688 347.40314 189.12688 345.09064Q189.12688 342.7625 189.86125 341.65314Q190.59563 340.54376 192.15813 340.54376Q193.72063 340.54376 194.43938 341.6844Q195.17375 342.8094 195.17375 345.09064ZM193.62688 347.7469Q193.83 347.2625 193.90813 346.6219Q193.98625 345.98126 193.98625 345.09064Q193.98625 344.2 193.90813 343.54376Q193.83 342.8875 193.62688 342.41876Q193.42375 341.96564 193.06438 341.7469Q192.705 341.5125 192.15813 341.5125Q191.59563 341.5125 191.23625 341.7469Q190.87688 341.96564 190.67375 342.4344Q190.47063 342.8719 190.3925 343.575Q190.33 344.2625 190.33 345.09064Q190.33 346.0125 190.3925 346.6375Q190.455 347.2469 190.65813 347.73126Q190.86125 348.1844 191.205 348.4344Q191.56438 348.66876 192.15813 348.66876Q192.705 348.66876 193.06438 348.4344Q193.42375 348.2 193.62688 347.7469ZM203.17375 345.09064Q203.17375 347.4344 202.43938 348.54376Q201.705 349.6375 200.15813 349.6375Q198.58 349.6375 197.84563 348.52814Q197.12688 347.40314 197.12688 345.09064Q197.12688 342.7625 197.86125 341.65314Q198.59563 340.54376 200.15813 340.54376Q201.72063 340.54376 202.43938 341.6844Q203.17375 342.8094 203.17375 345.09064ZM201.62688 347.7469Q201.83 347.2625 201.90813 346.6219Q201.98625 345.98126 201.98625 345.09064Q201.98625 344.2 201.90813 343.54376Q201.83 342.8875 201.62688 342.41876Q201.42375 341.96564 201.06438 341.7469Q200.705 341.5125 200.15813 341.5125Q199.59563 341.5125 199.23625 341.7469Q198.87688 341.96564 198.67375 342.4344Q198.47063 342.8719 198.3925 343.575Q198.33 344.2625 198.33 345.09064Q198.33 346.0125 198.3925 346.6375Q198.455 347.2469 198.65813 347.73126Q198.86125 348.1844 199.205 348.4344Q199.56438 348.66876 200.15813 348.66876Q200.705 348.66876 201.06438 348.4344Q201.42375 348.2 201.62688 347.7469Z" fill-rule="nonzero"/><path fill="#233a44" d="M216.29813 345.2469Q216.57938 345.4969 216.76688 345.8875Q216.95438 346.2625 216.95438 346.8719Q216.95438 347.46564 216.73563 347.96564Q216.51688 348.46564 216.12625 348.825Q215.68875 349.23126 215.07938 349.4344Q214.48563 349.6375 213.7825 349.6375Q213.06375 349.6375 212.36063 349.45Q211.6575 349.27814 211.20438 349.075L211.20438 347.85626L211.2825 347.85626Q211.7825 348.1844 212.45438 348.40314Q213.12625 348.6219 213.76688 348.6219Q214.12625 348.6219 214.5325 348.4969Q214.95438 348.3719 215.22 348.1375Q215.48563 347.8719 215.61063 347.5594Q215.75125 347.2469 215.75125 346.77814Q215.75125 346.3094 215.595 346.0125Q215.45438 345.7 215.18875 345.5125Q214.92313 345.34064 214.54813 345.27814Q214.17313 345.2 213.73563 345.2L213.22 345.2L213.22 344.23126L213.62625 344.23126Q214.51688 344.23126 215.04813 343.85626Q215.57938 343.48126 215.57938 342.7625Q215.57938 342.45 215.43875 342.21564Q215.31375 341.98126 215.06375 341.825Q214.81375 341.66876 214.51688 341.6219Q214.23563 341.5594 213.87625 341.5594Q213.31375 341.5594 212.68875 341.7625Q212.06375 341.95 211.51688 342.325L211.45438 342.325L211.45438 341.09064Q211.86063 340.8875 212.54813 340.71564Q213.25125 340.54376 213.9075 340.54376Q214.54813 340.54376 215.0325 340.66876Q215.51688 340.77814 215.9075 341.02814Q216.32938 341.3094 216.54813 341.71564Q216.76688 342.10626 216.76688 342.65314Q216.76688 343.3719 216.25125 343.91876Q215.73563 344.45 215.04813 344.59064L215.04813 344.6844Q215.32938 344.73126 215.68875 344.8875Q216.04813 345.02814 216.29813 345.2469ZM224.29813 345.2469Q224.57938 345.4969 224.76688 345.8875Q224.95438 346.2625 224.95438 346.8719Q224.95438 347.46564 224.73563 347.96564Q224.51688 348.46564 224.12625 348.825Q223.68875 349.23126 223.07938 349.4344Q222.48563 349.6375 221.7825 349.6375Q221.06375 349.6375 220.36063 349.45Q219.6575 349.27814 219.20438 349.075L219.20438 347.85626L219.2825 347.85626Q219.7825 348.1844 220.45438 348.40314Q221.12625 348.6219 221.76688 348.6219Q222.12625 348.6219 222.5325 348.4969Q222.95438 348.3719 223.22 348.1375Q223.48563 347.8719 223.61063 347.5594Q223.75125 347.2469 223.75125 346.77814Q223.75125 346.3094 223.595 346.0125Q223.45438 345.7 223.18875 345.5125Q222.92313 345.34064 222.54813 345.27814Q222.17313 345.2 221.73563 345.2L221.22 345.2L221.22 344.23126L221.62625 344.23126Q222.51688 344.23126 223.04813 343.85626Q223.57938 343.48126 223.57938 342.7625Q223.57938 342.45 223.43875 342.21564Q223.31375 341.98126 223.06375 341.825Q222.81375 341.66876 222.51688 341.6219Q222.23563 341.5594 221.87625 341.5594Q221.31375 341.5594 220.68875 341.7625Q220.06375 341.95 219.51688 342.325L219.45438 342.325L219.45438 341.09064Q219.86063 340.8875 220.54813 340.71564Q221.25125 340.54376 221.9075 340.54376Q222.54813 340.54376 223.0325 340.66876Q223.51688 340.77814 223.9075 341.02814Q224.32938 341.3094 224.54813 341.71564Q224.76688 342.10626 224.76688 342.65314Q224.76688 343.3719 224.25125 343.91876Q223.73563 344.45 223.04813 344.59064L223.04813 344.6844Q223.32938 344.73126 223.68875 344.8875Q224.04813 345.02814 224.29813 345.2469ZM233.14188 347.0125Q233.14188 348.15314 232.25125 348.90314Q231.37625 349.65314 230.0325 349.65314Q228.61063 349.65314 227.76688 348.91876Q226.93875 348.1844 226.93875 347.04376Q226.93875 346.3094 227.36063 345.73126Q227.7825 345.1375 228.54813 344.79376L228.54813 344.7625Q227.845 344.3875 227.50125 343.95Q227.17313 343.4969 227.17313 342.825Q227.17313 341.84064 227.97 341.1844Q228.7825 340.52814 230.0325 340.52814Q231.345 340.52814 232.12625 341.15314Q232.9075 341.77814 232.9075 342.7469Q232.9075 343.34064 232.5325 343.91876Q232.1575 344.48126 231.45438 344.8094L231.45438 344.84064Q232.26688 345.1844 232.70438 345.7Q233.14188 346.21564 233.14188 347.0125ZM231.75125 342.7625Q231.75125 342.1375 231.26688 341.7625Q230.7825 341.3875 230.0325 341.3875Q229.29813 341.3875 228.81375 341.7469Q228.345 342.09064 228.345 342.6844Q228.345 343.10626 228.57938 343.41876Q228.82938 343.73126 229.29813 343.96564Q229.51688 344.075 229.92313 344.2469Q230.32938 344.40314 230.72 344.52814Q231.29813 344.1375 231.51688 343.73126Q231.75125 343.3094 231.75125 342.7625ZM231.92313 347.1219Q231.92313 346.59064 231.68875 346.2625Q231.45438 345.9344 230.76688 345.60626Q230.48563 345.48126 230.1575 345.3719Q229.82938 345.2625 229.2825 345.0594Q228.75125 345.34064 228.43875 345.84064Q228.12625 346.325 228.12625 346.95Q228.12625 347.7469 228.6575 348.2625Q229.20438 348.77814 230.04813 348.77814Q230.9075 348.77814 231.4075 348.34064Q231.92313 347.90314 231.92313 347.1219ZM237.595 347.77814L235.93875 351.6219L235.07938 351.6219L236.095 347.77814L237.595 347.77814ZM245.06375 345.09064Q245.06375 347.4344 244.32938 348.54376Q243.595 349.6375 242.04813 349.6375Q240.47 349.6375 239.73563 348.52814Q239.01688 347.40314 239.01688 345.09064Q239.01688 342.7625 239.75125 341.65314Q240.48563 340.54376 242.04813 340.54376Q243.61063 340.54376 244.32938 341.6844Q245.06375 342.8094 245.06375 345.09064ZM243.51688 347.7469Q243.72 347.2625 243.79813 346.6219Q243.87625 345.98126 243.87625 345.09064Q243.87625 344.2 243.79813 343.54376Q243.72 342.8875 243.51688 342.41876Q243.31375 341.96564 242.95438 341.7469Q242.595 341.5125 242.04813 341.5125Q241.48563 341.5125 241.12625 341.7469Q240.76688 341.96564 240.56375 342.4344Q240.36063 342.8719 240.2825 343.575Q240.22 344.2625 240.22 345.09064Q240.22 346.0125 240.2825 346.6375Q240.345 347.2469 240.54813 347.73126Q240.75125 348.1844 241.095 348.4344Q241.45438 348.66876 242.04813 348.66876Q242.595 348.66876 242.95438 348.4344Q243.31375 348.2 243.51688 347.7469ZM253.06375 345.09064Q253.06375 347.4344 252.32938 348.54376Q251.595 349.6375 250.04813 349.6375Q248.47 349.6375 247.73563 348.52814Q247.01688 347.40314 247.01688 345.09064Q247.01688 342.7625 247.75125 341.65314Q248.48563 340.54376 250.04813 340.54376Q251.61063 340.54376 252.32938 341.6844Q253.06375 342.8094 253.06375 345.09064ZM251.51688 347.7469Q251.72 347.2625 251.79813 346.6219Q251.87625 345.98126 251.87625 345.09064Q251.87625 344.2 251.79813 343.54376Q251.72 342.8875 251.51688 342.41876Q251.31375 341.96564 250.95438 341.7469Q250.595 341.5125 250.04813 341.5125Q249.48563 341.5125 249.12625 341.7469Q248.76688 341.96564 248.56375 342.4344Q248.36063 342.8719 248.2825 343.575Q248.22 344.2625 248.22 345.09064Q248.22 346.0125 248.2825 346.6375Q248.345 347.2469 248.54813 347.73126Q248.75125 348.1844 249.095 348.4344Q249.45438 348.66876 250.04813 348.66876Q250.595 348.66876 250.95438 348.4344Q251.31375 348.2 251.51688 347.7469Z" fill-rule="nonzero"/><path fill="#233a44" d="M266.1881 345.2469Q266.46936 345.4969 266.65686 345.8875Q266.84436 346.2625 266.84436 346.8719Q266.84436 347.46564 266.6256 347.96564Q266.40686 348.46564 266.01624 348.825Q265.57874 349.23126 264.96936 349.4344Q264.3756 349.6375 263.6725 349.6375Q262.95374 349.6375 262.2506 349.45Q261.5475 349.27814 261.09436 349.075L261.09436 347.85626L261.1725 347.85626Q261.6725 348.1844 262.34436 348.40314Q263.01624 348.6219 263.65686 348.6219Q264.01624 348.6219 264.4225 348.4969Q264.84436 348.3719 265.11 348.1375Q265.3756 347.8719 265.5006 347.5594Q265.64124 347.2469 265.64124 346.77814Q265.64124 346.3094 265.485 346.0125Q265.34436 345.7 265.07874 345.5125Q264.8131 345.34064 264.4381 345.27814Q264.0631 345.2 263.6256 345.2L263.11 345.2L263.11 344.23126L263.51624 344.23126Q264.40686 344.23126 264.9381 343.85626Q265.46936 343.48126 265.46936 342.7625Q265.46936 342.45 265.32874 342.21564Q265.20374 341.98126 264.95374 341.825Q264.70374 341.66876 264.40686 341.6219Q264.1256 341.5594 263.76624 341.5594Q263.20374 341.5594 262.57874 341.7625Q261.95374 341.95 261.40686 342.325L261.34436 342.325L261.34436 341.09064Q261.7506 340.8875 262.4381 340.71564Q263.14124 340.54376 263.7975 340.54376Q264.4381 340.54376 264.9225 340.66876Q265.40686 340.77814 265.7975 341.02814Q266.21936 341.3094 266.4381 341.71564Q266.65686 342.10626 266.65686 342.65314Q266.65686 343.3719 266.14124 343.91876Q265.6256 344.45 264.9381 344.59064L264.9381 344.6844Q265.21936 344.73126 265.57874 344.8875Q265.9381 345.02814 266.1881 345.2469ZM274.1881 345.2469Q274.46936 345.4969 274.65686 345.8875Q274.84436 346.2625 274.84436 346.8719Q274.84436 347.46564 274.6256 347.96564Q274.40686 348.46564 274.01624 348.825Q273.57874 349.23126 272.96936 349.4344Q272.3756 349.6375 271.6725 349.6375Q270.95374 349.6375 270.2506 349.45Q269.5475 349.27814 269.09436 349.075L269.09436 347.85626L269.1725 347.85626Q269.6725 348.1844 270.34436 348.40314Q271.01624 348.6219 271.65686 348.6219Q272.01624 348.6219 272.4225 348.4969Q272.84436 348.3719 273.11 348.1375Q273.3756 347.8719 273.5006 347.5594Q273.64124 347.2469 273.64124 346.77814Q273.64124 346.3094 273.485 346.0125Q273.34436 345.7 273.07874 345.5125Q272.8131 345.34064 272.4381 345.27814Q272.0631 345.2 271.6256 345.2L271.11 345.2L271.11 344.23126L271.51624 344.23126Q272.40686 344.23126 272.9381 343.85626Q273.46936 343.48126 273.46936 342.7625Q273.46936 342.45 273.32874 342.21564Q273.20374 341.98126 272.95374 341.825Q272.70374 341.66876 272.40686 341.6219Q272.1256 341.5594 271.76624 341.5594Q271.20374 341.5594 270.57874 341.7625Q269.95374 341.95 269.40686 342.325L269.34436 342.325L269.34436 341.09064Q269.7506 340.8875 270.4381 340.71564Q271.14124 340.54376 271.7975 340.54376Q272.4381 340.54376 272.9225 340.66876Q273.40686 340.77814 273.7975 341.02814Q274.21936 341.3094 274.4381 341.71564Q274.65686 342.10626 274.65686 342.65314Q274.65686 343.3719 274.14124 343.91876Q273.6256 344.45 272.9381 344.59064L272.9381 344.6844Q273.21936 344.73126 273.57874 344.8875Q273.9381 345.02814 274.1881 345.2469ZM282.95374 344.5594Q282.95374 345.7 282.6881 346.6375Q282.4225 347.575 281.90686 348.23126Q281.36 348.8875 280.5631 349.2625Q279.76624 349.6219 278.6725 349.6219Q278.3756 349.6219 278.09436 349.59064Q277.82874 349.5594 277.6256 349.48126L277.6256 348.3719L277.6881 348.3719Q277.84436 348.45 278.15686 348.52814Q278.46936 348.60626 278.86 348.60626Q280.14124 348.60626 280.8756 347.84064Q281.6256 347.0594 281.735 345.7Q281.1881 346.02814 280.70374 346.16876Q280.235 346.3094 279.65686 346.3094Q279.1256 346.3094 278.6881 346.2Q278.2506 346.09064 277.8131 345.79376Q277.2975 345.4344 277.03186 344.8875Q276.76624 344.325 276.76624 343.5594Q276.76624 342.23126 277.64124 341.3875Q278.53186 340.54376 279.7975 340.54376Q280.4225 340.54376 280.95374 340.7469Q281.5006 340.9344 281.90686 341.34064Q282.40686 341.825 282.6725 342.59064Q282.95374 343.35626 282.95374 344.5594ZM281.76624 344.3094Q281.76624 343.40314 281.57874 342.85626Q281.39124 342.29376 281.0631 341.9969Q280.78186 341.73126 280.46936 341.6219Q280.15686 341.4969 279.78186 341.4969Q278.9381 341.4969 278.45374 342.02814Q277.96936 342.5594 277.96936 343.5125Q277.96936 344.075 278.1256 344.4344Q278.28186 344.77814 278.65686 345.04376Q278.9225 345.21564 279.235 345.27814Q279.5475 345.34064 279.9381 345.34064Q280.39124 345.34064 280.86 345.21564Q281.32874 345.09064 281.735 344.85626Q281.7506 344.73126 281.7506 344.6219Q281.76624 344.4969 281.76624 344.3094ZM287.485 347.77814L285.82874 351.6219L284.96936 351.6219L285.985 347.77814L287.485 347.77814ZM294.95374 345.09064Q294.95374 347.4344 294.21936 348.54376Q293.485 349.6375 291.9381 349.6375Q290.36 349.6375 289.6256 348.52814Q288.90686 347.40314 288.90686 345.09064Q288.90686 342.7625 289.64124 341.65314Q290.3756 340.54376 291.9381 340.54376Q293.5006 340.54376 294.21936 341.6844Q294.95374 342.8094 294.95374 345.09064ZM293.40686 347.7469Q293.61 347.2625 293.6881 346.6219Q293.76624 345.98126 293.76624 345.09064Q293.76624 344.2 293.6881 343.54376Q293.61 342.8875 293.40686 342.41876Q293.20374 341.96564 292.84436 341.7469Q292.485 341.5125 291.9381 341.5125Q291.3756 341.5125 291.01624 341.7469Q290.65686 341.96564 290.45374 342.4344Q290.2506 342.8719 290.1725 343.575Q290.11 344.2625 290.11 345.09064Q290.11 346.0125 290.1725 346.6375Q290.235 347.2469 290.4381 347.73126Q290.64124 348.1844 290.985 348.4344Q291.34436 348.66876 291.9381 348.66876Q292.485 348.66876 292.84436 348.4344Q293.20374 348.2 293.40686 347.7469ZM302.95374 345.09064Q302.95374 347.4344 302.21936 348.54376Q301.485 349.6375 299.9381 349.6375Q298.36 349.6375 297.6256 348.52814Q296.90686 347.40314 296.90686 345.09064Q296.90686 342.7625 297.64124 341.65314Q298.3756 340.54376 299.9381 340.54376Q301.5006 340.54376 302.21936 341.6844Q302.95374 342.8094 302.95374 345.09064ZM301.40686 347.7469Q301.61 347.2625 301.6881 346.6219Q301.76624 345.98126 301.76624 345.09064Q301.76624 344.2 301.6881 343.54376Q301.61 342.8875 301.40686 342.41876Q301.20374 341.96564 300.84436 341.7469Q300.485 341.5125 299.9381 341.5125Q299.3756 341.5125 299.01624 341.7469Q298.65686 341.96564 298.45374 342.4344Q298.2506 342.8719 298.1725 343.575Q298.11 344.2625 298.11 345.09064Q298.11 346.0125 298.1725 346.6375Q298.235 347.2469 298.4381 347.73126Q298.64124 348.1844 298.985 348.4344Q299.34436 348.66876 299.9381 348.66876Q300.485 348.66876 300.84436 348.4344Q301.20374 348.2 301.40686 347.7469Z" fill-rule="nonzero"/><path fill="#233a44" d="M316.07812 345.2469Q316.35938 345.4969 316.54688 345.8875Q316.73438 346.2625 316.73438 346.8719Q316.73438 347.46564 316.51562 347.96564Q316.29688 348.46564 315.90625 348.825Q315.46875 349.23126 314.85938 349.4344Q314.26562 349.6375 313.5625 349.6375Q312.84375 349.6375 312.14062 349.45Q311.4375 349.27814 310.98438 349.075L310.98438 347.85626L311.0625 347.85626Q311.5625 348.1844 312.23438 348.40314Q312.90625 348.6219 313.54688 348.6219Q313.90625 348.6219 314.3125 348.4969Q314.73438 348.3719 315.0 348.1375Q315.26562 347.8719 315.39062 347.5594Q315.53125 347.2469 315.53125 346.77814Q315.53125 346.3094 315.375 346.0125Q315.23438 345.7 314.96875 345.5125Q314.70312 345.34064 314.32812 345.27814Q313.95312 345.2 313.51562 345.2L313.0 345.2L313.0 344.23126L313.40625 344.23126Q314.29688 344.23126 314.82812 343.85626Q315.35938 343.48126 315.35938 342.7625Q315.35938 342.45 315.21875 342.21564Q315.09375 341.98126 314.84375 341.825Q314.59375 341.66876 314.29688 341.6219Q314.01562 341.5594 313.65625 341.5594Q313.09375 341.5594 312.46875 341.7625Q311.84375 341.95 311.29688 342.325L311.23438 342.325L311.23438 341.09064Q311.64062 340.8875 312.32812 340.71564Q313.03125 340.54376 313.6875 340.54376Q314.32812 340.54376 314.8125 340.66876Q315.29688 340.77814 315.6875 341.02814Q316.10938 341.3094 316.32812 341.71564Q316.54688 342.10626 316.54688 342.65314Q316.54688 343.3719 316.03125 343.91876Q315.51562 344.45 314.82812 344.59064L314.82812 344.6844Q315.10938 344.73126 315.46875 344.8875Q315.82812 345.02814 316.07812 345.2469ZM325.04688 346.9969L323.75 346.9969L323.75 349.45L322.625 349.45L322.625 346.9969L318.45312 346.9969L318.45312 345.65314L322.67188 340.73126L323.75 340.73126L323.75 346.0594L325.04688 346.0594L325.04688 346.9969ZM322.625 346.0594L322.625 342.1219L319.25 346.0594L322.625 346.0594ZM332.84375 345.09064Q332.84375 347.4344 332.10938 348.54376Q331.375 349.6375 329.82812 349.6375Q328.25 349.6375 327.51562 348.52814Q326.79688 347.40314 326.79688 345.09064Q326.79688 342.7625 327.53125 341.65314Q328.26562 340.54376 329.82812 340.54376Q331.39062 340.54376 332.10938 341.6844Q332.84375 342.8094 332.84375 345.09064ZM331.29688 347.7469Q331.5 347.2625 331.57812 346.6219Q331.65625 345.98126 331.65625 345.09064Q331.65625 344.2 331.57812 343.54376Q331.5 342.8875 331.29688 342.41876Q331.09375 341.96564 330.73438 341.7469Q330.375 341.5125 329.82812 341.5125Q329.26562 341.5125 328.90625 341.7469Q328.54688 341.96564 328.34375 342.4344Q328.14062 342.8719 328.0625 343.575Q328.0 344.2625 328.0 345.09064Q328.0 346.0125 328.0625 346.6375Q328.125 347.2469 328.32812 347.73126Q328.53125 348.1844 328.875 348.4344Q329.23438 348.66876 329.82812 348.66876Q330.375 348.66876 330.73438 348.4344Q331.09375 348.2 331.29688 347.7469ZM337.375 347.77814L335.71875 351.6219L334.85938 351.6219L335.875 347.77814L337.375 347.77814ZM344.84375 345.09064Q344.84375 347.4344 344.10938 348.54376Q343.375 349.6375 341.82812 349.6375Q340.25 349.6375 339.51562 348.52814Q338.79688 347.40314 338.79688 345.09064Q338.79688 342.7625 339.53125 341.65314Q340.26562 340.54376 341.82812 340.54376Q343.39062 340.54376 344.10938 341.6844Q344.84375 342.8094 344.84375 345.09064ZM343.29688 347.7469Q343.5 347.2625 343.57812 346.6219Q343.65625 345.98126 343.65625 345.09064Q343.65625 344.2 343.57812 343.54376Q343.5 342.8875 343.29688 342.41876Q343.09375 341.96564 342.73438 341.7469Q342.375 341.5125 341.82812 341.5125Q341.26562 341.5125 340.90625 341.7469Q340.54688 341.96564 340.34375 342.4344Q340.14062 342.8719 340.0625 343.575Q340.0 344.2625 340.0 345.09064Q340.0 346.0125 340.0625 346.6375Q340.125 347.2469 340.32812 347.73126Q340.53125 348.1844 340.875 348.4344Q341.23438 348.66876 341.82812 348.66876Q342.375 348.66876 342.73438 348.4344Q343.09375 348.2 343.29688 347.7469ZM352.84375 345.09064Q352.84375 347.4344 352.10938 348.54376Q351.375 349.6375 349.82812 349.6375Q348.25 349.6375 347.51562 348.52814Q346.79688 347.40314 346.79688 345.09064Q346.79688 342.7625 347.53125 341.65314Q348.26562 340.54376 349.82812 340.54376Q351.39062 340.54376 352.10938 341.6844Q352.84375 342.8094 352.84375 345.09064ZM351.29688 347.7469Q351.5 347.2625 351.57812 346.6219Q351.65625 345.98126 351.65625 345.09064Q351.65625 344.2 351.57812 343.54376Q351.5 342.8875 351.29688 342.41876Q351.09375 341.96564 350.73438 341.7469Q350.375 341.5125 349.82812 341.5125Q349.26562 341.5125 348.90625 341.7469Q348.54688 341.96564 348.34375 342.4344Q348.14062 342.8719 348.0625 343.575Q348.0 344.2625 348.0 345.09064Q348.0 346.0125 348.0625 346.6375Q348.125 347.2469 348.32812 347.73126Q348.53125 348.1844 348.875 348.4344Q349.23438 348.66876 349.82812 348.66876Q350.375 348.66876 350.73438 348.4344Q351.09375 348.2 351.29688 347.7469Z" fill-rule="nonzero"/><path fill="#233a44" d="M365.96814 345.2469Q366.2494 345.4969 366.4369 345.8875Q366.6244 346.2625 366.6244 346.8719Q366.6244 347.46564 366.40564 347.96564Q366.1869 348.46564 365.79626 348.825Q365.35876 349.23126 364.7494 349.4344Q364.15564 349.6375 363.4525 349.6375Q362.73376 349.6375 362.03064 349.45Q361.3275 349.27814 360.8744 349.075L360.8744 347.85626L360.9525 347.85626Q361.4525 348.1844 362.1244 348.40314Q362.79626 348.6219 363.4369 348.6219Q363.79626 348.6219 364.2025 348.4969Q364.6244 348.3719 364.89 348.1375Q365.15564 347.8719 365.28064 347.5594Q365.42126 347.2469 365.42126 346.77814Q365.42126 346.3094 365.265 346.0125Q365.1244 345.7 364.85876 345.5125Q364.59314 345.34064 364.21814 345.27814Q363.84314 345.2 363.40564 345.2L362.89 345.2L362.89 344.23126L363.29626 344.23126Q364.1869 344.23126 364.71814 343.85626Q365.2494 343.48126 365.2494 342.7625Q365.2494 342.45 365.10876 342.21564Q364.98376 341.98126 364.73376 341.825Q364.48376 341.66876 364.1869 341.6219Q363.90564 341.5594 363.54626 341.5594Q362.98376 341.5594 362.35876 341.7625Q361.73376 341.95 361.1869 342.325L361.1244 342.325L361.1244 341.09064Q361.53064 340.8875 362.21814 340.71564Q362.92126 340.54376 363.5775 340.54376Q364.21814 340.54376 364.7025 340.66876Q365.1869 340.77814 365.5775 341.02814Q365.9994 341.3094 366.21814 341.71564Q366.4369 342.10626 366.4369 342.65314Q366.4369 343.3719 365.92126 343.91876Q365.40564 344.45 364.71814 344.59064L364.71814 344.6844Q364.9994 344.73126 365.35876 344.8875Q365.71814 345.02814 365.96814 345.2469ZM374.9369 346.9969L373.64 346.9969L373.64 349.45L372.515 349.45L372.515 346.9969L368.34314 346.9969L368.34314 345.65314L372.5619 340.73126L373.64 340.73126L373.64 346.0594L374.9369 346.0594L374.9369 346.9969ZM372.515 346.0594L372.515 342.1219L369.14 346.0594L372.515 346.0594ZM382.2494 349.45L377.515 349.45L377.515 348.5594L379.34314 348.5594L379.34314 342.71564L377.515 342.71564L377.515 341.91876Q377.89 341.91876 378.3119 341.85626Q378.73376 341.79376 378.9525 341.66876Q379.21814 341.52814 379.3744 341.3094Q379.53064 341.075 379.54626 340.7L380.46814 340.7L380.46814 348.5594L382.2494 348.5594L382.2494 349.45ZM387.265 347.77814L385.60876 351.6219L384.7494 351.6219L385.765 347.77814L387.265 347.77814ZM394.73376 345.09064Q394.73376 347.4344 393.9994 348.54376Q393.265 349.6375 391.71814 349.6375Q390.14 349.6375 389.40564 348.52814Q388.6869 347.40314 388.6869 345.09064Q388.6869 342.7625 389.42126 341.65314Q390.15564 340.54376 391.71814 340.54376Q393.28064 340.54376 393.9994 341.6844Q394.73376 342.8094 394.73376 345.09064ZM393.1869 347.7469Q393.39 347.2625 393.46814 346.6219Q393.54626 345.98126 393.54626 345.09064Q393.54626 344.2 393.46814 343.54376Q393.39 342.8875 393.1869 342.41876Q392.98376 341.96564 392.6244 341.7469Q392.265 341.5125 391.71814 341.5125Q391.15564 341.5125 390.79626 341.7469Q390.4369 341.96564 390.23376 342.4344Q390.03064 342.8719 389.9525 343.575Q389.89 344.2625 389.89 345.09064Q389.89 346.0125 389.9525 346.6375Q390.015 347.2469 390.21814 347.73126Q390.42126 348.1844 390.765 348.4344Q391.1244 348.66876 391.71814 348.66876Q392.265 348.66876 392.6244 348.4344Q392.98376 348.2 393.1869 347.7469ZM402.73376 345.09064Q402.73376 347.4344 401.9994 348.54376Q401.265 349.6375 399.71814 349.6375Q398.14 349.6375 397.40564 348.52814Q396.6869 347.40314 396.6869 345.09064Q396.6869 342.7625 397.42126 341.65314Q398.15564 340.54376 399.71814 340.54376Q401.28064 340.54376 401.9994 341.6844Q402.73376 342.8094 402.73376 345.09064ZM401.1869 347.7469Q401.39 347.2625 401.46814 346.6219Q401.54626 345.98126 401.54626 345.09064Q401.54626 344.2 401.46814 343.54376Q401.39 342.8875 401.1869 342.41876Q400.98376 341.96564 400.6244 341.7469Q400.265 341.5125 399.71814 341.5125Q399.15564 341.5125 398.79626 341.7469Q398.4369 341.96564 398.23376 342.4344Q398.03064 342.8719 397.9525 343.575Q397.89 344.2625 397.89 345.09064Q397.89 346.0125 397.9525 346.6375Q398.015 347.2469 398.21814 347.73126Q398.42126 348.1844 398.765 348.4344Q399.1244 348.66876 399.71814 348.66876Q400.265 348.66876 400.6244 348.4344Q400.98376 348.2 401.1869 347.7469Z" fill-rule="nonzero"/><path fill="#233a44" d="M415.85812 345.2469Q416.13937 345.4969 416.32687 345.8875Q416.51437 346.2625 416.51437 346.8719Q416.51437 347.46564 416.29562 347.96564Q416.07687 348.46564 415.68625 348.825Q415.24875 349.23126 414.63937 349.4344Q414.04562 349.6375 413.3425 349.6375Q412.62375 349.6375 411.92062 349.45Q411.2175 349.27814 410.76437 349.075L410.76437 347.85626L410.8425 347.85626Q411.3425 348.1844 412.01437 348.40314Q412.68625 348.6219 413.32687 348.6219Q413.68625 348.6219 414.0925 348.4969Q414.51437 348.3719 414.78 348.1375Q415.04562 347.8719 415.17062 347.5594Q415.31125 347.2469 415.31125 346.77814Q415.31125 346.3094 415.155 346.0125Q415.01437 345.7 414.74875 345.5125Q414.48312 345.34064 414.10812 345.27814Q413.73312 345.2 413.29562 345.2L412.78 345.2L412.78 344.23126L413.18625 344.23126Q414.07687 344.23126 414.60812 343.85626Q415.13937 343.48126 415.13937 342.7625Q415.13937 342.45 414.99875 342.21564Q414.87375 341.98126 414.62375 341.825Q414.37375 341.66876 414.07687 341.6219Q413.79562 341.5594 413.43625 341.5594Q412.87375 341.5594 412.24875 341.7625Q411.62375 341.95 411.07687 342.325L411.01437 342.325L411.01437 341.09064Q411.42062 340.8875 412.10812 340.71564Q412.81125 340.54376 413.4675 340.54376Q414.10812 340.54376 414.5925 340.66876Q415.07687 340.77814 415.4675 341.02814Q415.88937 341.3094 416.10812 341.71564Q416.32687 342.10626 416.32687 342.65314Q416.32687 343.3719 415.81125 343.91876Q415.29562 344.45 414.60812 344.59064L414.60812 344.6844Q414.88937 344.73126 415.24875 344.8875Q415.60812 345.02814 415.85812 345.2469ZM424.82687 346.9969L423.53 346.9969L423.53 349.45L422.405 349.45L422.405 346.9969L418.23312 346.9969L418.23312 345.65314L422.45187 340.73126L423.53 340.73126L423.53 346.0594L424.82687 346.0594L424.82687 346.9969ZM422.405 346.0594L422.405 342.1219L419.03 346.0594L422.405 346.0594ZM432.62375 349.45L426.7175 349.45L426.7175 348.23126Q427.3425 347.7 427.95187 347.16876Q428.57687 346.6375 429.10812 346.1219Q430.23312 345.02814 430.63937 344.3875Q431.06125 343.7469 431.06125 342.9969Q431.06125 342.325 430.60812 341.95Q430.17062 341.5594 429.37375 341.5594Q428.82687 341.5594 428.20187 341.7469Q427.5925 341.9344 426.99875 342.325L426.93625 342.325L426.93625 341.09064Q427.35812 340.8875 428.04562 340.71564Q428.74875 340.54376 429.38937 340.54376Q430.73312 340.54376 431.49875 341.2Q432.26437 341.84064 432.26437 342.95Q432.26437 343.45 432.13937 343.8875Q432.01437 344.3094 431.76437 344.6844Q431.53 345.0594 431.2175 345.41876Q430.92062 345.7625 430.48312 346.1844Q429.85812 346.79376 429.18625 347.3719Q428.51437 347.95 427.93625 348.45L432.62375 348.45L432.62375 349.45ZM437.155 347.77814L435.49875 351.6219L434.63937 351.6219L435.655 347.77814L437.155 347.77814ZM444.62375 345.09064Q444.62375 347.4344 443.88937 348.54376Q443.155 349.6375 441.60812 349.6375Q440.03 349.6375 439.29562 348.52814Q438.57687 347.40314 438.57687 345.09064Q438.57687 342.7625 439.31125 341.65314Q440.04562 340.54376 441.60812 340.54376Q443.17062 340.54376 443.88937 341.6844Q444.62375 342.8094 444.62375 345.09064ZM443.07687 347.7469Q443.28 347.2625 443.35812 346.6219Q443.43625 345.98126 443.43625 345.09064Q443.43625 344.2 443.35812 343.54376Q443.28 342.8875 443.07687 342.41876Q442.87375 341.96564 442.51437 341.7469Q442.155 341.5125 441.60812 341.5125Q441.04562 341.5125 440.68625 341.7469Q440.32687 341.96564 440.12375 342.4344Q439.92062 342.8719 439.8425 343.575Q439.78 344.2625 439.78 345.09064Q439.78 346.0125 439.8425 346.6375Q439.905 347.2469 440.10812 347.73126Q440.31125 348.1844 440.655 348.4344Q441.01437 348.66876 441.60812 348.66876Q442.155 348.66876 442.51437 348.4344Q442.87375 348.2 443.07687 347.7469ZM452.62375 345.09064Q452.62375 347.4344 451.88937 348.54376Q451.155 349.6375 449.60812 349.6375Q448.03 349.6375 447.29562 348.52814Q446.57687 347.40314 446.57687 345.09064Q446.57687 342.7625 447.31125 341.65314Q448.04562 340.54376 449.60812 340.54376Q451.17062 340.54376 451.88937 341.6844Q452.62375 342.8094 452.62375 345.09064ZM451.07687 347.7469Q451.28 347.2625 451.35812 346.6219Q451.43625 345.98126 451.43625 345.09064Q451.43625 344.2 451.35812 343.54376Q451.28 342.8875 451.07687 342.41876Q450.87375 341.96564 450.51437 341.7469Q450.155 341.5125 449.60812 341.5125Q449.04562 341.5125 448.68625 341.7469Q448.32687 341.96564 448.12375 342.4344Q447.92062 342.8719 447.8425 343.575Q447.78 344.2625 447.78 345.09064Q447.78 346.0125 447.8425 346.6375Q447.905 347.2469 448.10812 347.73126Q448.31125 348.1844 448.655 348.4344Q449.01437 348.66876 449.60812 348.66876Q450.155 348.66876 450.51437 348.4344Q450.87375 348.2 451.07687 347.7469Z" fill-rule="nonzero"/><path fill="#233a44" d="M465.74814 345.2469Q466.0294 345.4969 466.2169 345.8875Q466.4044 346.2625 466.4044 346.8719Q466.4044 347.46564 466.18564 347.96564Q465.9669 348.46564 465.57626 348.825Q465.13876 349.23126 464.5294 349.4344Q463.93564 349.6375 463.2325 349.6375Q462.51376 349.6375 461.81064 349.45Q461.1075 349.27814 460.6544 349.075L460.6544 347.85626L460.7325 347.85626Q461.2325 348.1844 461.9044 348.40314Q462.57626 348.6219 463.2169 348.6219Q463.57626 348.6219 463.9825 348.4969Q464.4044 348.3719 464.67 348.1375Q464.93564 347.8719 465.06064 347.5594Q465.20126 347.2469 465.20126 346.77814Q465.20126 346.3094 465.045 346.0125Q464.9044 345.7 464.63876 345.5125Q464.37314 345.34064 463.99814 345.27814Q463.62314 345.2 463.18564 345.2L462.67 345.2L462.67 344.23126L463.07626 344.23126Q463.9669 344.23126 464.49814 343.85626Q465.0294 343.48126 465.0294 342.7625Q465.0294 342.45 464.88876 342.21564Q464.76376 341.98126 464.51376 341.825Q464.26376 341.66876 463.9669 341.6219Q463.68564 341.5594 463.32626 341.5594Q462.76376 341.5594 462.13876 341.7625Q461.51376 341.95 460.9669 342.325L460.9044 342.325L460.9044 341.09064Q461.31064 340.8875 461.99814 340.71564Q462.70126 340.54376 463.3575 340.54376Q463.99814 340.54376 464.4825 340.66876Q464.9669 340.77814 465.3575 341.02814Q465.7794 341.3094 465.99814 341.71564Q466.2169 342.10626 466.2169 342.65314Q466.2169 343.3719 465.70126 343.91876Q465.18564 344.45 464.49814 344.59064L464.49814 344.6844Q464.7794 344.73126 465.13876 344.8875Q465.49814 345.02814 465.74814 345.2469ZM474.7169 346.9969L473.42 346.9969L473.42 349.45L472.295 349.45L472.295 346.9969L468.12314 346.9969L468.12314 345.65314L472.3419 340.73126L473.42 340.73126L473.42 346.0594L474.7169 346.0594L474.7169 346.9969ZM472.295 346.0594L472.295 342.1219L468.92 346.0594L472.295 346.0594ZM481.74814 345.2469Q482.0294 345.4969 482.2169 345.8875Q482.4044 346.2625 482.4044 346.8719Q482.4044 347.46564 482.18564 347.96564Q481.9669 348.46564 481.57626 348.825Q481.13876 349.23126 480.5294 349.4344Q479.93564 349.6375 479.2325 349.6375Q478.51376 349.6375 477.81064 349.45Q477.1075 349.27814 476.6544 349.075L476.6544 347.85626L476.7325 347.85626Q477.2325 348.1844 477.9044 348.40314Q478.57626 348.6219 479.2169 348.6219Q479.57626 348.6219 479.9825 348.4969Q480.4044 348.3719 480.67 348.1375Q480.93564 347.8719 481.06064 347.5594Q481.20126 347.2469 481.20126 346.77814Q481.20126 346.3094 481.045 346.0125Q480.9044 345.7 480.63876 345.5125Q480.37314 345.34064 479.99814 345.27814Q479.62314 345.2 479.18564 345.2L478.67 345.2L478.67 344.23126L479.07626 344.23126Q479.9669 344.23126 480.49814 343.85626Q481.0294 343.48126 481.0294 342.7625Q481.0294 342.45 480.88876 342.21564Q480.76376 341.98126 480.51376 341.825Q480.26376 341.66876 479.9669 341.6219Q479.68564 341.5594 479.32626 341.5594Q478.76376 341.5594 478.13876 341.7625Q477.51376 341.95 476.9669 342.325L476.9044 342.325L476.9044 341.09064Q477.31064 340.8875 477.99814 340.71564Q478.70126 340.54376 479.3575 340.54376Q479.99814 340.54376 480.4825 340.66876Q480.9669 340.77814 481.3575 341.02814Q481.7794 341.3094 481.99814 341.71564Q482.2169 342.10626 482.2169 342.65314Q482.2169 343.3719 481.70126 343.91876Q481.18564 344.45 480.49814 344.59064L480.49814 344.6844Q480.7794 344.73126 481.13876 344.8875Q481.49814 345.02814 481.74814 345.2469ZM487.045 347.77814L485.38876 351.6219L484.5294 351.6219L485.545 347.77814L487.045 347.77814ZM494.51376 345.09064Q494.51376 347.4344 493.7794 348.54376Q493.045 349.6375 491.49814 349.6375Q489.92 349.6375 489.18564 348.52814Q488.4669 347.40314 488.4669 345.09064Q488.4669 342.7625 489.20126 341.65314Q489.93564 340.54376 491.49814 340.54376Q493.06064 340.54376 493.7794 341.6844Q494.51376 342.8094 494.51376 345.09064ZM492.9669 347.7469Q493.17 347.2625 493.24814 346.6219Q493.32626 345.98126 493.32626 345.09064Q493.32626 344.2 493.24814 343.54376Q493.17 342.8875 492.9669 342.41876Q492.76376 341.96564 492.4044 341.7469Q492.045 341.5125 491.49814 341.5125Q490.93564 341.5125 490.57626 341.7469Q490.2169 341.96564 490.01376 342.4344Q489.81064 342.8719 489.7325 343.575Q489.67 344.2625 489.67 345.09064Q489.67 346.0125 489.7325 346.6375Q489.795 347.2469 489.99814 347.73126Q490.20126 348.1844 490.545 348.4344Q490.9044 348.66876 491.49814 348.66876Q492.045 348.66876 492.4044 348.4344Q492.76376 348.2 492.9669 347.7469ZM502.51376 345.09064Q502.51376 347.4344 501.7794 348.54376Q501.045 349.6375 499.49814 349.6375Q497.92 349.6375 497.18564 348.52814Q496.4669 347.40314 496.4669 345.09064Q496.4669 342.7625 497.20126 341.65314Q497.93564 340.54376 499.49814 340.54376Q501.06064 340.54376 501.7794 341.6844Q502.51376 342.8094 502.51376 345.09064ZM500.9669 347.7469Q501.17 347.2625 501.24814 346.6219Q501.32626 345.98126 501.32626 345.09064Q501.32626 344.2 501.24814 343.54376Q501.17 342.8875 500.9669 342.41876Q500.76376 341.96564 500.4044 341.7469Q500.045 341.5125 499.49814 341.5125Q498.93564 341.5125 498.57626 341.7469Q498.2169 341.96564 498.01376 342.4344Q497.81064 342.8719 497.7325 343.575Q497.67 344.2625 497.67 345.09064Q497.67 346.0125 497.7325 346.6375Q497.795 347.2469 497.99814 347.73126Q498.20126 348.1844 498.545 348.4344Q498.9044 348.66876 499.49814 348.66876Q500.045 348.66876 500.4044 348.4344Q500.76376 348.2 500.9669 347.7469Z" fill-rule="nonzero"/><path fill="#233a44" d="M515.6381 345.2469Q515.9194 345.4969 516.1069 345.8875Q516.2944 346.2625 516.2944 346.8719Q516.2944 347.46564 516.0756 347.96564Q515.8569 348.46564 515.46625 348.825Q515.02875 349.23126 514.4194 349.4344Q513.8256 349.6375 513.1225 349.6375Q512.40375 349.6375 511.70062 349.45Q510.9975 349.27814 510.54437 349.075L510.54437 347.85626L510.6225 347.85626Q511.1225 348.1844 511.79437 348.40314Q512.46625 348.6219 513.1069 348.6219Q513.46625 348.6219 513.8725 348.4969Q514.2944 348.3719 514.56 348.1375Q514.8256 347.8719 514.9506 347.5594Q515.09125 347.2469 515.09125 346.77814Q515.09125 346.3094 514.935 346.0125Q514.7944 345.7 514.52875 345.5125Q514.2631 345.34064 513.8881 345.27814Q513.5131 345.2 513.0756 345.2L512.56 345.2L512.56 344.23126L512.96625 344.23126Q513.8569 344.23126 514.3881 343.85626Q514.9194 343.48126 514.9194 342.7625Q514.9194 342.45 514.77875 342.21564Q514.65375 341.98126 514.40375 341.825Q514.15375 341.66876 513.8569 341.6219Q513.5756 341.5594 513.21625 341.5594Q512.65375 341.5594 512.02875 341.7625Q511.40375 341.95 510.85687 342.325L510.79437 342.325L510.79437 341.09064Q511.20062 340.8875 511.88812 340.71564Q512.59125 340.54376 513.2475 340.54376Q513.8881 340.54376 514.3725 340.66876Q514.8569 340.77814 515.2475 341.02814Q515.6694 341.3094 515.8881 341.71564Q516.1069 342.10626 516.1069 342.65314Q516.1069 343.3719 515.59125 343.91876Q515.0756 344.45 514.3881 344.59064L514.3881 344.6844Q514.6694 344.73126 515.02875 344.8875Q515.3881 345.02814 515.6381 345.2469ZM524.6069 346.9969L523.31 346.9969L523.31 349.45L522.185 349.45L522.185 346.9969L518.0131 346.9969L518.0131 345.65314L522.2319 340.73126L523.31 340.73126L523.31 346.0594L524.6069 346.0594L524.6069 346.9969ZM522.185 346.0594L522.185 342.1219L518.81 346.0594L522.185 346.0594ZM532.6069 346.9969L531.31 346.9969L531.31 349.45L530.185 349.45L530.185 346.9969L526.0131 346.9969L526.0131 345.65314L530.2319 340.73126L531.31 340.73126L531.31 346.0594L532.6069 346.0594L532.6069 346.9969ZM530.185 346.0594L530.185 342.1219L526.81 346.0594L530.185 346.0594ZM536.935 347.77814L535.27875 351.6219L534.4194 351.6219L535.435 347.77814L536.935 347.77814ZM544.40375 345.09064Q544.40375 347.4344 543.6694 348.54376Q542.935 349.6375 541.3881 349.6375Q539.81 349.6375 539.0756 348.52814Q538.3569 347.40314 538.3569 345.09064Q538.3569 342.7625 539.09125 341.65314Q539.8256 340.54376 541.3881 340.54376Q542.9506 340.54376 543.6694 341.6844Q544.40375 342.8094 544.40375 345.09064ZM542.8569 347.7469Q543.06 347.2625 543.1381 346.6219Q543.21625 345.98126 543.21625 345.09064Q543.21625 344.2 543.1381 343.54376Q543.06 342.8875 542.8569 342.41876Q542.65375 341.96564 542.2944 341.7469Q541.935 341.5125 541.3881 341.5125Q540.8256 341.5125 540.46625 341.7469Q540.1069 341.96564 539.90375 342.4344Q539.7006 342.8719 539.6225 343.575Q539.56 344.2625 539.56 345.09064Q539.56 346.0125 539.6225 346.6375Q539.685 347.2469 539.8881 347.73126Q540.09125 348.1844 540.435 348.4344Q540.7944 348.66876 541.3881 348.66876Q541.935 348.66876 542.2944 348.4344Q542.65375 348.2 542.8569 347.7469ZM552.40375 345.09064Q552.40375 347.4344 551.6694 348.54376Q550.935 349.6375 549.3881 349.6375Q547.81 349.6375 547.0756 348.52814Q546.3569 347.40314 546.3569 345.09064Q546.3569 342.7625 547.09125 341.65314Q547.8256 340.54376 549.3881 340.54376Q550.9506 340.54376 551.6694 341.6844Q552.40375 342.8094 552.40375 345.09064ZM550.8569 347.7469Q551.06 347.2625 551.1381 346.6219Q551.21625 345.98126 551.21625 345.09064Q551.21625 344.2 551.1381 343.54376Q551.06 342.8875 550.8569 342.41876Q550.65375 341.96564 550.2944 341.7469Q549.935 341.5125 549.3881 341.5125Q548.8256 341.5125 548.46625 341.7469Q548.1069 341.96564 547.90375 342.4344Q547.7006 342.8719 547.6225 343.575Q547.56 344.2625 547.56 345.09064Q547.56 346.0125 547.6225 346.6375Q547.685 347.2469 547.8881 347.73126Q548.09125 348.1844 548.435 348.4344Q548.7944 348.66876 549.3881 348.66876Q549.935 348.66876 550.2944 348.4344Q550.65375 348.2 550.8569 347.7469Z" fill-rule="nonzero"/><path fill="#88959a" d="M31.971874 25.003124L26.675 39.55L24.096874 39.55L18.8 25.003124L20.878124 25.003124L25.440624 37.8L30.003124 25.003124L31.971874 25.003124ZM36.33125 26.815624L34.253124 26.815624L34.253124 24.909374L36.33125 24.909374L36.33125 26.815624ZM36.20625 39.55L34.378124 39.55L34.378124 28.64375L36.20625 28.64375L36.20625 39.55ZM45.01875 39.45625Q44.503124 39.596874 43.89375 39.675Q43.284374 39.76875 42.8 39.76875Q41.128124 39.76875 40.253124 38.878124Q39.39375 37.971874 39.39375 35.9875L39.39375 30.190624L38.159374 30.190624L38.159374 28.64375L39.39375 28.64375L39.39375 25.503124L41.2375 25.503124L41.2375 28.64375L45.01875 28.64375L45.01875 30.190624L41.2375 30.190624L41.2375 35.159374Q41.2375 36.01875 41.26875 36.503124Q41.315624 36.9875 41.55 37.39375Q41.753124 37.784374 42.128124 37.971874Q42.51875 38.159374 43.284374 38.159374Q43.7375 38.159374 44.221874 38.034374Q44.70625 37.89375 44.925 37.8L45.01875 37.8L45.01875 39.45625ZM56.4875 34.284374L48.45625 34.284374Q48.45625 35.284374 48.753124 36.034374Q49.05 36.784374 49.58125 37.26875Q50.096874 37.7375 50.784374 37.971874Q51.4875 38.20625 52.33125 38.20625Q53.440624 38.20625 54.565624 37.76875Q55.690624 37.315624 56.175 36.878124L56.26875 36.878124L56.26875 38.878124Q55.346874 39.26875 54.378124 39.534374Q53.409374 39.8 52.346874 39.8Q49.628124 39.8 48.096874 38.33125Q46.58125 36.8625 46.58125 34.159374Q46.58125 31.4875 48.034374 29.909374Q49.503124 28.33125 51.89375 28.33125Q54.096874 28.33125 55.284374 29.628124Q56.4875 30.909374 56.4875 33.284374L56.4875 34.284374ZM54.70625 32.878124Q54.690624 31.440624 53.971874 30.64375Q53.253124 29.846874 51.784374 29.846874Q50.315624 29.846874 49.440624 30.721874Q48.565624 31.596874 48.45625 32.878124L54.70625 32.878124ZM67.14375 36.409374Q67.14375 37.89375 65.90938 38.8625Q64.675 39.815624 62.534374 39.815624Q61.33125 39.815624 60.315624 39.534374Q59.315624 39.2375 58.628124 38.89375L58.628124 36.83125L58.721874 36.83125Q59.596874 37.4875 60.659374 37.878124Q61.721874 38.253124 62.690624 38.253124Q63.909374 38.253124 64.58125 37.8625Q65.26875 37.471874 65.26875 36.64375Q65.26875 35.9875 64.90938 35.659374Q64.53438 35.33125 63.471874 35.096874Q63.08125 35.003124 62.45625 34.89375Q61.83125 34.76875 61.315624 34.64375Q59.878124 34.253124 59.26875 33.51875Q58.675 32.784374 58.675 31.70625Q58.675 31.034374 58.95625 30.440624Q59.2375 29.846874 59.8 29.378124Q60.346874 28.909374 61.190624 28.64375Q62.034374 28.378124 63.08125 28.378124Q64.05 28.378124 65.05 28.628124Q66.05 28.8625 66.72188 29.190624L66.72188 31.159374L66.62813 31.159374Q65.925 30.64375 64.90938 30.284374Q63.909374 29.925 62.940624 29.925Q61.940624 29.925 61.2375 30.315624Q60.55 30.70625 60.55 31.45625Q60.55 32.14375 60.971874 32.471874Q61.378124 32.815624 62.3 33.034374Q62.8 33.159374 63.425 33.284374Q64.06563 33.39375 64.4875 33.4875Q65.76875 33.784374 66.45625 34.4875Q67.14375 35.20625 67.14375 36.409374ZM77.14375 36.409374Q77.14375 37.89375 75.90938 38.8625Q74.675 39.815624 72.53438 39.815624Q71.33125 39.815624 70.31563 39.534374Q69.31563 39.2375 68.62813 38.89375L68.62813 36.83125L68.72188 36.83125Q69.59688 37.4875 70.65938 37.878124Q71.72188 38.253124 72.69063 38.253124Q73.90938 38.253124 74.58125 37.8625Q75.26875 37.471874 75.26875 36.64375Q75.26875 35.9875 74.90938 35.659374Q74.53438 35.33125 73.47188 35.096874Q73.08125 35.003124 72.45625 34.89375Q71.83125 34.76875 71.31563 34.64375Q69.87813 34.253124 69.26875 33.51875Q68.675 32.784374 68.675 31.70625Q68.675 31.034374 68.95625 30.440624Q69.2375 29.846874 69.8 29.378124Q70.34688 28.909374 71.19063 28.64375Q72.03438 28.378124 73.08125 28.378124Q74.05 28.378124 75.05 28.628124Q76.05 28.8625 76.72188 29.190624L76.72188 31.159374L76.62813 31.159374Q75.925 30.64375 74.90938 30.284374Q73.90938 29.925 72.94063 29.925Q71.94063 29.925 71.2375 30.315624Q70.55 30.70625 70.55 31.45625Q70.55 32.14375 70.97188 32.471874Q71.37813 32.815624 72.3 33.034374Q72.8 33.159374 73.425 33.284374Q74.06563 33.39375 74.4875 33.4875Q75.76875 33.784374 76.45625 34.4875Q77.14375 35.20625 77.14375 36.409374ZM88.4875 34.284374L80.45625 34.284374Q80.45625 35.284374 80.75313 36.034374Q81.05 36.784374 81.58125 37.26875Q82.09688 37.7375 82.78438 37.971874Q83.4875 38.20625 84.33125 38.20625Q85.44063 38.20625 86.56563 37.76875Q87.69063 37.315624 88.175 36.878124L88.26875 36.878124L88.26875 38.878124Q87.34688 39.26875 86.37813 39.534374Q85.40938 39.8 84.34688 39.8Q81.62813 39.8 80.09688 38.33125Q78.58125 36.8625 78.58125 34.159374Q78.58125 31.4875 80.03438 29.909374Q81.50313 28.33125 83.89375 28.33125Q86.09688 28.33125 87.28438 29.628124Q88.4875 30.909374 88.4875 33.284374L88.4875 34.284374ZM86.70625 32.878124Q86.69063 31.440624 85.97188 30.64375Q85.25313 29.846874 83.78438 29.846874Q82.31563 29.846874 81.44063 30.721874Q80.56563 31.596874 80.45625 32.878124L86.70625 32.878124ZM104.19063 43.58125L101.95625 43.58125Q100.2375 41.596874 99.26875 39.253124Q98.31563 36.909374 98.31563 33.95625Q98.31563 31.01875 99.26875 28.675Q100.2375 26.33125 101.95625 24.346874L104.19063 24.346874L104.19063 24.45625Q103.40938 25.159374 102.69063 26.096874Q101.97188 27.034374 101.3625 28.26875Q100.76875 29.471874 100.39375 30.925Q100.03438 32.3625 100.03438 33.95625Q100.03438 35.628124 100.39375 37.01875Q100.75313 38.409374 101.3625 39.659374Q101.94063 40.8625 102.69063 41.83125Q103.44063 42.8 104.19063 43.471874L104.19063 43.58125ZM123.26875 39.55L121.44063 39.55L121.44063 33.33125Q121.44063 32.628124 121.37813 31.9875Q121.31563 31.33125 121.1125 30.940624Q120.87813 30.51875 120.45625 30.3Q120.05 30.08125 119.25313 30.08125Q118.4875 30.08125 117.70625 30.471874Q116.94063 30.8625 116.15938 31.45625Q116.19063 31.675 116.20625 31.971874Q116.2375 32.26875 116.2375 32.565624L116.2375 39.55L114.39375 39.55L114.39375 33.33125Q114.39375 32.6125 114.33125 31.971874Q114.26875 31.315624 114.06563 30.925Q113.84688 30.503124 113.425 30.3Q113.00313 30.08125 112.20625 30.08125Q111.45625 30.08125 110.69063 30.45625Q109.94063 30.83125 109.19063 31.409374L109.19063 39.55L107.3625 39.55L107.3625 28.64375L109.19063 28.64375L109.19063 29.846874Q110.05 29.14375 110.90938 28.7375Q111.76875 28.33125 112.72188 28.33125Q113.84688 28.33125 114.6125 28.8Q115.39375 29.26875 115.76875 30.1125Q116.89375 29.175 117.8 28.753124Q118.72188 28.33125 119.76875 28.33125Q121.56563 28.33125 122.40938 29.425Q123.26875 30.51875 123.26875 32.471874L123.26875 39.55ZM132.95625 24.346874L125.94063 42.51875L124.25313 42.51875L131.2375 24.346874L132.95625 24.346874ZM143.14375 36.409374Q143.14375 37.89375 141.90938 38.8625Q140.675 39.815624 138.53438 39.815624Q137.33125 39.815624 136.31563 39.534374Q135.31563 39.2375 134.62813 38.89375L134.62813 36.83125L134.72188 36.83125Q135.59688 37.4875 136.65938 37.878124Q137.72188 38.253124 138.69063 38.253124Q139.90938 38.253124 140.58125 37.8625Q141.26875 37.471874 141.26875 36.64375Q141.26875 35.9875 140.90938 35.659374Q140.53438 35.33125 139.47188 35.096874Q139.08125 35.003124 138.45625 34.89375Q137.83125 34.76875 137.31563 34.64375Q135.87813 34.253124 135.26875 33.51875Q134.675 32.784374 134.675 31.70625Q134.675 31.034374 134.95625 30.440624Q135.2375 29.846874 135.8 29.378124Q136.34688 28.909374 137.19063 28.64375Q138.03438 28.378124 139.08125 28.378124Q140.05 28.378124 141.05 28.628124Q142.05 28.8625 142.72188 29.190624L142.72188 31.159374L142.62813 31.159374Q141.925 30.64375 140.90938 30.284374Q139.90938 29.925 138.94063 29.925Q137.94063 29.925 137.2375 30.315624Q136.55 30.70625 136.55 31.45625Q136.55 32.14375 136.97188 32.471874Q137.37813 32.815624 138.3 33.034374Q138.8 33.159374 139.425 33.284374Q140.06563 33.39375 140.4875 33.4875Q141.76875 33.784374 142.45625 34.4875Q143.14375 35.20625 143.14375 36.409374ZM150.8625 33.95625Q150.8625 36.909374 149.90938 39.253124Q148.95625 41.596874 147.22188 43.58125L144.9875 43.58125L144.9875 43.471874Q145.7375 42.8 146.4875 41.83125Q147.25313 40.8625 147.83125 39.659374Q148.44063 38.409374 148.78438 37.01875Q149.14375 35.628124 149.14375 33.95625Q149.14375 32.3625 148.78438 30.925Q148.425 29.471874 147.83125 28.26875Q147.20625 27.034374 146.4875 26.096874Q145.78438 25.159374 144.9875 24.45625L144.9875 24.346874L147.22188 24.346874Q148.95625 26.33125 149.90938 28.675Q150.8625 31.01875 150.8625 33.95625Z" fill-rule="nonzero"/></svg>