<?xml version="1.0" encoding="UTF-8" standalone="no"?>
<svg
   xmlns:dc="http://purl.org/dc/elements/1.1/"
   xmlns:cc="http://creativecommons.org/ns#"
   xmlns:rdf="http://www.w3.org/1999/02/22-rdf-syntax-ns#"
   xmlns:svg="http://www.w3.org/2000/svg"
   xmlns="http://www.w3.org/2000/svg"
   viewBox="0 0 163.9516 162.02953"
   height="162.02953"
   width="163.9516"
   xml:space="preserve"
   id="svg28"
   version="1.1">
  <metadata
     id="metadata34">
    <rdf:RDF>
      <cc:Work
         rdf:about="">
        <dc:format>image/svg+xml</dc:format>
        <dc:type
           rdf:resource="http://purl.org/dc/dcmitype/StillImage" />
        <dc:title></dc:title>
      </cc:Work>
    </rdf:RDF>
  </metadata>
  <defs
     id="defs32">
    <clipPath
       id="clipPath46"
       clipPathUnits="userSpaceOnUse">
      <path
         id="path44"
         d="M 0,0 H 595.2793 V 841.8952 H 0 Z" />
    </clipPath>
    <clipPath
       id="clipPath7712"
       clipPathUnits="userSpaceOnUse">
      <path
         id="path7710"
         d="M 253.44,84.96 H 374.76 V 206.28 H 253.44 Z" />
    </clipPath>
    <clipPath
       id="clipPath7776"
       clipPathUnits="userSpaceOnUse">
      <path
         id="path7774"
         d="M 0,0 H 595.2793 V 841.8952 H 0 Z" />
    </clipPath>
  </defs>
  <g
     transform="matrix(1.3333333,0,0,-1.3333333,-338.4248,273.61987)"
     id="g36">
    <g
       id="g38" />
    <g
       id="g7706">
      <g
         clip-path="url(#clipPath7712)"
         id="g7708">
        <g
           transform="scale(0.12)"
           id="g7714">
          <path
             id="path7716"
             style="fill:none;stroke:#000000;stroke-width:4;stroke-linecap:round;stroke-linejoin:round;stroke-miterlimit:10;stroke-dasharray:none;stroke-opacity:1"
             d="m 2381,1204 v 0 -22 l 1,-22 4,-21 5,-21 7,-21 10,-19 11,-19 12,-18 14,-16 16,-15 17,-14 18,-12 19,-10 20,-9 21,-6 21,-5 22,-3 h 22 l 22,1 21,3 21,6 21,7 19,9 19,11 18,12 17,14 15,16 14,17 12,18 10,19 9,20 7,21 4,21 3,21 1,22 -1,22 -3,21 -5,21 -7,21 -9,20 -11,19 -12,18 -14,17 -16,15 -16,14 -18,12 -19,11 -20,8 -21,7 -21,5 -22,3 -21,1 -22,-1 -22,-3 -21,-4 -20,-7 -20,-9 -19,-11 -18,-12 -17,-14 -16,-15 -14,-16 -12,-18 -11,-19 -9,-20 -7,-21 -5,-21 -3,-21 -1,-8" />
        </g>
        <g
           transform="scale(0.12)"
           id="g7718">
          <path
             id="path7720"
             style="fill:none;stroke:#000000;stroke-width:4;stroke-linecap:round;stroke-linejoin:round;stroke-miterlimit:10;stroke-dasharray:none;stroke-opacity:1"
             d="m 2145,1204 v 0 l 1,-31 4,-30 6,-31 7,-29 10,-30 11,-28 13,-28 15,-27 17,-26 18,-24 20,-24 21,-22 23,-21 24,-19 25,-17 27,-16 27,-14 28,-13 29,-10 30,-9 30,-6 30,-5 31,-3 h 30 l 31,1 31,3 30,6 30,7 29,9 29,11 28,13 27,15 26,16 24,18 24,20 22,21 21,23 20,23 17,26 17,26 14,27 12,28 11,29 9,29 7,30 5,30 3,31 1,31 -1,31 -3,30 -5,30 -7,30 -9,30 -11,29 -13,28 -14,27 -16,26 -18,25 -19,24 -21,22 -23,21 -23,20 -25,18 -26,16 -27,15 -28,13 -29,11 -29,9 -30,7 -31,5 -30,3 -31,2 -31,-1 -30,-3 -31,-4 -30,-7 -29,-9 -29,-10 -28,-13 -27,-14 -27,-16 -25,-17 -24,-20 -23,-20 -21,-22 -20,-24 -18,-25 -16,-26 -15,-26 -13,-28 -12,-29 -9,-29 -8,-30 -5,-30 -4,-31 -1,-30 v -18" />
        </g>
        <g
           transform="scale(0.12)"
           id="g7722">
          <path
             id="path7724"
             style="fill:none;stroke:#000000;stroke-width:4;stroke-linecap:square;stroke-linejoin:round;stroke-miterlimit:10;stroke-dasharray:none;stroke-opacity:1"
             d="m 2617,1204 v 0 h 236" />
        </g>
        <g
           transform="scale(0.12)"
           id="g7726">
          <path
             id="path7728"
             style="fill:none;stroke:#000000;stroke-width:4;stroke-linecap:square;stroke-linejoin:round;stroke-miterlimit:10;stroke-dasharray:none;stroke-opacity:1"
             d="m 2640,1227 v 0 0 l -23,-23 23,-23" />
        </g>
        <g
           transform="scale(0.12)"
           id="g7730">
          <path
             id="path7732"
             style="fill:none;stroke:#000000;stroke-width:4;stroke-linecap:square;stroke-linejoin:round;stroke-miterlimit:10;stroke-dasharray:none;stroke-opacity:1"
             d="m 2831,1227 v 0 0 l 22,-23 -22,-23" />
        </g>
        <g
           transform="scale(0.12)"
           id="g7734">
          <path
             id="path7736"
             style="fill:none;stroke:#000000;stroke-width:4;stroke-linecap:square;stroke-linejoin:round;stroke-miterlimit:10;stroke-dasharray:none;stroke-opacity:1"
             d="m 2617,1204 v 0 -463" />
        </g>
        <g
           transform="scale(0.12)"
           id="g7738">
          <path
             id="path7740"
             style="fill:none;stroke:#000000;stroke-width:4;stroke-linecap:square;stroke-linejoin:round;stroke-miterlimit:10;stroke-dasharray:none;stroke-opacity:1"
             d="m 2640,1181 v 0 0 l -23,23 -23,-23" />
        </g>
        <g
           transform="scale(0.12)"
           id="g7742">
          <path
             id="path7744"
             style="fill:none;stroke:#000000;stroke-width:4;stroke-linecap:square;stroke-linejoin:round;stroke-miterlimit:10;stroke-dasharray:none;stroke-opacity:1"
             d="m 2640,763 v 0 0 l -23,-22 -23,22" />
        </g>
        <g
           transform="scale(0.12)"
           id="g7746">
          <text
             id="text7750"
             style="font-variant:normal;font-weight:normal;font-size:91.6667px;font-family:CMMI10;-inkscape-font-specification:CMMI10;writing-mode:lr-tb;fill:#000000;fill-opacity:1;fill-rule:nonzero;stroke:none"
             transform="matrix(1,0,0,-1,2665,849)"><tspan
               id="tspan7748"
               y="0"
               x="0">r</tspan></text>
        </g>
        <g
           transform="scale(0.12)"
           id="g7752">
          <text
             id="text7756"
             style="font-variant:normal;font-weight:normal;font-size:66.6667px;font-family:CMR8;-inkscape-font-specification:CMR8;writing-mode:lr-tb;fill:#000000;fill-opacity:1;fill-rule:nonzero;stroke:none"
             transform="matrix(1,0,0,-1,2706,836)"><tspan
               id="tspan7754"
               y="0"
               x="0">2</tspan></text>
        </g>
        <g
           transform="scale(0.12)"
           id="g7758">
          <text
             id="text7762"
             style="font-variant:normal;font-weight:normal;font-size:91.6667px;font-family:CMMI10;-inkscape-font-specification:CMMI10;writing-mode:lr-tb;fill:#000000;fill-opacity:1;fill-rule:nonzero;stroke:none"
             transform="matrix(1,0,0,-1,2688,1133)"><tspan
               id="tspan7760"
               y="0"
               x="0">r</tspan></text>
        </g>
        <g
           transform="scale(0.12)"
           id="g7764">
          <text
             id="text7768"
             style="font-variant:normal;font-weight:normal;font-size:66.6667px;font-family:CMR8;-inkscape-font-specification:CMR8;writing-mode:lr-tb;fill:#000000;fill-opacity:1;fill-rule:nonzero;stroke:none"
             transform="matrix(1,0,0,-1,2729,1120)"><tspan
               id="tspan7766"
               y="0"
               x="0">1</tspan></text>
        </g>
      </g>
    </g>
  </g>
</svg>
