<?xml version="1.0" encoding="UTF-8" standalone="no"?>
<svg
   xmlns:dc="http://purl.org/dc/elements/1.1/"
   xmlns:cc="http://creativecommons.org/ns#"
   xmlns:rdf="http://www.w3.org/1999/02/22-rdf-syntax-ns#"
   xmlns:svg="http://www.w3.org/2000/svg"
   xmlns="http://www.w3.org/2000/svg"
   xmlns:sodipodi="http://sodipodi.sourceforge.net/DTD/sodipodi-0.dtd"
   xmlns:inkscape="http://www.inkscape.org/namespaces/inkscape"
   inkscape:version="1.0beta1 (32d4812, 2019-09-19)"
   sodipodi:docname="while-avec-compteur-autonome.svg"
   id="svg8"
   version="1.1"
   viewBox="0 0 210 297"
   height="297mm"
   width="210mm">
  <sodipodi:namedview
     inkscape:current-layer="svg8"
     inkscape:window-maximized="0"
     inkscape:window-y="23"
     inkscape:window-x="0"
     inkscape:cy="570"
     inkscape:cx="400"
     inkscape:zoom="0.7"
     showgrid="false"
     id="namedview165"
     inkscape:window-height="1209"
     inkscape:window-width="1600"
     inkscape:pageshadow="2"
     inkscape:pageopacity="0"
     guidetolerance="10"
     gridtolerance="10"
     objecttolerance="10"
     borderopacity="1"
     inkscape:document-rotation="0"
     bordercolor="#666666"
     pagecolor="#ffffff" />
  <defs
     id="defs2" />
  <metadata
     id="metadata5">
    <rdf:RDF>
      <cc:Work
         rdf:about="">
        <dc:format>image/svg+xml</dc:format>
        <dc:type
           rdf:resource="http://purl.org/dc/dcmitype/StillImage" />
        <dc:title />
      </cc:Work>
    </rdf:RDF>
  </metadata>
  <g
     transform="matrix(1.8142854,0,0,1.8142854,-87.235392,-93.40868)"
     id="layer1">
    <g
       style="opacity:1;stop-opacity:1"
       id="g42"
       transform="matrix(0.35277777,0,0,-0.35277777,82.569047,58.046668)">
      <g
         id="g44">
        <g
           id="g46">
          <path
             inkscape:connector-curvature="0"
             id="path48"
             style="fill:#edcccc;fill-opacity:1;fill-rule:nonzero;stroke:#a70002;stroke-width:0.3985;stroke-linecap:butt;stroke-linejoin:miter;stroke-miterlimit:10;stroke-dasharray:none;stroke-opacity:1"
             d="m 38.53511,14.17339 h -77.07022 c -2.20094,0 -3.98511,-1.78417 -3.98511,-3.98511 v -20.37656 c 0,-2.20094 1.78417,-3.98511 3.98511,-3.98511 h 77.07022 c 2.20094,0 3.98511,1.78417 3.98511,3.98511 v 20.37656 c 0,2.20094 -1.78417,3.98511 -3.98511,3.98511 z" />
        </g>
        <g
           transform="translate(-13.495,-3.422)"
           id="g50">
          <g
             id="g52">
            <g
               transform="translate(-82.105,-446.11)"
               id="g54">
              <text
                 id="text58"
                 style="font-variant:normal;font-weight:normal;font-size:9.96264px;font-family:LMRoman10;-inkscape-font-specification:LMRoman10-Regular;writing-mode:lr-tb;fill:#000000;fill-opacity:1;fill-rule:nonzero;stroke:none"
                 transform="matrix(1,0,0,-1,82.105,446.11)"><tspan
                   id="tspan56"
                   y="0"
                   x="0 7.6114569 12.034869 17.574097 23.113325">Début</tspan></text>
              <g
                 transform="translate(82.105,446.11)"
                 id="g60" />
            </g>
          </g>
          <g
             transform="translate(13.495,3.422)"
             id="g62" />
        </g>
      </g>
      <g
         id="g64">
        <g
           id="g66">
          <path
             inkscape:connector-curvature="0"
             id="path68"
             style="fill:#e6e6e6;fill-opacity:1;fill-rule:nonzero;stroke:#000000;stroke-width:0.3985;stroke-linecap:butt;stroke-linejoin:miter;stroke-miterlimit:10;stroke-dasharray:none;stroke-opacity:1"
             d="m -60.01419,-75.4266 h 120.0284 v 37.46594 h -120.0284 z" />
        </g>
        <g
           transform="translate(-56.693,-48.085)"
           id="g70">
          <g
             transform="translate(17.324)"
             id="g72">
            <g
               transform="translate(-56.231,-401.447)"
               id="g74">
              <text
                 id="text78"
                 style="font-variant:normal;font-weight:normal;font-size:9.96264px;font-family:LMRoman10;-inkscape-font-specification:LMRoman10-Regular;writing-mode:lr-tb;fill:#000000;fill-opacity:1;fill-rule:nonzero;stroke:none"
                 transform="matrix(1,0,0,-1,56.231,401.447)"><tspan
                   id="tspan76"
                   y="0"
                   x="0 3.596513 9.1357412 13.061021 16.936487 20.841843 26.381071 30.804483 34.679951 37.449562 42.430885 47.970112 55.212952 59.925278 64.627647 69.608963 74.86924">Instructionsavant</tspan></text>
              <text
                 id="text82"
                 style="font-variant:normal;font-weight:normal;font-size:9.96264px;font-family:LMRoman10;-inkscape-font-specification:LMRoman10-Regular;writing-mode:lr-tb;fill:#000000;fill-opacity:1;fill-rule:nonzero;stroke:none"
                 transform="matrix(1,0,0,-1,57.061,389.492)"><tspan
                   id="tspan80"
                   y="0"
                   x="0 2.769614 11.068493 14.993773 18.86924 22.774595 28.313824 32.737236 36.612701 42.151928 46.057285 53.798256 56.567871 60.443336 64.866753 68.772102 73.753426">lastructureitéra-</tspan></text>
              <text
                 id="text86"
                 style="font-variant:normal;font-weight:normal;font-size:9.96264px;font-family:LMRoman10;-inkscape-font-specification:LMRoman10-Regular;writing-mode:lr-tb;fill:#000000;fill-opacity:1;fill-rule:nonzero;stroke:none"
                 transform="matrix(1,0,0,-1,55.743,377.536)"><tspan
                   id="tspan84"
                   y="0"
                   x="0 3.8754671 6.645081 11.626401 19.367373 23.790785 28.772104 34.311333 39.850559 42.620174 46.49564 49.265255 54.246574 59.785801 65.325027 69.748444 72.518059 75.287674">tiveconditionnelle</tspan></text>
              <g
                 transform="translate(38.907,401.447)"
                 id="g88" />
            </g>
          </g>
          <g
             transform="translate(56.693,48.085)"
             id="g90" />
        </g>
      </g>
      <g
         id="g92">
        <g
           id="g94">
          <path
             inkscape:connector-curvature="0"
             id="path96"
             style="fill:#cedbe3;fill-opacity:1;fill-rule:nonzero;stroke:#0c4c74;stroke-width:0.3985;stroke-linecap:butt;stroke-linejoin:miter;stroke-miterlimit:10;stroke-dasharray:none;stroke-opacity:1"
             d="m -60.01419,-127.56065 h 120.0284 v 28.34679 h -120.0284 z" />
        </g>
        <g
           transform="translate(-56.693,-109.899)"
           id="g98">
          <g
             transform="translate(13.882)"
             id="g100">
            <g
               transform="translate(-52.789,-339.633)"
               id="g102">
              <text
                 id="text106"
                 style="font-variant:normal;font-weight:normal;font-size:9.96264px;font-family:LMRoman10;-inkscape-font-specification:LMRoman10-Regular;writing-mode:lr-tb;fill:#000000;fill-opacity:1;fill-rule:nonzero;stroke:none"
                 transform="matrix(1,0,0,-1,52.789,339.633)"><tspan
                   id="tspan104"
                   y="0"
                   x="0 3.596513 9.1357412 13.061021 16.936487 20.841843 26.381071 30.804483 34.679951 37.449562 42.430885 51.28767 56.826897 59.596512 62.366127 67.905357 70.674965 74.550438 77.320045 82.301369">Instructiond’initia-</tspan></text>
              <text
                 id="text110"
                 style="font-variant:normal;font-weight:normal;font-size:9.96264px;font-family:LMRoman10;-inkscape-font-specification:LMRoman10-Regular;writing-mode:lr-tb;fill:#000000;fill-opacity:1;fill-rule:nonzero;stroke:none"
                 transform="matrix(1,0,0,-1,50.441,327.678)"><tspan
                   id="tspan108"
                   y="0"
                   x="0 2.769614 5.539228 9.4645081 14.445828 18.321295 21.090908 26.072229 34.929016 40.468243 49.325031 53.748444 58.729763 67.028641 72.567871 76.443336 80.866753 86.405975">lisationducompteur</tspan></text>
              <g
                 transform="translate(38.907,339.633)"
                 id="g112" />
            </g>
          </g>
          <g
             transform="translate(56.693,109.899)"
             id="g114" />
        </g>
      </g>
      <g
         id="g116">
        <g
           id="g118">
          <path
             inkscape:connector-curvature="0"
             id="path120"
             style="fill:#ccded1;fill-opacity:1;fill-rule:nonzero;stroke:#005a19;stroke-width:0.3985;stroke-linecap:butt;stroke-linejoin:miter;stroke-miterlimit:10;stroke-dasharray:none;stroke-opacity:1"
             d="M 42.43768,-170.0809 0,-150.79985 -42.43768,-170.0809 0,-189.36195 Z" />
        </g>
        <g
           transform="translate(-9.295,-173.396)"
           id="g122">
          <g
             id="g124">
            <g
               transform="translate(-86.305,-276.136)"
               id="g126">
              <text
                 id="text130"
                 style="font-variant:normal;font-weight:normal;font-size:9.96264px;font-family:LMRoman10;-inkscape-font-specification:LMRoman10-Regular;writing-mode:lr-tb;fill:#000000;fill-opacity:1;fill-rule:nonzero;stroke:none"
                 transform="matrix(1,0,0,-1,86.305,276.136)"><tspan
                   id="tspan128"
                   y="0"
                   x="0 6.366127 10.789539 14.714819">Test</tspan></text>
              <g
                 transform="translate(86.305,276.136)"
                 id="g132" />
            </g>
          </g>
          <g
             transform="translate(9.295,173.396)"
             id="g134" />
        </g>
      </g>
      <g
         id="g136">
        <g
           id="g138">
          <path
             inkscape:connector-curvature="0"
             id="path140"
             style="fill:#cedbe3;fill-opacity:1;fill-rule:nonzero;stroke:#0c4c74;stroke-width:0.3985;stroke-linecap:butt;stroke-linejoin:miter;stroke-miterlimit:10;stroke-dasharray:none;stroke-opacity:1"
             d="m -60.01419,-240.94792 h 120.0284 v 28.34679 h -120.0284 z" />
        </g>
        <g
           transform="translate(-56.693,-224.162)"
           id="g142">
          <g
             transform="translate(8.726)"
             id="g144">
            <g
               transform="translate(-47.633,-225.37)"
               id="g146">
              <text
                 id="text150"
                 style="font-variant:normal;font-weight:normal;font-size:9.96264px;font-family:LMRoman10;-inkscape-font-specification:LMRoman10-Regular;writing-mode:lr-tb;fill:#000000;fill-opacity:1;fill-rule:nonzero;stroke:none"
                 transform="matrix(1,0,0,-1,47.633,225.37)"><tspan
                   id="tspan148"
                   y="0"
                   x="0 3.596513 9.1357412 13.061021 16.936487 20.841843 26.381071 30.804483 34.679951 37.449562 42.430885 47.970112 55.212952 59.636364 64.896637 69.320045 73.743462 79.282692 83.158157 87.581566 92.004982">Instructionsexécutées</tspan></text>
              <text
                 id="text154"
                 style="font-variant:normal;font-weight:normal;font-size:9.96264px;font-family:LMRoman10;-inkscape-font-specification:LMRoman10-Regular;writing-mode:lr-tb;fill:#000000;fill-opacity:1;fill-rule:nonzero;stroke:none"
                 transform="matrix(1,0,0,-1,46.518,213.415)"><tspan
                   id="tspan152"
                   y="0"
                   x="0 3.9252801 10.012453 12.782067 20.523039 24.398506 28.821917 32.747196 39.940224 43.845577 48.26899 52.144459 57.125778 62.665005 66.570358 72.109589 79.860519 86.515564 90.420921 95.402237">siletestretourneVrai</tspan></text>
              <g
                 transform="translate(38.907,225.37)"
                 id="g156" />
            </g>
          </g>
          <g
             transform="translate(56.693,224.162)"
             id="g158" />
        </g>
      </g>
      <g
         id="g160">
        <g
           id="g162">
          <path
             inkscape:connector-curvature="0"
             id="path164"
             style="fill:#cedbe3;fill-opacity:1;fill-rule:nonzero;stroke:#0c4c74;stroke-width:0.3985;stroke-linecap:butt;stroke-linejoin:miter;stroke-miterlimit:10;stroke-dasharray:none;stroke-opacity:1"
             d="m -60.01419,-297.64157 h 120.0284 v 28.34679 h -120.0284 z" />
        </g>
        <g
           transform="translate(-56.693,-279.998)"
           id="g166">
          <g
             transform="translate(5.573)"
             id="g168">
            <g
               transform="translate(-44.48,-169.534)"
               id="g170">
              <text
                 id="text174"
                 style="font-variant:normal;font-weight:normal;font-size:9.96264px;font-family:LMRoman10;-inkscape-font-specification:LMRoman10-Regular;writing-mode:lr-tb;fill:#000000;fill-opacity:1;fill-rule:nonzero;stroke:none"
                 transform="matrix(1,0,0,-1,44.48,169.534)"><tspan
                   id="tspan172"
                   y="0"
                   x="0 3.596513 9.1357412 13.061021 16.936487 20.841843 26.381071 30.804483 34.679951 37.449562 42.430885 51.28767 56.826897 59.596512 62.366127 67.905357 72.328766 76.234123 80.657532 88.956413 93.379822 98.919052">Instructiond’incrémen-</tspan></text>
              <text
                 id="text178"
                 style="font-variant:normal;font-weight:normal;font-size:9.96264px;font-family:LMRoman10;-inkscape-font-specification:LMRoman10-Regular;writing-mode:lr-tb;fill:#000000;fill-opacity:1;fill-rule:nonzero;stroke:none"
                 transform="matrix(1,0,0,-1,53.236,157.579)"><tspan
                   id="tspan176"
                   y="0"
                   x="0 3.8754671 8.8567867 12.732254 15.501868 20.483189 29.339975 34.879204 43.735989 48.159401 53.14072 61.439602 66.978828 70.854294 75.27771 80.816933">tationducompteur</tspan></text>
              <g
                 transform="translate(38.907,169.534)"
                 id="g180" />
            </g>
          </g>
          <g
             transform="translate(56.693,279.998)"
             id="g182" />
        </g>
      </g>
      <g
         id="g184">
        <g
           id="g186">
          <path
             inkscape:connector-curvature="0"
             id="path188"
             style="fill:#e6e6e6;fill-opacity:1;fill-rule:nonzero;stroke:#000000;stroke-width:0.3985;stroke-linecap:butt;stroke-linejoin:miter;stroke-miterlimit:10;stroke-dasharray:none;stroke-opacity:1"
             d="m -60.01419,-387.3163 h 120.0284 v 37.61537 h -120.0284 z" />
        </g>
        <g
           transform="translate(-56.693,-359.971)"
           id="g190">
          <g
             transform="translate(17.697)"
             id="g192">
            <g
               transform="translate(-56.604,-89.561)"
               id="g194">
              <text
                 id="text198"
                 style="font-variant:normal;font-weight:normal;font-size:9.96264px;font-family:LMRoman10;-inkscape-font-specification:LMRoman10-Regular;writing-mode:lr-tb;fill:#000000;fill-opacity:1;fill-rule:nonzero;stroke:none"
                 transform="matrix(1,0,0,-1,56.604,89.561)"><tspan
                   id="tspan196"
                   y="0"
                   x="0 3.596513 9.1357412 13.061021 16.936487 20.841843 26.381071 30.804483 34.679951 37.449562 42.430885 47.970112 55.212952 60.194271 65.733498 69.638855 74.062263">Instructionsaprès</tspan></text>
              <text
                 id="text202"
                 style="font-variant:normal;font-weight:normal;font-size:9.96264px;font-family:LMRoman10;-inkscape-font-specification:LMRoman10-Regular;writing-mode:lr-tb;fill:#000000;fill-opacity:1;fill-rule:nonzero;stroke:none"
                 transform="matrix(1,0,0,-1,57.061,77.606)"><tspan
                   id="tspan200"
                   y="0"
                   x="0 2.769614 11.068493 14.993773 18.86924 22.774595 28.313824 32.737236 36.612701 42.151928 46.057285 53.798256 56.567871 60.443336 64.866753 68.772102 73.753426">lastructureitéra-</tspan></text>
              <text
                 id="text206"
                 style="font-variant:normal;font-weight:normal;font-size:9.96264px;font-family:LMRoman10;-inkscape-font-specification:LMRoman10-Regular;writing-mode:lr-tb;fill:#000000;fill-opacity:1;fill-rule:nonzero;stroke:none"
                 transform="matrix(1,0,0,-1,55.743,65.651)"><tspan
                   id="tspan204"
                   y="0"
                   x="0 3.8754671 6.645081 11.626401 19.367373 23.790785 28.772104 34.311333 39.850559 42.620174 46.49564 49.265255 54.246574 59.785801 65.325027 69.748444 72.518059 75.287674">tiveconditionnelle</tspan></text>
              <g
                 transform="translate(38.907,89.561)"
                 id="g208" />
            </g>
          </g>
          <g
             transform="translate(56.693,359.971)"
             id="g210" />
        </g>
      </g>
      <g
         id="g212">
        <g
           id="g214">
          <path
             inkscape:connector-curvature="0"
             id="path216"
             style="fill:#edcccc;fill-opacity:1;fill-rule:nonzero;stroke:#a70002;stroke-width:0.3985;stroke-linecap:butt;stroke-linejoin:miter;stroke-miterlimit:10;stroke-dasharray:none;stroke-opacity:1"
             d="m 38.53511,-411.02885 h -77.07022 c -2.20094,0 -3.98511,-1.78417 -3.98511,-3.98511 v -20.37657 c 0,-2.20095 1.78417,-3.98511 3.98511,-3.98511 h 77.07022 c 2.20094,0 3.98511,1.78416 3.98511,3.98511 v 20.37657 c 0,2.20094 -1.78417,3.98511 -3.98511,3.98511 z" />
        </g>
        <g
           transform="translate(-7.408,-428.584)"
           id="g218">
          <g
             id="g220">
            <g
               transform="translate(-88.192,-20.948)"
               id="g222">
              <text
                 id="text226"
                 style="font-variant:normal;font-weight:normal;font-size:9.96264px;font-family:LMRoman10;-inkscape-font-specification:LMRoman10-Regular;writing-mode:lr-tb;fill:#000000;fill-opacity:1;fill-rule:nonzero;stroke:none"
                 transform="matrix(1,0,0,-1,88.192,20.948)"><tspan
                   id="tspan224"
                   y="0"
                   x="0 6.5056038 9.275218">Fin</tspan></text>
              <g
                 transform="translate(88.192,20.948)"
                 id="g228" />
            </g>
          </g>
          <g
             transform="translate(7.408,428.584)"
             id="g230" />
        </g>
      </g>
      <g
         id="g232">
        <path
           inkscape:connector-curvature="0"
           id="path234"
           style="fill:none;stroke:#000000;stroke-width:0.79701;stroke-linecap:butt;stroke-linejoin:miter;stroke-miterlimit:10;stroke-dasharray:none;stroke-opacity:1"
           d="M 0,-14.37263 V -35.17114" />
        <g
           transform="rotate(-90,-17.58557,-17.58557)"
           id="g236">
          <g
             id="g238">
            <path
               inkscape:connector-curvature="0"
               id="path240"
               style="fill:#000000;fill-opacity:1;fill-rule:nonzero;stroke:none"
               d="M 2.59026,0 -1.55415,2.0722 0,0 -1.55415,-2.0722" />
          </g>
        </g>
      </g>
      <g
         id="g242">
        <path
           inkscape:connector-curvature="0"
           id="path244"
           style="fill:none;stroke:#000000;stroke-width:0.79701;stroke-linecap:butt;stroke-linejoin:miter;stroke-miterlimit:10;stroke-dasharray:none;stroke-opacity:1"
           d="m 0,-75.62585 v -20.7985" />
        <g
           transform="rotate(-90,-48.212175,-48.212175)"
           id="g246">
          <g
             id="g248">
            <path
               inkscape:connector-curvature="0"
               id="path250"
               style="fill:#000000;fill-opacity:1;fill-rule:nonzero;stroke:none"
               d="M 2.59026,0 -1.55415,2.0722 0,0 -1.55415,-2.0722" />
          </g>
        </g>
      </g>
      <g
         id="g252">
        <path
           inkscape:connector-curvature="0"
           id="path254"
           style="fill:none;stroke:#000000;stroke-width:0.79701;stroke-linecap:butt;stroke-linejoin:miter;stroke-miterlimit:10;stroke-dasharray:none;stroke-opacity:1"
           d="M 0,-127.75992 V -147.928" />
        <g
           transform="rotate(-90,-73.964,-73.964)"
           id="g256">
          <g
             id="g258">
            <path
               inkscape:connector-curvature="0"
               id="path260"
               style="fill:#000000;fill-opacity:1;fill-rule:nonzero;stroke:none"
               d="M 2.59026,0 -1.55415,2.0722 0,0 -1.55415,-2.0722" />
          </g>
        </g>
      </g>
      <g
         id="g262">
        <path
           inkscape:connector-curvature="0"
           id="path264"
           style="fill:none;stroke:#000000;stroke-width:0.79701;stroke-linecap:butt;stroke-linejoin:miter;stroke-miterlimit:10;stroke-dasharray:none;stroke-opacity:1"
           d="m 0,-189.64374 v -20.16787" />
        <g
           transform="rotate(-90,-104.90581,-104.90581)"
           id="g266">
          <g
             id="g268">
            <path
               inkscape:connector-curvature="0"
               id="path270"
               style="fill:#000000;fill-opacity:1;fill-rule:nonzero;stroke:none"
               d="M 2.59026,0 -1.55415,2.0722 0,0 -1.55415,-2.0722" />
          </g>
        </g>
        <g
           id="g272">
          <g
             transform="translate(-22.021,-204.313)"
             id="g274">
            <g
               id="g276">
              <g
                 transform="translate(-73.579,-245.219)"
                 id="g278">
                <text
                   id="text282"
                   style="font-variant:normal;font-weight:normal;font-size:9.96264px;font-family:LMRoman10;-inkscape-font-specification:LMRoman10-Regular;writing-mode:lr-tb;fill:#000000;fill-opacity:1;fill-rule:nonzero;stroke:none"
                   transform="matrix(1,0,0,-1,73.579,245.219)"><tspan
                     id="tspan280"
                     y="0"
                     x="0 6.645081 10.550436 15.531755">Vrai</tspan></text>
                <g
                   transform="translate(73.579,245.219)"
                   id="g284" />
              </g>
            </g>
            <g
               transform="translate(22.021,204.313)"
               id="g286" />
          </g>
        </g>
      </g>
      <g
         id="g288">
        <path
           inkscape:connector-curvature="0"
           id="path290"
           style="fill:none;stroke:#000000;stroke-width:0.79701;stroke-linecap:butt;stroke-linejoin:miter;stroke-miterlimit:10;stroke-dasharray:none;stroke-opacity:1"
           d="m 0,-241.14719 v -25.35806" />
        <g
           transform="rotate(-90,-133.25262,-133.25262)"
           id="g292">
          <g
             id="g294">
            <path
               inkscape:connector-curvature="0"
               id="path296"
               style="fill:#000000;fill-opacity:1;fill-rule:nonzero;stroke:none"
               d="M 2.59026,0 -1.55415,2.0722 0,0 -1.55415,-2.0722" />
          </g>
        </g>
      </g>
      <g
         id="g298">
        <path
           inkscape:connector-curvature="0"
           id="path300"
           style="fill:none;stroke:#000000;stroke-width:0.79701;stroke-linecap:butt;stroke-linejoin:miter;stroke-miterlimit:10;stroke-dasharray:none;stroke-opacity:1"
           d="m 60.21346,-283.46817 h 28.3468 V -170.0809 H 45.30974" />
        <g
           transform="rotate(180,22.65487,-85.04045)"
           id="g302">
          <g
             id="g304">
            <path
               inkscape:connector-curvature="0"
               id="path306"
               style="fill:#000000;fill-opacity:1;fill-rule:nonzero;stroke:none"
               d="M 2.59026,0 -1.55415,2.0722 0,0 -1.55415,-2.0722" />
          </g>
        </g>
      </g>
      <g
         id="g308">
        <path
           inkscape:connector-curvature="0"
           id="path310"
           style="fill:none;stroke:#000000;stroke-width:0.79701;stroke-linecap:butt;stroke-linejoin:miter;stroke-miterlimit:10;stroke-dasharray:none;stroke-opacity:1"
           d="m -42.71947,-170.0809 h -42.5202 V -335.32828 H 0 v 0 -11.58312" />
        <g
           transform="rotate(-90,-173.4557,-173.4557)"
           id="g312">
          <g
             id="g314">
            <path
               inkscape:connector-curvature="0"
               id="path316"
               style="fill:#000000;fill-opacity:1;fill-rule:nonzero;stroke:none"
               d="M 2.59026,0 -1.55415,2.0722 0,0 -1.55415,-2.0722" />
          </g>
        </g>
        <g
           id="g318">
          <g
             transform="translate(-74.709,-166.25)"
             id="g320">
            <g
               id="g322">
              <g
                 transform="translate(-20.891,-283.282)"
                 id="g324">
                <text
                   id="text328"
                   style="font-variant:normal;font-weight:normal;font-size:9.96264px;font-family:LMRoman10;-inkscape-font-specification:LMRoman10-Regular;writing-mode:lr-tb;fill:#000000;fill-opacity:1;fill-rule:nonzero;stroke:none"
                   transform="matrix(1,0,0,-1,20.891,283.282)"><tspan
                     id="tspan326"
                     y="0"
                     x="0 5.6787047 10.660025 16.199253">Faux</tspan></text>
                <g
                   transform="translate(20.891,283.282)"
                   id="g330" />
              </g>
            </g>
            <g
               transform="translate(74.709,166.25)"
               id="g332" />
          </g>
        </g>
      </g>
      <g
         id="g334">
        <path
           inkscape:connector-curvature="0"
           id="path336"
           style="fill:none;stroke:#000000;stroke-width:0.79701;stroke-linecap:butt;stroke-linejoin:miter;stroke-miterlimit:10;stroke-dasharray:none;stroke-opacity:1"
           d="m 0,-387.51555 v -20.72378" />
        <g
           transform="rotate(-90,-204.11966,-204.11966)"
           id="g338">
          <g
             id="g340">
            <path
               inkscape:connector-curvature="0"
               id="path342"
               style="fill:#000000;fill-opacity:1;fill-rule:nonzero;stroke:none"
               d="M 2.59026,0 -1.55415,2.0722 0,0 -1.55415,-2.0722" />
          </g>
        </g>
      </g>
    </g>
  </g>
</svg>
