<?xml version="1.0" standalone="no"?>
<!DOCTYPE svg PUBLIC "-//W3C//DTD SVG 20010904//EN"
 "http://www.w3.org/TR/2001/REC-SVG-20010904/DTD/svg10.dtd">
<svg version="1.0" xmlns="http://www.w3.org/2000/svg"
 width="1617.848268pt" height="755.665602pt" viewBox="0 0 1617.848268 755.665602"
 preserveAspectRatio="xMidYMid meet">
<metadata>
Created by Potrace Professional 1.1m
</metadata>
<g transform="translate(-124.009649,841.946581) rotate(-360.00) scale(0.095238,-0.095238)"
fill="#000000" stroke="none">
<path d="M5148 8815 c-100 -46 -147 -138 -193 -376 l-24 -123 -81 0 c-60 0
-86 -4 -98 -16 -38 -38 -9 -57 85 -57 50 0 77 -5 77 -12 0 -22 -147 -789 -170
-888 -24 -107 -52 -164 -95 -196 -26 -19 -32 -20 -73 -8 l-44 14 33 14 c64 26
86 113 38 151 -33 26 -48 27 -93 5 -86 -41 -84 -174 3 -214 116 -55 210 -19
291 110 72 115 100 216 188 680 l64 338 99 3 c102 3 127 12 127 45 0 26 -21
31 -122 31 -49 0 -88 2 -88 4 0 18 73 375 82 396 22 58 90 88 140 61 20 -11
20 -12 -12 -31 -52 -32 -70 -107 -34 -140 27 -24 88 -22 121 4 52 41 56 139 8
183 -27 25 -92 47 -137 47 -21 1 -62 -11 -92 -25z"/>
<path d="M11592 8764 l0 -36 74 -4 c58 -4 78 -9 97 -28 l23 -24 0 -522 c0
-287 -3 -534 -7 -549 -10 -36 -48 -51 -124 -51 l-63 0 0 -37 0 -37 389 0 389
0 -3 34 -3 34 -75 6 c-124 8 -119 -3 -119 300 l0 256 100 0 c153 0 260 -43
321 -128 21 -30 25 -52 32 -179 8 -171 18 -206 73 -266 59 -64 131 -92 235
-93 77 -1 89 2 122 28 44 33 83 108 83 159 0 61 -40 58 -58 -4 -18 -57 -49
-105 -81 -122 -30 -15 -36 -15 -67 0 -19 9 -42 30 -51 46 -15 30 -43 159 -69
314 -20 126 -82 200 -207 251 -33 13 -53 26 -45 29 235 71 364 198 342 337
-21 128 -152 235 -358 291 -78 22 -111 24 -517 27 l-433 5 0 -37z m859 -54
c89 -21 140 -49 183 -100 57 -66 74 -154 49 -245 -16 -60 -96 -136 -172 -164
-57 -21 -200 -41 -302 -42 l-39 0 0 262 c0 318 -6 305 128 304 48 0 116 -7
153 -15z m-406 -26 l25 -20 0 -526 0 -527 -25 -20 c-32 -26 -106 -27 -137 -2
-22 18 -22 18 -20 553 l3 536 27 13 c38 20 98 17 127 -7z"/>
<path d="M15750 8764 l0 -36 74 -4 c58 -4 78 -9 97 -28 l23 -24 0 -522 c0
-287 -3 -534 -7 -549 -10 -36 -48 -51 -124 -51 l-63 0 0 -37 0 -37 389 0 389
0 -3 34 -3 34 -75 6 c-124 8 -119 -3 -119 300 l0 256 100 0 c153 0 260 -43
321 -128 21 -30 25 -52 32 -179 8 -171 18 -206 73 -266 59 -64 131 -92 235
-93 77 -1 89 2 122 28 44 33 83 108 83 159 0 61 -40 58 -58 -4 -18 -57 -49
-105 -81 -122 -30 -15 -36 -15 -67 0 -19 9 -42 30 -51 46 -15 30 -43 159 -69
314 -20 126 -82 200 -207 251 -33 13 -53 26 -45 29 235 71 364 198 342 337
-21 128 -152 235 -358 291 -78 22 -111 24 -517 27 l-433 5 0 -37z m859 -54
c89 -21 140 -49 183 -100 57 -66 74 -154 49 -245 -16 -60 -96 -136 -172 -164
-57 -21 -200 -41 -302 -42 l-39 0 0 262 c0 318 -6 305 128 304 48 0 116 -7
153 -15z m-406 -26 l25 -20 0 -526 0 -527 -25 -20 c-32 -26 -106 -27 -137 -2
-22 18 -22 18 -20 553 l3 536 27 13 c38 20 98 17 127 -7z"/>
<path d="M14768 8449 c-9 -23 44 -176 84 -243 21 -35 70 -95 108 -134 l70 -71
-726 0 c-399 0 -733 -3 -742 -6 -20 -8 -22 -47 -4 -65 9 -10 189 -13 742 -13
l731 0 -45 -38 c-87 -73 -181 -231 -212 -355 -14 -59 -7 -72 38 -67 27 3 32
11 57 82 43 124 70 168 155 252 59 59 101 89 156 115 49 24 77 42 77 54 0 11
-30 31 -82 57 -148 73 -262 214 -312 386 -17 58 -19 60 -54 60 -20 0 -38 -6
-41 -14z"/>
<path d="M5716 8296 c-46 -28 -63 -81 -42 -131 17 -41 46 -60 91 -61 114 -4
152 153 47 197 -47 19 -57 19 -96 -5z"/>
<path d="M5699 7655 c-29 -25 -34 -37 -33 -75 1 -36 8 -51 34 -75 45 -39 95
-39 139 1 28 24 33 37 33 75 0 38 -5 51 -33 75 -45 41 -94 40 -140 -1z"/>
<path d="M1308 7018 c-15 -40 -3 -77 49 -157 124 -187 313 -340 514 -413 149
-55 107 -53 1233 -54 1309 -1 1430 -7 1635 -80 152 -55 310 -171 385 -285 51
-77 105 -80 151 -7 16 25 66 81 112 124 137 129 310 201 548 227 65 7 500 11
1212 11 1042 0 1117 1 1206 20 205 42 361 126 516 279 58 58 128 140 155 182
42 65 49 82 46 120 -3 43 -5 45 -42 48 -34 3 -42 -2 -68 -37 -16 -22 -68 -78
-115 -125 -72 -72 -101 -93 -194 -137 -60 -29 -140 -61 -177 -70 -38 -9 -83
-20 -100 -24 -18 -4 -577 -10 -1244 -14 -1205 -6 -1214 -6 -1295 -29 -197 -56
-332 -131 -467 -260 -55 -52 -113 -114 -130 -139 -17 -25 -34 -45 -38 -44 -4
0 -27 26 -50 59 -128 178 -354 325 -588 382 -138 33 -376 40 -1487 41 l-1057
0 -98 25 c-214 55 -382 164 -488 317 -35 52 -43 57 -78 57 -26 0 -41 -6 -46
-17z"/>
<path d="M10527 7018 c-15 -40 -3 -77 49 -157 124 -187 313 -340 514 -413 153
-57 109 -55 1220 -54 1304 0 1442 -6 1648 -80 152 -55 310 -171 385 -285 51
-77 105 -80 151 -7 16 25 66 81 112 124 137 129 310 201 548 227 65 7 500 11
1212 11 1042 0 1117 1 1206 20 205 42 361 126 516 279 58 58 128 140 155 182
42 65 49 82 46 120 -3 43 -5 45 -42 48 -34 3 -42 -2 -68 -37 -16 -22 -68 -78
-115 -125 -72 -72 -101 -93 -194 -137 -60 -29 -140 -61 -177 -70 -38 -9 -83
-20 -100 -24 -18 -4 -577 -10 -1244 -14 -1205 -6 -1214 -6 -1295 -29 -197 -56
-332 -131 -467 -260 -55 -52 -113 -114 -130 -139 -17 -25 -34 -45 -38 -44 -4
0 -27 26 -50 59 -93 129 -269 266 -428 330 -212 87 -316 93 -1661 92 l-1040 0
-99 26 c-217 55 -384 163 -490 317 -35 52 -43 57 -78 57 -26 0 -41 -6 -46 -17z"/>
<path d="M3607 5687 c-29 -21 -13 -46 33 -54 22 -3 55 -8 73 -11 l33 -5 -129
-517 c-72 -284 -137 -532 -146 -550 -19 -42 -76 -85 -122 -94 -20 -4 -45 -11
-55 -16 -23 -12 -24 -47 -1 -55 9 -4 95 -6 192 -6 130 0 180 3 195 14 29 21
16 37 -47 62 -43 18 -60 30 -68 53 -8 24 12 118 115 530 123 494 125 500 140
464 8 -20 94 -257 191 -527 214 -592 211 -586 246 -586 16 0 31 9 38 22 7 12
71 258 142 547 72 289 140 546 151 571 23 52 68 85 130 95 57 10 88 44 57 63
-7 5 -95 9 -194 10 -136 2 -186 -1 -200 -12 -26 -19 -6 -48 40 -60 53 -14 73
-36 73 -83 0 -38 -198 -853 -206 -846 -2 2 -79 211 -171 465 -92 254 -172 475
-178 491 -6 16 -24 34 -39 39 -42 16 -270 13 -293 -4z"/>
<path d="M12881 5681 c-20 -16 -39 -60 -80 -187 -68 -212 -70 -227 -31 -221
26 4 35 19 84 139 65 163 132 207 326 214 121 4 124 4 124 -18 0 -27 -247
-1020 -267 -1072 -18 -49 -67 -73 -148 -75 -35 0 -75 -4 -89 -8 -30 -8 -42
-41 -20 -55 8 -5 149 -9 314 -9 236 0 304 3 319 14 45 33 -5 60 -110 60 -33 0
-58 6 -74 20 l-25 20 135 541 c109 437 139 544 158 562 20 19 36 22 112 22
120 -1 166 -13 203 -54 l30 -34 -7 -133 c-6 -113 -5 -134 9 -140 19 -7 45 18
53 49 13 60 47 290 47 325 0 28 -6 42 -20 50 -13 7 -195 11 -519 11 -480 0
-499 -1 -524 -21z"/>
<path d="M13949 5225 c-69 -30 -150 -153 -160 -244 -5 -41 -3 -46 16 -46 27 0
36 12 64 89 29 78 67 128 112 150 29 13 38 14 52 3 27 -23 18 -81 -41 -257
-72 -212 -88 -299 -71 -380 21 -105 87 -160 198 -170 43 -3 67 1 114 23 l60
27 -7 -28 c-4 -16 -22 -62 -39 -103 -58 -140 -141 -223 -233 -233 -51 -6 -104
15 -122 48 -9 17 -5 22 22 34 21 8 38 26 48 49 13 32 13 39 -2 61 -22 33 -59
42 -98 21 -75 -38 -70 -181 8 -237 66 -46 184 -46 278 2 103 52 206 168 248
279 32 86 210 804 210 848 0 73 -88 75 -121 3 -9 -19 -47 -159 -85 -312 -37
-152 -75 -289 -83 -305 -22 -43 -94 -103 -140 -117 -58 -17 -99 6 -124 70 -25
66 -11 152 65 384 70 217 70 250 5 316 -36 35 -46 39 -91 39 -28 0 -65 -7 -83
-14z"/>
<path d="M14826 5217 c-42 -28 -100 -134 -114 -209 -10 -57 -6 -73 19 -73 27
0 37 16 62 101 23 76 51 122 86 141 27 14 62 -21 63 -61 0 -16 -53 -241 -118
-501 -104 -421 -120 -476 -146 -502 -16 -16 -40 -28 -55 -28 -30 0 -54 -25
-45 -48 9 -24 365 -23 385 1 12 15 12 19 -4 31 -10 7 -37 16 -60 20 -25 4 -45
13 -49 24 -4 9 12 91 34 183 l41 165 44 -40 c56 -52 116 -64 195 -38 267 88
447 492 326 731 -75 148 -244 169 -379 47 -40 -37 -64 -41 -64 -12 0 7 -17 29
-37 48 -30 29 -46 36 -92 40 -45 4 -62 0 -92 -20z m502 -46 c29 -21 50 -61 58
-114 12 -76 -47 -334 -104 -453 -52 -110 -158 -196 -218 -177 -52 15 -101 92
-101 159 -1 44 78 360 104 418 24 56 79 117 136 153 53 34 90 38 125 14z"/>
<path d="M15976 5221 c-168 -59 -294 -193 -336 -355 -20 -78 -21 -227 0 -295
58 -196 258 -256 484 -146 81 40 176 130 170 161 -7 35 -40 25 -100 -29 -76
-70 -147 -110 -224 -126 -72 -15 -102 -10 -145 26 -57 49 -76 146 -53 274 18
103 7 95 138 102 255 14 381 93 381 240 0 65 -18 99 -72 140 -41 30 -170 34
-243 8z m200 -70 c42 -42 47 -87 16 -139 -46 -75 -134 -112 -291 -125 l-91 -8
7 31 c4 17 21 59 38 93 53 109 149 183 240 184 38 0 51 -6 81 -36z"/>
<path d="M5135 5212 c-155 -55 -307 -227 -352 -398 -69 -264 69 -474 296 -453
200 19 396 213 450 445 41 172 -27 343 -158 403 -53 24 -171 26 -236 3z m184
-55 c52 -32 73 -87 72 -185 -3 -161 -75 -364 -165 -463 -149 -165 -317 -105
-314 111 1 84 43 254 85 343 76 162 226 252 322 194z"/>
<path d="M5805 5205 c-42 -28 -86 -106 -108 -190 -17 -66 -13 -90 15 -90 26 0
36 15 62 99 25 78 53 125 85 142 27 15 63 -20 63 -60 0 -16 -36 -177 -80 -357
-91 -368 -91 -381 -20 -381 55 0 68 30 136 302 33 130 71 261 86 292 40 80
115 161 177 190 74 34 113 32 146 -8 43 -51 38 -110 -43 -437 -59 -242 -68
-290 -58 -312 10 -22 20 -27 50 -27 54 0 68 30 136 303 66 266 89 323 164 405
122 133 254 134 269 1 8 -66 -9 -144 -76 -347 -60 -182 -67 -225 -43 -282 48
-114 184 -116 284 -5 76 85 116 224 64 224 -22 0 -30 -13 -75 -118 -47 -110
-135 -165 -163 -102 -11 22 -4 51 43 197 104 317 116 402 71 491 -33 67 -86
94 -182 94 -62 0 -85 -5 -139 -32 -35 -18 -80 -52 -101 -76 -20 -23 -39 -41
-41 -38 -2 2 -12 22 -22 44 -11 22 -36 53 -56 68 -31 24 -50 29 -119 32 -69 4
-89 0 -137 -22 -31 -14 -76 -45 -101 -68 -37 -35 -46 -39 -52 -25 -11 33 -56
86 -87 101 -44 23 -106 20 -148 -8z"/>
<path d="M1896 3931 c-23 -60 49 -184 188 -325 144 -146 294 -231 497 -282 59
-16 361 -17 3104 -17 1738 0 3120 -4 3227 -10 273 -14 420 -50 572 -138 85
-49 193 -148 239 -217 51 -77 105 -80 151 -7 16 25 66 81 112 124 137 129 310
201 548 227 69 7 1089 11 3218 11 2997 0 3120 1 3211 20 205 42 361 126 516
279 58 58 128 140 155 182 42 65 49 82 46 120 -3 43 -5 45 -42 48 -34 3 -42
-2 -68 -37 -16 -22 -68 -78 -115 -125 -72 -72 -101 -93 -194 -137 -60 -29
-140 -61 -177 -70 -38 -9 -83 -20 -100 -24 -18 -4 -1480 -11 -3250 -14 l-3218
-6 -82 -23 c-198 -57 -332 -131 -467 -260 -55 -52 -113 -114 -130 -139 -17
-25 -34 -45 -38 -44 -4 0 -27 26 -50 59 -93 129 -269 266 -428 330 -126 52
-229 72 -431 82 -110 6 -1435 10 -3234 10 l-3047 0 -99 26 c-217 55 -384 163
-490 317 -35 52 -43 57 -78 57 -26 0 -41 -6 -46 -17z"/>
<path d="M6568 2653 c-82 -21 -159 -68 -226 -139 -70 -76 -108 -149 -126 -248
-21 -115 6 -205 82 -273 43 -39 78 -54 224 -98 110 -32 155 -61 181 -114 62
-127 -34 -345 -185 -421 -126 -62 -296 -13 -357 103 -19 35 -24 64 -26 144 -1
54 -2 105 -2 112 -1 17 -37 17 -52 0 -15 -18 -108 -394 -104 -420 5 -40 30
-31 85 28 l55 60 31 -33 c61 -64 173 -100 286 -92 233 17 454 293 429 536 -8
75 -26 119 -70 170 -44 50 -85 70 -225 111 -127 37 -178 68 -201 122 -50 120
40 305 180 370 67 32 152 34 210 4 89 -46 120 -112 120 -261 0 -85 4 -109 17
-120 15 -13 20 -11 36 8 16 20 116 388 116 427 0 8 -8 18 -18 22 -13 4 -33
-10 -71 -51 l-54 -58 -28 35 c-56 71 -194 105 -307 76z"/>
<path d="M7397 2536 c-50 -50 -23 -121 45 -121 44 0 91 54 81 93 -10 42 -25
54 -65 54 -24 0 -44 -8 -61 -26z"/>
<path d="M10899 2503 c-37 -11 -63 -84 -119 -331 -6 -26 -10 -27 -97 -33 -100
-6 -135 -24 -110 -54 10 -12 34 -16 97 -16 75 0 83 -2 78 -19 -44 -145 -132
-539 -132 -588 0 -80 24 -127 84 -157 80 -42 151 -27 233 49 92 85 161 222
119 238 -24 9 -45 -12 -80 -82 -53 -103 -121 -166 -181 -166 -38 0 -55 28 -53
83 2 38 80 372 141 602 l10 40 88 0 c67 0 93 4 105 16 29 29 2 44 -89 52 -46
4 -83 10 -83 12 0 3 14 61 31 130 38 148 40 204 11 220 -21 11 -26 11 -53 4z"/>
<path d="M7226 2136 c-81 -42 -168 -191 -161 -275 1 -7 10 -13 21 -13 26 0 33
11 69 98 35 85 67 125 111 143 26 11 35 11 48 -1 30 -24 11 -107 -77 -346 -95
-255 -103 -286 -86 -347 33 -123 174 -150 273 -51 69 70 129 211 101 239 -23
23 -47 3 -70 -57 -46 -123 -98 -185 -152 -180 -31 3 -32 4 -31 61 0 45 18 105
82 278 45 122 86 244 91 272 21 108 -31 186 -129 192 -38 3 -66 -1 -90 -13z"/>
<path d="M7992 2126 c-183 -85 -316 -305 -316 -520 0 -105 24 -174 82 -232 92
-92 197 -94 318 -8 30 22 32 22 27 3 -4 -11 -17 -60 -29 -109 -33 -126 -57
-171 -121 -230 -75 -68 -129 -81 -243 -58 l-24 5 21 34 c26 43 26 65 0 92 -29
28 -66 26 -104 -7 -27 -22 -32 -35 -32 -72 0 -67 51 -101 174 -115 171 -20
352 70 418 208 29 60 237 879 237 933 0 20 -6 41 -13 48 -21 21 -68 15 -90
-13 l-20 -26 -30 32 c-17 17 -44 39 -59 47 -45 23 -132 18 -196 -12z m180 -47
c36 -29 60 -84 60 -141 0 -50 -61 -311 -92 -394 -23 -61 -110 -149 -172 -173
-42 -16 -53 -17 -78 -4 -80 38 -92 157 -38 366 36 142 70 219 124 282 72 84
142 107 196 64z"/>
<path d="M8631 2129 c-44 -29 -77 -84 -105 -175 -23 -73 -20 -106 10 -106 27
0 38 17 64 105 29 95 79 156 114 137 22 -12 38 -69 29 -102 -3 -11 -39 -159
-81 -331 -66 -266 -75 -315 -65 -339 10 -21 20 -26 50 -26 54 -1 67 28 136
302 36 142 73 263 91 300 82 161 244 254 313 180 52 -55 41 -152 -48 -427 -61
-188 -66 -226 -38 -281 54 -106 177 -110 272 -10 69 73 122 221 83 236 -26 10
-40 -8 -69 -87 -45 -123 -145 -202 -178 -140 -14 25 -2 80 40 196 17 45 46
136 64 201 43 148 43 257 2 316 -36 49 -96 74 -180 74 -81 0 -140 -23 -212
-84 -27 -23 -51 -41 -54 -41 -3 0 -7 10 -11 23 -3 13 -22 40 -42 60 -31 29
-47 36 -93 40 -45 4 -62 0 -92 -21z"/>
<path d="M9932 2119 c-169 -84 -307 -319 -307 -523 0 -185 98 -315 236 -315
50 0 125 34 176 80 l52 46 24 -42 c52 -92 168 -108 240 -32 64 66 118 244 80
259 -28 10 -46 -13 -75 -102 -40 -120 -90 -172 -129 -133 -25 25 -11 118 56
386 69 277 78 332 55 355 -22 22 -68 15 -91 -15 l-22 -27 -27 33 c-63 75 -157
85 -268 30z m188 -35 c27 -20 54 -69 66 -120 13 -56 -82 -423 -126 -487 -44
-64 -107 -116 -160 -132 -39 -12 -47 -11 -71 7 -52 38 -66 82 -60 181 7 107
58 304 102 390 71 141 178 210 249 161z"/>
<path d="M11345 2136 c-67 -35 -123 -109 -156 -206 -18 -55 -14 -82 14 -82 24
0 34 14 57 74 43 117 128 202 169 168 27 -23 18 -86 -32 -228 -86 -242 -102
-341 -73 -442 46 -152 243 -186 381 -65 l36 32 25 -36 c24 -35 89 -70 128 -70
45 1 106 41 134 89 58 98 82 226 43 226 -24 0 -45 -34 -68 -112 -24 -81 -72
-144 -103 -138 -29 5 -47 50 -39 98 3 23 36 163 73 312 74 295 80 347 46 366
-30 15 -67 5 -87 -26 -9 -14 -48 -150 -86 -302 -37 -152 -76 -295 -86 -316 -9
-22 -37 -58 -61 -80 -104 -96 -193 -76 -220 49 -12 54 13 172 75 358 63 189
67 234 23 289 -45 57 -129 75 -193 42z"/>
<path d="M12326 2129 c-43 -29 -76 -85 -104 -175 -23 -73 -20 -106 10 -106 26
0 36 16 63 99 25 79 53 126 85 143 27 14 63 -21 63 -62 0 -16 -36 -173 -80
-349 -77 -311 -84 -360 -54 -379 23 -15 67 -9 85 12 11 11 46 128 85 281 36
144 75 283 87 308 32 72 83 134 137 169 42 27 57 31 104 27 31 -2 58 -7 62
-11 4 -3 -6 -21 -21 -39 -32 -37 -34 -59 -11 -92 32 -45 111 -25 136 34 37 89
-42 164 -176 163 -77 0 -131 -22 -190 -77 -22 -21 -41 -38 -43 -38 -2 0 -14
16 -26 37 -45 76 -142 102 -212 55z"/>
<path d="M13309 2134 c-168 -59 -294 -193 -336 -355 -20 -78 -21 -227 0 -295
58 -196 258 -256 484 -146 81 40 176 130 170 161 -7 35 -40 25 -100 -29 -76
-70 -147 -110 -224 -126 -72 -15 -102 -10 -145 26 -57 49 -76 146 -53 274 18
103 7 95 138 102 255 14 381 93 381 240 0 65 -18 99 -72 140 -41 30 -170 34
-243 8z m200 -70 c42 -42 47 -87 16 -139 -46 -75 -134 -112 -291 -125 l-91 -8
7 31 c4 17 21 59 38 93 53 109 149 183 240 184 38 0 51 -6 81 -36z"/>
</g>
</svg>
