<?xml version="1.0" encoding="UTF-8"?>
<svg width="1030pt" version="1.1" xmlns="http://www.w3.org/2000/svg" height="457pt" viewBox="0 0 1030 457" xmlns:xlink="http://www.w3.org/1999/xlink">
 <defs>
  <clipPath id="Clip0">
   <path d="M0 0 L1030 0 L1030 457 L0 457 L0 0 Z" transform="translate(0, 0)"/>
  </clipPath>
 </defs>
 <g id="Hintergrund">
  <g id="Gruppe1" clip-path="url(#Clip0)">
   <path style="fill:#0000ff; fill-rule:evenodd;stroke:none;" d="M8.424 0 C3.408 0 0 3.696 0 9.168 C0 14.64 3.408 18.336 8.448 18.336 C10.56 18.336 12.456 17.688 13.872 16.488 C15.768 14.88 16.896 12.168 16.896 9.312 C16.896 3.672 13.56 0 8.424 0 Z M8.424 1.968 C12.216 1.968 14.664 4.848 14.664 9.264 C14.664 13.488 12.144 16.368 8.448 16.368 C4.728 16.368 2.232 13.488 2.232 9.168 C2.232 4.848 4.728 1.968 8.424 1.968 Z" transform="translate(408.662, 104.716)"/>
   <path style="fill:#0000ff; fill-rule:nonzero;stroke:none;" d="M1.7 31.0496 L0 31.0496 L0 0 L1.7 0 L1.7 31.0496 Z" transform="translate(419.3, 71.6504)"/>
   <path style="fill:#0000ff; fill-rule:nonzero;stroke:none;" d="M1.7 31.0496 L0 31.0496 L0 0 L1.7 0 L1.7 31.0496 Z" transform="translate(413.35, 71.6504)"/>
   <path style="fill:#0000ff; fill-rule:nonzero;stroke:none;" d="M0 1.9502 L0 0 L34.35 19.7998 L34.35 21.7998 L0 1.9502 Z" transform="translate(382.85, 52.5498)"/>
   <path style="fill:#000000; fill-rule:evenodd;stroke:none;" d="M8.424 0 C3.408 0 0 3.6963 0 9.168 C0 14.6406 3.408 18.336 8.448 18.336 C10.56 18.336 12.456 17.6885 13.872 16.4883 C15.768 14.8799 16.896 12.168 16.896 9.3125 C16.896 3.6719 13.56 0 8.424 0 Z M8.424 1.9678 C12.216 1.9678 14.664 4.8487 14.664 9.2647 C14.664 13.4883 12.144 16.3682 8.448 16.3682 C4.728 16.3682 2.232 13.4883 2.232 9.168 C2.232 4.8487 4.728 1.9678 8.424 1.9678 Z" transform="translate(443.162, 45.1533)"/>
   <path style="fill:#000000; fill-rule:evenodd;stroke:none;" d="M11.231 9.5283 L11.231 17.4961 L13.464 17.4961 L13.464 0 L11.231 0 L11.231 7.5606 L2.231 7.5606 L2.231 0 L0 0 L0 17.4961 L2.256 17.4961 L2.256 9.5283 L11.231 9.5283 Z" transform="translate(462.93, 45.4414)"/>
   <path style="fill:#0000ff; fill-rule:nonzero;stroke:none;" d="M24.25 0 L25.1 1.5 L0 16 L0 14 L24.25 0 Z" transform="translate(417.2, 58.3496)"/>
   <path style="fill:#0000ff; fill-rule:nonzero;stroke:none;" d="M0 21.7998 L0 19.7998 L34.4 0 L34.4 1.9502 L0 21.7998 Z" transform="translate(348.45, 52.5498)"/>
   <path style="fill:#0000ff; fill-rule:nonzero;stroke:none;" d="M0 1.9502 L0 0 L34.35 19.7998 L34.35 21.7998 L0 1.9502 Z" transform="translate(314.1, 52.5498)"/>
   <path style="fill:#0000ff; fill-rule:nonzero;stroke:none;" d="M0 21.7998 L0 19.7998 L34.4 0 L34.4 1.9502 L0 21.7998 Z" transform="translate(279.7, 52.5498)"/>
   <path style="fill:#0000ff; fill-rule:nonzero;stroke:none;" d="M0 1.9502 L0 0 L34.35 19.7998 L34.35 21.7998 L0 1.9502 Z" transform="translate(245.35, 52.5498)"/>
   <path style="fill:#000000; fill-rule:evenodd;stroke:none;" d="M11.231 9.5283 L11.231 17.4961 L13.464 17.4961 L13.464 0 L11.231 0 L11.231 7.5606 L2.231 7.5606 L2.231 0 L0 0 L0 17.4961 L2.256 17.4961 L2.256 9.5283 L11.231 9.5283 Z" transform="translate(186.305, 65.3164)"/>
   <path style="fill:#000000; fill-rule:evenodd;stroke:none;" d="M8.424 0 C3.408 0 0 3.6963 0 9.168 C0 14.6406 3.408 18.336 8.448 18.336 C10.56 18.336 12.456 17.6885 13.872 16.4883 C15.768 14.8799 16.896 12.168 16.896 9.3125 C16.896 3.6719 13.56 0 8.424 0 Z M8.424 1.9678 C12.216 1.9678 14.664 4.8487 14.664 9.2647 C14.664 13.4883 12.144 16.3682 8.448 16.3682 C4.728 16.3682 2.232 13.4883 2.232 9.168 C2.232 4.8487 4.728 1.9678 8.424 1.9678 Z" transform="translate(202.537, 65.0283)"/>
   <path style="fill:#0000ff; fill-rule:nonzero;stroke:none;" d="M0.85 16.3506 L0 14.8506 L25.75 0 L25.75 1.9502 L0.85 16.3506 Z" transform="translate(219.6, 52.5498)"/>
   <path style="fill:#0000ff; fill-rule:evenodd;stroke:none;" d="M8.424 0 C3.408 0 0 3.69629 0 9.16798 C0 14.6406 3.408 18.336 8.448 18.336 C10.56 18.336 12.456 17.6885 13.872 16.4883 C15.768 14.8799 16.896 12.168 16.896 9.31248 C16.896 3.67188 13.56 0 8.424 0 Z M8.424 1.96777 C12.216 1.96777 14.664 4.84868 14.664 9.26468 C14.664 13.4883 12.144 16.3682 8.448 16.3682 C4.728 16.3682 2.232 13.4883 2.232 9.16798 C2.232 4.84868 4.728 1.96777 8.424 1.96777 Z" transform="translate(236.912, 5.46582)"/>
   <path style="fill:#0000ff; fill-rule:nonzero;stroke:none;" d="M0 0 L1.7 0 L1.7 29.4502 L0 29.4502 L0 0 Z" transform="translate(241.55, 25.7998)"/>
   <path style="fill:#0000ff; fill-rule:nonzero;stroke:none;" d="M0 0 L1.7 0 L1.7 29.4502 L0 29.4502 L0 0 Z" transform="translate(247.5, 25.7998)"/>
   <path style="fill:#000000; fill-rule:nonzero;stroke:none;" d="M0 1.9502 L0 0 L34.35 19.7998 L34.35 21.7998 L0 1.9502 Z" transform="translate(742.35, 52.5498)"/>
   <path style="fill:#000000; fill-rule:evenodd;stroke:none;" d="M13.68 0 L11.568 0 L11.568 14.3037 L2.424 0 L0 0 L0 17.4961 L2.112 17.4961 L2.112 3.3125 L11.16 17.4961 L13.68 17.4961 L13.68 0 Z" transform="translate(804.199, 45.4414)"/>
   <path style="fill:#000000; fill-rule:evenodd;stroke:none;" d="M11.232 9.5283 L11.232 17.4961 L13.464 17.4961 L13.464 0 L11.232 0 L11.232 7.5606 L2.232 7.5606 L2.232 0 L0 0 L0 17.4961 L2.256 17.4961 L2.256 9.5283 L11.232 9.5283 Z" transform="translate(821.742, 45.4414)"/>
   <path style="fill:#000000; fill-rule:evenodd;stroke:none;" d="M8.496 11.1953 L1.781 11.1953 C1.943 10.1513 2.519 9.4853 4.086 8.5674 L5.886 7.5957 C7.668 6.624 8.586 5.3096 8.586 3.7441 C8.586 2.6816 8.153 1.6914 7.397 1.0078 C6.641 0.3242 5.706 0 4.5 0 C2.88 0 1.674 0.5762 0.971 1.6553 C0.521 2.3398 0.323 3.1318 0.288 4.4277 L1.872 4.4277 C1.926 3.5635 2.034 3.042 2.25 2.6279 C2.664 1.8535 3.491 1.3857 4.445 1.3857 C5.886 1.3857 6.966 2.4121 6.966 3.7793 C6.966 4.7881 6.372 5.6513 5.237 6.2998 L3.582 7.2353 C0.918 8.748 0.143 9.9541 0 12.7617 L8.496 12.7617 L8.496 11.1953 Z" transform="translate(837.675, 54.6758)"/>
   <path style="fill:#000000; fill-rule:nonzero;stroke:none;" d="M23.6 0 L24.45 1.4502 L0 15.5996 L0 13.5996 L23.6 0 Z" transform="translate(776.7, 58.75)"/>
   <path style="fill:#000000; fill-rule:nonzero;stroke:none;" d="M0 21.7998 L0 19.7998 L34.4 0 L34.4 1.9502 L0 21.7998 Z" transform="translate(707.95, 52.5498)"/>
   <path style="fill:#000000; fill-rule:nonzero;stroke:none;" d="M0 1.9502 L0 0 L34.35 19.7998 L34.35 21.7998 L0 1.9502 Z" transform="translate(673.6, 52.5498)"/>
   <path style="fill:#000000; fill-rule:nonzero;stroke:none;" d="M0 21.7998 L0 19.7998 L34.4 0 L34.4 1.9502 L0 21.7998 Z" transform="translate(639.2, 52.5498)"/>
   <path style="fill:#000000; fill-rule:nonzero;stroke:none;" d="M0 1.9502 L0 0 L34.35 19.7998 L34.35 21.7998 L0 1.9502 Z" transform="translate(604.85, 52.5498)"/>
   <path style="fill:#000000; fill-rule:evenodd;stroke:none;" d="M11.231 9.5283 L11.231 17.4961 L13.464 17.4961 L13.464 0 L11.231 0 L11.231 7.5606 L2.231 7.5606 L2.231 0 L0 0 L0 17.4961 L2.256 17.4961 L2.256 9.5283 L11.231 9.5283 Z" transform="translate(536.43, 65.3164)"/>
   <path style="fill:#000000; fill-rule:evenodd;stroke:none;" d="M8.496 11.1953 L1.782 11.1953 C1.944 10.1513 2.52 9.4853 4.086 8.5674 L5.886 7.5957 C7.668 6.624 8.586 5.3096 8.586 3.7441 C8.586 2.6816 8.154 1.6914 7.398 1.0078 C6.642 0.3242 5.706 0 4.5 0 C2.88 0 1.674 0.5762 0.972 1.6553 C0.522 2.3398 0.324 3.1318 0.288 4.4277 L1.872 4.4277 C1.926 3.5635 2.034 3.042 2.25 2.6279 C2.664 1.8535 3.492 1.3857 4.446 1.3857 C5.886 1.3857 6.966 2.4121 6.966 3.7793 C6.966 4.7881 6.372 5.6513 5.238 6.2998 L3.582 7.2353 C0.918 8.748 0.144 9.9541 0 12.7617 L8.496 12.7617 L8.496 11.1953 Z" transform="translate(552.362, 74.5508)"/>
   <path style="fill:#000000; fill-rule:evenodd;stroke:none;" d="M13.68 0 L11.568 0 L11.568 14.3037 L2.424 0 L0 0 L0 17.4961 L2.112 17.4961 L2.112 3.3125 L11.16 17.4961 L13.68 17.4961 L13.68 0 Z" transform="translate(563.574, 65.3164)"/>
   <path style="fill:#000000; fill-rule:nonzero;stroke:none;" d="M0.85 15.6504 L0 14.2002 L24.65 0 L24.65 1.9502 L0.85 15.6504 Z" transform="translate(580.2, 52.5498)"/>
   <path style="fill:#000000; fill-rule:evenodd;stroke:none;" d="M11.616 4.9678 L6.647 4.9678 L6.647 0 L4.967 0 L4.967 4.9678 L0 4.9678 L0 6.6485 L4.967 6.6485 L4.967 11.6162 L6.647 11.6162 L6.647 6.6485 L11.616 6.6485 L11.616 4.9678 Z" transform="translate(509.763, 61.6865)"/>
   <path style="fill:#000000; fill-rule:evenodd;stroke:none;" d="M13.584 0 L0 0 L0 1.728 L13.584 1.728 L13.584 0 Z" transform="translate(540.817, 225.262)"/>
   <path style="fill:#000000; fill-rule:evenodd;stroke:none;" d="M11.231 9.528 L11.231 17.496 L13.464 17.496 L13.464 0 L11.231 0 L11.231 7.56 L2.231 7.56 L2.231 0 L0 0 L0 17.496 L2.256 17.496 L2.256 9.528 L11.231 9.528 Z" transform="translate(562.93, 215.254)"/>
   <path style="fill:#000000; fill-rule:evenodd;stroke:none;" d="M8.496 11.196 L1.781 11.196 C1.943 10.152 2.519 9.486 4.086 8.568 L5.886 7.596 C7.668 6.624 8.586 5.31 8.586 3.744 C8.586 2.682 8.153 1.692 7.397 1.008 C6.641 0.325 5.706 0 4.5 0 C2.88 0 1.674 0.576 0.971 1.656 C0.521 2.34 0.323 3.132 0.288 4.428 L1.872 4.428 C1.926 3.564 2.034 3.042 2.25 2.628 C2.664 1.854 3.491 1.386 4.445 1.386 C5.886 1.386 6.966 2.412 6.966 3.78 C6.966 4.788 6.372 5.652 5.237 6.3 L3.582 7.236 C0.918 8.748 0.143 9.954 0 12.762 L8.496 12.762 L8.496 11.196 Z" transform="translate(578.925, 224.488)"/>
   <path style="fill:#000000; fill-rule:evenodd;stroke:none;" d="M8.423 0 C3.408 0 0 3.696 0 9.168 C0 14.64 3.408 18.336 8.448 18.336 C10.559 18.336 12.456 17.688 13.872 16.488 C15.767 14.88 16.895 12.168 16.895 9.312 C16.895 3.672 13.559 0 8.423 0 Z M8.423 1.968 C12.215 1.968 14.664 4.848 14.664 9.264 C14.664 13.488 12.143 16.368 8.448 16.368 C4.727 16.368 2.231 13.488 2.231 9.168 C2.231 4.848 4.727 1.968 8.423 1.968 Z" transform="translate(589.225, 214.966)"/>
   <path style="fill:#000000; fill-rule:evenodd;stroke:none;" d="M0 0.36 L0 12.936 L2.017 12.936 L2.017 6 C2.017 3.432 3.361 1.752 5.424 1.752 C7.009 1.752 8.017 2.712 8.017 4.224 L8.017 12.936 L10.009 12.936 L10.009 3.432 C10.009 1.344 8.448 0 6.025 0 C4.153 0 2.952 0.72 1.849 2.472 L1.849 0.36 L0 0.36 Z" transform="translate(781.617, 436.189)"/>
   <path style="fill:#0000ff; fill-rule:nonzero;stroke:none;" d="M34.35 19.85 L34.35 21.8 L0 1.95 L0 0 L34.35 19.85 Z" transform="translate(313.35, 371.1)"/>
   <path style="fill:#0000ff; fill-rule:evenodd;stroke:none;" d="M8.424 0 C3.408 0 0 3.696 0 9.168 C0 14.64 3.408 18.336 8.448 18.336 C10.56 18.336 12.456 17.688 13.872 16.488 C15.768 14.88 16.896 12.168 16.896 9.312 C16.896 3.672 13.56 0 8.424 0 Z M8.424 1.968 C12.216 1.968 14.664 4.848 14.664 9.264 C14.664 13.488 12.144 16.368 8.448 16.368 C4.728 16.368 2.232 13.488 2.232 9.168 C2.232 4.848 4.728 1.968 8.424 1.968 Z" transform="translate(304.912, 323.966)"/>
   <path style="fill:#0000ff; fill-rule:nonzero;stroke:none;" d="M0 0 L1.7 0 L1.7 29.45 L0 29.45 L0 0 Z" transform="translate(309.55, 344.35)"/>
   <path style="fill:#0000ff; fill-rule:nonzero;stroke:none;" d="M0 0 L1.7 0 L1.7 29.45 L0 29.45 L0 0 Z" transform="translate(315.5, 344.35)"/>
   <path style="fill:#0000ff; fill-rule:nonzero;stroke:none;" d="M34.4 0 L34.4 1.95 L0 21.8 L0 19.85 L34.4 0 Z" transform="translate(347.7, 371.1)"/>
   <path style="fill:#0000ff; fill-rule:nonzero;stroke:none;" d="M34.35 19.85 L34.35 21.8 L0 1.95 L0 0 L34.35 19.85 Z" transform="translate(382.1, 371.1)"/>
   <path style="fill:#0000ff; fill-rule:nonzero;stroke:none;" d="M34.4 0 L34.4 1.95 L0 21.8 L0 19.85 L34.4 0 Z" transform="translate(416.45, 371.1)"/>
   <path style="fill:#0000ff; fill-rule:nonzero;stroke:none;" d="M34.35 19.85 L34.35 21.8 L0 1.95 L0 0 L34.35 19.85 Z" transform="translate(450.85, 371.1)"/>
   <path style="fill:#000000; fill-rule:evenodd;stroke:none;" d="M11.232 9.528 L11.232 17.496 L13.464 17.496 L13.464 0 L11.232 0 L11.232 7.56 L2.232 7.56 L2.232 0 L0 0 L0 17.496 L2.256 17.496 L2.256 9.528 L11.232 9.528 Z" transform="translate(512.867, 344.129)"/>
   <path style="fill:#000000; fill-rule:evenodd;stroke:none;" d="M13.68 0 L11.568 0 L11.568 14.304 L2.424 0 L0 0 L0 17.497 L2.112 17.497 L2.112 3.313 L11.16 17.497 L13.68 17.497 L13.68 0 Z" transform="translate(512.699, 364.066)"/>
   <path style="fill:#0000ff; fill-rule:nonzero;stroke:none;" d="M23.6 0 L24.45 1.5 L0 15.6 L0 13.65 L23.6 0 Z" transform="translate(485.2, 377.3)"/>
   <path style="fill:#0000ff; fill-rule:evenodd;stroke:none;" d="M8.424 0 C3.408 0 0 3.696 0 9.168 C0 14.64 3.408 18.336 8.448 18.336 C10.56 18.336 12.456 17.688 13.872 16.488 C15.768 14.88 16.896 12.168 16.896 9.312 C16.896 3.672 13.56 0 8.424 0 Z M8.424 1.968 C12.216 1.968 14.664 4.848 14.664 9.264 C14.664 13.488 12.144 16.368 8.448 16.368 C4.728 16.368 2.232 13.488 2.232 9.168 C2.232 4.848 4.728 1.968 8.424 1.968 Z" transform="translate(476.662, 423.216)"/>
   <path style="fill:#0000ff; fill-rule:nonzero;stroke:none;" d="M1.7 31.1 L0 31.1 L0 0 L1.7 0 L1.7 31.1 Z" transform="translate(487.3, 390.2)"/>
   <path style="fill:#0000ff; fill-rule:nonzero;stroke:none;" d="M1.7 31.1 L0 31.1 L0 0 L1.7 0 L1.7 31.1 Z" transform="translate(481.35, 390.2)"/>
   <path style="fill:#000000; fill-rule:nonzero;stroke:none;" d="M24.6 13.7 L24.6 15.65 L0 1.45 L0.85 0 L24.6 13.7 Z" transform="translate(529.35, 377.25)"/>
   <path style="fill:#000000; fill-rule:nonzero;stroke:none;" d="M34.35 0 L34.35 1.95 L0 21.8 L0 19.85 L34.35 0 Z" transform="translate(553.95, 371.1)"/>
   <path style="fill:#000000; fill-rule:nonzero;stroke:none;" d="M34.35 19.85 L34.35 21.8 L0 1.95 L0 0 L34.35 19.85 Z" transform="translate(588.3, 371.1)"/>
   <path style="fill:#000000; fill-rule:nonzero;stroke:none;" d="M34.4 0 L34.4 1.95 L0 21.8 L0 19.85 L34.4 0 Z" transform="translate(622.65, 371.1)"/>
   <path style="fill:#000000; fill-rule:nonzero;stroke:none;" d="M34.35 19.85 L34.35 21.8 L0 1.95 L0 0 L34.35 19.85 Z" transform="translate(657.05, 371.1)"/>
   <path style="fill:#000000; fill-rule:nonzero;stroke:none;" d="M34.35 0 L34.35 1.95 L0 21.8 L0 19.85 L34.35 0 Z" transform="translate(691.4, 371.1)"/>
   <path style="fill:#000000; fill-rule:evenodd;stroke:none;" d="M13.679 0 L11.567 0 L11.567 14.304 L2.424 0 L0 0 L0 17.496 L2.111 17.496 L2.111 3.312 L11.16 17.496 L13.679 17.496 L13.679 0 Z" transform="translate(753.262, 383.879)"/>
   <path style="fill:#000000; fill-rule:evenodd;stroke:none;" d="M11.231 9.529 L11.231 17.497 L13.464 17.497 L13.464 0 L11.231 0 L11.231 7.561 L2.231 7.561 L2.231 0 L0 0 L0 17.497 L2.256 17.497 L2.256 9.529 L11.231 9.529 Z" transform="translate(753.43, 403.816)"/>
   <path style="fill:#000000; fill-rule:nonzero;stroke:none;" d="M24.5 14.1 L23.65 15.6 L0 1.95 L0 0 L24.5 14.1 Z" transform="translate(725.75, 371.1)"/>
   <path style="fill:#0000ff; fill-rule:nonzero;stroke:none;" d="M24.6 0 L24.6 1.95 L0.85 15.65 L0 14.2 L24.6 0 Z" transform="translate(769.9, 371.1)"/>
   <path style="fill:#000000; fill-rule:evenodd;stroke:none;" d="M13.679 0 L11.567 0 L11.567 14.304 L2.424 0 L0 0 L0 17.496 L2.111 17.496 L2.111 3.312 L11.16 17.496 L13.679 17.496 L13.679 0 Z" transform="translate(272.137, 383.879)"/>
   <path style="fill:#000000; fill-rule:evenodd;stroke:none;" d="M11.231 9.529 L11.231 17.497 L13.464 17.497 L13.464 0 L11.231 0 L11.231 7.561 L2.231 7.561 L2.231 0 L0 0 L0 17.497 L2.256 17.497 L2.256 9.529 L11.231 9.529 Z" transform="translate(272.305, 403.816)"/>
   <path style="fill:#0000ff; fill-rule:nonzero;stroke:none;" d="M0.85 15.65 L0 14.2 L24.6 0 L24.6 1.95 L0.85 15.65 Z" transform="translate(288.75, 371.1)"/>
   <path style="fill:none;stroke:#000000; stroke-width:1.7; stroke-linecap:butt; stroke-linejoin:miter; stroke-dasharray:none;" d="M0 0 L8.15 0 L8.15 130.5 L0 130.5 " transform="translate(769.35, 318.1)"/>
   <path style="fill:none;stroke:#000000; stroke-width:1.7; stroke-linecap:butt; stroke-linejoin:miter; stroke-dasharray:none;" d="M8.2 130.5 L0 130.5 L0 0 L8.2 0 " transform="translate(296.75, 318.1)"/>
   <path style="fill:none;stroke:#000000; stroke-width:1.35; stroke-linecap:butt; stroke-linejoin:miter; stroke-dasharray:none;" d="M0 81.1 L0 0 " transform="translate(524.7, 182.05)"/>
   <path style="fill:#000000; fill-rule:nonzero;stroke:none;" d="M6.45 25.55 L12.9 0 C12.9 0 9.25 3.2 6.45 3.2 C3.6 3.2 0 0 0 0 L6.45 25.55 L6.45 25.55 " transform="translate(518.25, 259.9)"/>
   <path style="fill:none;stroke:#000000; stroke-width:1.35; stroke-linecap:butt; stroke-linejoin:miter; stroke-dasharray:none;" d="M0 81.1 L0 0 " transform="translate(508.45, 151.3)"/>
   <path style="fill:#000000; fill-rule:nonzero;stroke:none;" d="M6.45 25.55 L12.9 0 C12.9 0 9.25 3.2 6.45 3.2 C3.6 3.2 0 0 0 0 L6.45 25.55 L6.45 25.55 " transform="translate(502, 229.15)"/>
   <path style="fill:#0000ff; fill-rule:nonzero;stroke:none;" d="M34.4 19.85 L34.4 21.8 L0 1.95 L0 0 L34.4 19.85 Z" transform="translate(794.5, 371.1)"/>
   <path style="fill:#0000ff; fill-rule:nonzero;stroke:none;" d="M34.35 0 L34.35 1.95 L0 21.8 L0 19.85 L34.35 0 Z" transform="translate(828.9, 371.1)"/>
   <path style="fill:#0000ff; fill-rule:nonzero;stroke:none;" d="M34.35 19.85 L34.35 21.8 L0 1.95 L0 0 L34.35 19.85 Z" transform="translate(863.25, 371.1)"/>
   <path style="fill:#0000ff; fill-rule:nonzero;stroke:none;" d="M34.4 0 L34.4 1.95 L0 21.8 L0 19.85 L34.4 0 Z" transform="translate(897.6, 371.1)"/>
   <path style="fill:#0000ff; fill-rule:nonzero;stroke:none;" d="M34.35 19.85 L34.35 21.8 L0 1.95 L0 0 L34.35 19.85 Z" transform="translate(932, 371.1)"/>
   <path style="fill:#000000; fill-rule:evenodd;stroke:none;" d="M8.423 0 C3.408 0 0 3.697 0 9.168 C0 14.641 3.408 18.336 8.453 18.336 C10.563 18.336 12.453 17.689 13.873 16.489 C15.763 14.88 16.893 12.168 16.893 9.313 C16.893 3.672 13.563 0 8.423 0 Z M8.423 1.968 C12.213 1.968 14.663 4.849 14.663 9.265 C14.663 13.489 12.143 16.368 8.453 16.368 C4.728 16.368 2.232 13.489 2.232 9.168 C2.232 4.849 4.728 1.968 8.423 1.968 Z" transform="translate(992.287, 363.778)"/>
   <path style="fill:#000000; fill-rule:evenodd;stroke:none;" d="M11.24 9.529 L11.24 17.497 L13.47 17.497 L13.47 0 L11.24 0 L11.24 7.561 L2.24 7.561 L2.24 0 L0 0 L0 17.497 L2.26 17.497 L2.26 9.529 L11.24 9.529 Z" transform="translate(1012.05, 364.066)"/>
   <path style="fill:#0000ff; fill-rule:nonzero;stroke:none;" d="M24.25 0 L25.1 1.45 L0 15.95 L0 14 L24.25 0 Z" transform="translate(966.35, 376.95)"/>
   <path style="fill:#000000; fill-rule:nonzero;stroke:none;" d="M0 1.95 L0 0 L24.5 14.1 L23.65 15.6 L0 1.95 Z" transform="translate(244.6, 371.1)"/>
   <path style="fill:#000000; fill-rule:nonzero;stroke:none;" d="M0 21.8 L0 19.85 L34.35 0 L34.35 1.95 L0 21.8 Z" transform="translate(210.25, 371.1)"/>
   <path style="fill:#000000; fill-rule:nonzero;stroke:none;" d="M0 1.95 L0 0 L34.35 19.85 L34.35 21.8 L0 1.95 Z" transform="translate(175.9, 371.1)"/>
   <path style="fill:#000000; fill-rule:nonzero;stroke:none;" d="M0 21.8 L0 19.85 L34.4 0 L34.4 1.95 L0 21.8 Z" transform="translate(141.5, 371.1)"/>
   <path style="fill:#000000; fill-rule:nonzero;stroke:none;" d="M0 1.95 L0 0 L34.35 19.85 L34.35 21.8 L0 1.95 Z" transform="translate(107.15, 371.1)"/>
   <path style="fill:#000000; fill-rule:nonzero;stroke:none;" d="M0 21.8 L0 19.85 L34.3502 0 L34.3502 1.95 L0 21.8 Z" transform="translate(72.7998, 371.1)"/>
   <path style="fill:#000000; fill-rule:evenodd;stroke:none;" d="M11.2314 9.529 L11.2314 17.497 L13.4639 17.497 L13.4639 0 L11.2314 0 L11.2314 7.561 L2.23144 7.561 L2.23144 0 L0 0 L0 17.497 L2.25586 17.497 L2.25586 9.529 L11.2314 9.529 Z" transform="translate(4.36719, 364.066)"/>
   <path style="fill:#000000; fill-rule:evenodd;stroke:none;" d="M8.4961 11.195 L1.7813 11.195 C1.9434 10.151 2.5195 9.485 4.0859 8.567 L5.8857 7.595 C7.668 6.624 8.5859 5.309 8.5859 3.744 C8.5859 2.681 8.1533 1.691 7.3975 1.008 C6.6416 0.324 5.7061 0 4.5 0 C2.8799 0 1.6738 0.576 0.9717 1.655 C0.5215 2.34 0.3232 3.132 0.2881 4.428 L1.8721 4.428 C1.9258 3.563 2.0342 3.042 2.25 2.628 C2.6641 1.853 3.4912 1.386 4.4453 1.386 C5.8857 1.386 6.9658 2.412 6.9658 3.779 C6.9658 4.788 6.3721 5.651 5.2373 6.3 L3.582 7.235 C0.918 8.748 0.1436 9.954 0 12.762 L8.4961 12.762 L8.4961 11.195 Z" transform="translate(20.2998, 373.301)"/>
   <path style="fill:#000000; fill-rule:evenodd;stroke:none;" d="M13.6797 0 L11.5674 0 L11.5674 14.304 L2.4238 0 L0 0 L0 17.497 L2.1113 17.497 L2.1113 3.313 L11.1602 17.497 L13.6797 17.497 L13.6797 0 Z" transform="translate(31.5742, 364.066)"/>
   <path style="fill:#000000; fill-rule:nonzero;stroke:none;" d="M0 1.5 L0.8496 0 L24.6494 13.75 L24.6494 15.7 L0 1.5 Z" transform="translate(48.1504, 377.2)"/>
   <path style="fill:#0000ff; fill-rule:evenodd;stroke:none;" d="M8.424 0 C3.408 0 0 3.696 0 9.168 C0 14.64 3.408 18.336 8.448 18.336 C10.56 18.336 12.456 17.688 13.872 16.488 C15.768 14.88 16.896 12.168 16.896 9.312 C16.896 3.672 13.56 0 8.424 0 Z M8.424 1.968 C12.216 1.968 14.664 4.848 14.664 9.264 C14.664 13.488 12.144 16.368 8.448 16.368 C4.728 16.368 2.232 13.488 2.232 9.168 C2.232 4.848 4.728 1.968 8.424 1.968 Z" transform="translate(786.162, 323.966)"/>
   <path style="fill:#0000ff; fill-rule:nonzero;stroke:none;" d="M0 0 L1.7 0 L1.7 29.45 L0 29.45 L0 0 Z" transform="translate(790.7, 344.35)"/>
   <path style="fill:#0000ff; fill-rule:nonzero;stroke:none;" d="M0 0 L1.7 0 L1.7 29.45 L0 29.45 L0 0 Z" transform="translate(796.65, 344.35)"/>
   <path style="fill:#0000ff; fill-rule:evenodd;stroke:none;" d="M8.424 0 C3.408 0 0 3.696 0 9.168 C0 14.64 3.408 18.336 8.448 18.336 C10.56 18.336 12.456 17.688 13.872 16.488 C15.768 14.88 16.896 12.168 16.896 9.312 C16.896 3.672 13.56 0 8.424 0 Z M8.424 1.968 C12.216 1.968 14.664 4.848 14.664 9.264 C14.664 13.488 12.144 16.368 8.448 16.368 C4.728 16.368 2.232 13.488 2.232 9.168 C2.232 4.848 4.728 1.968 8.424 1.968 Z" transform="translate(957.912, 423.216)"/>
   <path style="fill:#0000ff; fill-rule:nonzero;stroke:none;" d="M1.7 31.1 L0 31.1 L0 0 L1.7 0 L1.7 31.1 Z" transform="translate(968.5, 390.2)"/>
   <path style="fill:#0000ff; fill-rule:nonzero;stroke:none;" d="M1.7 31.1 L0 31.1 L0 0 L1.7 0 L1.7 31.1 Z" transform="translate(962.5, 390.2)"/>
  </g>
 </g>
</svg>
