<?xml version="1.0" standalone="no"?>
<!DOCTYPE svg PUBLIC "-//W3C//DTD SVG 20010904//EN"
 "http://www.w3.org/TR/2001/REC-SVG-20010904/DTD/svg10.dtd">
<svg version="1.0" xmlns="http://www.w3.org/2000/svg"
 width="5157.000000pt" height="840.985416pt" viewBox="0 0 5157.000000 840.985416"
 preserveAspectRatio="xMidYMid meet">
<metadata>
Created by Potrace Professional 1.1m
</metadata>
<g transform="translate(-144.000000,911.000000) rotate(-360.00) scale(0.095238,-0.095238)"
fill="#000000" stroke="none">
<path d="M40947 9559 c-4 -4 -7 -16 -7 -26 0 -19 28 -30 80 -30 30 0 67 -22
67 -41 0 -10 -173 -758 -194 -840 -29 -110 -59 -179 -83 -193 -12 -7 -44 -15
-70 -18 -42 -5 -48 -9 -51 -35 l-3 -28 211 0 c222 0 211 -3 215 44 0 8 -20 16
-55 20 -117 14 -118 3 30 647 43 186 81 339 85 339 4 0 14 -18 23 -40 9 -22
116 -257 237 -522 l221 -483 63 -3 c35 -2 64 -1 64 2 0 14 212 939 227 993 22
75 51 133 74 145 10 6 41 13 69 17 44 6 50 10 50 33 l0 26 -209 0 c-207 0
-209 -1 -215 -24 -3 -12 -5 -24 -3 -26 2 -2 31 -8 65 -14 33 -5 65 -16 69 -23
14 -21 10 -90 -11 -192 -40 -200 -153 -687 -159 -687 -4 0 -14 16 -22 36 -8
19 -106 237 -219 483 l-204 447 -169 0 c-93 0 -173 -4 -176 -7z"/>
<path d="M51362 9559 c-3 -4 -6 -16 -6 -26 0 -19 28 -30 80 -30 30 0 67 -22
67 -41 0 -10 -173 -758 -194 -840 -29 -110 -59 -179 -83 -193 -12 -7 -44 -15
-70 -18 -42 -5 -48 -9 -51 -35 l-3 -28 211 0 c222 0 211 -3 215 44 0 8 -20 16
-55 20 -117 14 -118 3 30 647 43 186 81 339 85 339 4 0 14 -18 23 -40 9 -22
116 -257 237 -522 l221 -483 63 -3 c35 -2 64 -1 64 2 0 14 212 939 227 993 22
75 51 133 74 145 10 6 41 13 69 17 44 6 50 10 50 33 l0 26 -209 0 c-207 0
-209 -1 -215 -24 -3 -12 -5 -24 -3 -26 2 -2 31 -8 65 -14 33 -5 65 -16 69 -23
14 -21 10 -90 -11 -192 -40 -200 -153 -687 -159 -687 -4 0 -14 16 -22 36 -8
19 -106 237 -219 483 l-204 447 -169 0 c-93 0 -173 -4 -177 -7z"/>
<path d="M3888 9538 c-99 -36 -189 -153 -228 -296 -24 -88 -35 -269 -25 -415
23 -336 168 -504 419 -487 46 3 100 14 128 26 101 45 177 157 215 317 27 116
26 426 -2 536 -38 152 -100 247 -197 299 -50 28 -67 31 -161 34 -74 2 -118 -2
-149 -14z m217 -75 c45 -32 93 -143 111 -254 20 -131 20 -400 0 -518 -34 -195
-92 -280 -190 -280 -123 0 -190 142 -209 446 -7 111 8 331 28 413 17 69 48
139 75 168 50 55 129 66 185 25z"/>
<path d="M14319 9515 c-155 -26 -156 -26 -152 -53 3 -26 7 -28 87 -38 46 -6
90 -15 97 -19 10 -7 13 -114 13 -479 0 -359 -3 -474 -13 -487 -10 -14 -36 -20
-100 -25 l-86 -7 0 -30 0 -29 288 0 289 0 0 31 c0 31 -2 32 -50 32 -65 0 -129
15 -140 33 -5 8 -9 258 -9 557 l0 544 -35 -2 c-18 0 -104 -13 -189 -28z"/>
<path d="M24696 9525 c-146 -48 -241 -164 -205 -250 22 -51 111 -75 133 -35 5
9 19 43 31 77 27 76 70 125 127 148 144 58 251 -81 218 -284 -21 -134 -45
-169 -250 -371 -102 -102 -205 -214 -229 -250 -48 -72 -92 -176 -83 -198 4
-12 76 -14 377 -14 l372 0 23 85 c38 140 39 152 8 158 -22 4 -29 -1 -43 -29
-32 -69 -47 -72 -318 -76 -135 -2 -245 0 -245 5 0 5 15 34 32 64 44 77 140
171 290 284 157 118 198 159 233 233 24 49 28 72 28 152 -1 150 -51 238 -168
291 -73 32 -247 38 -331 10z"/>
<path d="M44216 9525 c-147 -48 -241 -164 -205 -250 21 -51 110 -75 133 -35 4
9 18 43 31 77 27 76 69 125 126 148 144 58 251 -81 219 -284 -21 -134 -45
-169 -250 -371 -102 -102 -206 -214 -230 -250 -48 -72 -91 -176 -83 -198 5
-12 77 -14 378 -14 l372 0 23 85 c38 140 38 152 8 158 -22 4 -30 -1 -43 -29
-33 -69 -47 -72 -319 -76 -134 -2 -244 0 -244 5 0 5 14 34 31 64 45 77 141
171 291 284 157 118 198 159 233 233 23 49 27 72 27 152 0 150 -51 238 -168
291 -73 32 -247 38 -330 10z"/>
<path d="M54670 9515 c-155 -26 -155 -26 -152 -53 3 -26 8 -28 87 -38 46 -6
90 -15 97 -19 11 -7 14 -114 14 -479 0 -359 -4 -474 -14 -487 -9 -14 -35 -20
-99 -25 l-87 -7 0 -30 0 -29 289 0 289 0 0 31 c0 31 -2 32 -50 32 -65 0 -130
15 -141 33 -5 8 -9 258 -9 557 l0 544 -34 -2 c-19 0 -104 -13 -190 -28z"/>
<path d="M42557 8846 l0 -58 485 3 486 3 0 52 0 53 -486 2 -485 3 0 -58z"/>
<path d="M52973 8846 l0 -58 485 3 486 3 0 52 0 53 -486 2 -485 3 0 -58z"/>
<path d="M1512 5276 l0 -2514 2515 0 2515 0 0 2514 0 2515 -2515 0 -2515 0 0
-2515z m4964 -2 l-3 -2444 -2444 -3 -2443 -3 0 2447 0 2447 2446 0 2447 0 -3
-2444z"/>
<path d="M11928 5276 l0 -2514 2520 0 2520 0 0 2514 0 2515 -2520 0 -2520 0 0
-2515z m4964 -2 l-3 -2444 -2441 0 -2441 0 -3 2444 -3 2444 2447 0 2447 0 -3
-2444z"/>
<path d="M22351 7784 c-4 -4 -7 -1135 -7 -2515 l0 -2507 2520 0 2520 0 0 2514
0 2515 -2513 0 c-1382 0 -2516 -3 -2520 -7z m4960 -2513 l0 -2447 -2444 3
-2444 3 -3 2444 -3 2444 2447 0 2447 0 0 -2447z"/>
<path d="M40205 5276 l0 -2514 2520 0 2520 0 -3 2512 -3 2512 -2517 2 -2517 3
0 -2515z m4963 -2 l-2 -2444 -2444 -3 -2444 -3 0 2447 0 2447 2447 0 2446 0
-3 -2444z"/>
<path d="M50627 7784 c-3 -4 -6 -1135 -6 -2515 l0 -2507 2520 0 2520 0 0 2514
0 2515 -2514 0 c-1382 0 -2516 -3 -2520 -7z m4960 -2513 l0 -2447 -2444 3
-2444 3 -2 2444 -3 2444 2446 0 2447 0 0 -2447z"/>
<path d="M31216 5645 c-105 -28 -192 -102 -248 -208 -27 -50 -30 -66 -30 -161
0 -94 3 -111 30 -165 38 -77 106 -145 183 -183 54 -27 71 -30 165 -30 95 0
111 3 166 31 74 37 147 114 182 189 97 212 -26 467 -253 525 -74 19 -129 20
-195 2z"/>
<path d="M33679 5639 c-278 -92 -358 -441 -146 -641 85 -81 135 -100 261 -100
93 0 112 4 163 29 75 36 150 112 187 186 25 51 28 71 28 158 0 92 -3 106 -34
170 -84 170 -283 256 -459 198z"/>
<path d="M36173 5644 c-286 -79 -377 -452 -158 -649 87 -78 135 -96 257 -97
92 0 113 4 165 28 76 36 149 109 185 185 25 53 28 73 28 165 0 95 -3 111 -31
166 -82 163 -273 249 -446 202z"/>
<path d="M43187 2196 c-147 -48 -241 -164 -205 -250 21 -51 110 -75 133 -35 4
9 18 43 31 77 27 76 69 125 126 148 144 58 251 -81 219 -284 -21 -134 -45
-169 -250 -371 -102 -102 -206 -214 -230 -250 -48 -72 -91 -176 -83 -198 5
-12 77 -14 378 -14 l372 -1 23 86 c38 140 38 152 8 158 -22 4 -30 -1 -43 -29
-33 -69 -47 -72 -319 -76 -134 -2 -244 0 -244 5 0 5 14 34 31 64 45 77 141
171 291 284 157 118 198 159 233 233 23 49 27 72 27 152 0 150 -51 238 -168
291 -73 32 -247 38 -330 10z"/>
<path d="M53641 2186 c-155 -26 -155 -26 -152 -53 3 -26 8 -28 87 -38 46 -6
90 -15 97 -19 11 -7 14 -114 14 -479 0 -359 -4 -474 -14 -487 -9 -14 -35 -20
-99 -25 l-87 -7 0 -30 0 -29 289 0 289 0 0 31 c0 31 -2 32 -50 32 -65 0 -130
15 -141 33 -5 8 -9 258 -9 557 l0 544 -34 -2 c-19 0 -104 -13 -190 -28z"/>
<path d="M4218 2177 c-4 -4 -7 -15 -7 -25 0 -20 28 -31 80 -31 30 0 67 -22 67
-40 0 -10 -173 -759 -194 -841 -29 -110 -59 -179 -83 -192 -12 -7 -44 -15 -70
-19 -42 -5 -48 -8 -51 -34 l-3 -29 211 0 c222 0 211 -2 215 45 0 8 -20 15 -55
20 -117 14 -118 3 30 646 43 187 81 339 85 339 4 0 14 -18 23 -39 9 -22 116
-257 237 -523 l221 -483 63 -3 c35 -2 64 0 64 3 0 13 212 939 227 993 22 75
51 133 74 145 10 5 41 13 69 17 44 6 50 10 50 32 l0 26 -209 0 c-207 0 -209 0
-215 -23 -3 -13 -5 -25 -3 -27 2 -2 31 -8 65 -13 33 -6 65 -16 69 -23 14 -22
10 -90 -11 -192 -40 -201 -153 -688 -159 -688 -4 0 -14 16 -22 36 -8 20 -106
237 -219 483 l-204 447 -169 0 c-93 0 -173 -3 -176 -7z"/>
<path d="M12818 2163 c-80 -24 -162 -103 -208 -203 -122 -260 -122 -751 0
-1011 55 -120 150 -199 251 -211 50 -5 54 -4 54 16 0 15 -13 29 -39 43 -147
76 -223 300 -223 657 0 364 73 580 223 658 52 26 55 62 5 61 -19 -1 -47 -5
-63 -10z"/>
<path d="M13300 2167 c-4 -4 -7 -16 -7 -26 0 -19 29 -30 81 -30 30 0 66 -22
66 -41 0 -10 -173 -758 -194 -840 -28 -110 -58 -179 -82 -193 -13 -7 -45 -15
-70 -18 -43 -5 -48 -9 -51 -35 l-3 -29 210 1 c222 0 211 -3 215 44 1 8 -19 16
-54 20 -118 14 -118 3 29 647 43 186 81 339 85 339 4 0 15 -18 23 -40 9 -22
116 -257 238 -522 l220 -483 64 -3 c35 -2 63 -1 63 2 0 14 212 939 228 993 21
75 51 133 74 145 10 6 41 13 68 17 44 6 50 10 50 33 l0 26 -209 0 c-206 0
-209 -1 -215 -24 -3 -12 -4 -24 -2 -26 2 -2 31 -8 64 -14 34 -5 65 -16 70 -23
13 -21 9 -90 -11 -192 -40 -200 -154 -687 -160 -687 -4 0 -13 16 -21 36 -8 19
-107 237 -219 483 l-204 447 -170 0 c-93 0 -172 -4 -176 -7z"/>
<path d="M17241 2148 c0 -18 7 -27 27 -31 42 -11 119 -96 151 -167 104 -233
111 -692 15 -951 -33 -91 -92 -168 -148 -195 -33 -16 -44 -28 -45 -47 0 -23 3
-24 45 -20 145 17 251 141 308 363 47 182 47 536 -1 722 -23 85 -72 188 -116
242 -42 52 -148 110 -201 110 -30 0 -35 -4 -35 -26z"/>
<path d="M23234 2163 c-80 -24 -162 -103 -208 -203 -122 -260 -122 -751 0
-1011 55 -120 150 -199 251 -211 50 -5 54 -4 54 16 0 15 -13 29 -39 43 -147
76 -223 300 -223 657 0 364 73 580 223 658 52 26 55 62 5 61 -19 -1 -47 -5
-63 -10z"/>
<path d="M23716 2167 c-4 -4 -7 -16 -7 -26 0 -19 29 -30 81 -30 30 0 66 -22
66 -41 0 -10 -173 -758 -194 -840 -28 -110 -58 -179 -82 -193 -13 -7 -45 -15
-70 -18 -43 -5 -48 -9 -51 -35 l-3 -29 210 1 c222 0 211 -3 215 44 1 8 -19 16
-54 20 -118 14 -118 3 29 647 43 186 81 339 85 339 4 0 15 -18 23 -40 9 -22
116 -257 238 -522 l220 -483 64 -3 c35 -2 63 -1 63 2 0 14 212 939 228 993 21
75 51 133 74 145 10 6 41 13 68 17 44 6 50 10 50 33 l0 26 -209 0 c-206 0
-209 -1 -215 -24 -3 -12 -4 -24 -2 -26 2 -2 31 -8 64 -14 34 -5 65 -16 70 -23
13 -21 9 -90 -11 -192 -40 -200 -154 -687 -160 -687 -4 0 -13 16 -21 36 -8 19
-107 237 -219 483 l-204 447 -170 0 c-93 0 -172 -4 -176 -7z"/>
<path d="M27657 2148 c0 -18 7 -27 27 -31 42 -11 119 -96 151 -167 104 -233
111 -692 15 -951 -33 -91 -92 -168 -148 -195 -33 -16 -44 -28 -45 -47 0 -23 3
-24 45 -20 145 17 251 141 308 363 47 182 47 536 -1 722 -23 85 -72 188 -116
242 -42 52 -148 110 -201 110 -30 0 -35 -4 -35 -26z"/>
<path d="M16608 2123 c-155 -26 -156 -26 -152 -53 3 -26 7 -28 87 -38 46 -6
90 -15 97 -19 10 -7 13 -114 13 -479 0 -359 -3 -474 -13 -487 -10 -14 -36 -20
-100 -25 l-86 -7 0 -30 0 -29 288 0 289 0 0 31 c0 31 -2 32 -50 32 -65 0 -129
15 -140 33 -5 8 -9 258 -9 557 l0 544 -35 -2 c-18 0 -104 -13 -189 -28z"/>
<path d="M26985 2133 c-146 -48 -241 -164 -205 -250 22 -51 111 -75 133 -35 5
9 19 43 31 77 27 76 70 125 127 148 144 58 251 -81 218 -284 -21 -134 -45
-169 -250 -371 -102 -102 -205 -214 -229 -250 -48 -72 -92 -176 -83 -198 4
-12 76 -14 377 -14 l372 -1 23 86 c38 140 39 152 8 158 -22 4 -29 -1 -43 -29
-32 -69 -47 -72 -318 -76 -135 -2 -245 0 -245 5 0 5 15 34 32 64 44 77 140
171 290 284 157 118 198 159 233 233 24 49 28 72 28 152 -1 150 -51 238 -168
291 -73 32 -247 38 -331 10z"/>
<path d="M41769 1517 l0 -58 486 3 485 3 0 52 0 53 -485 2 -486 3 0 -58z"/>
<path d="M52185 1517 l0 -58 486 3 485 3 0 52 0 53 -485 2 -486 3 0 -58z"/>
<path d="M2751 1465 l0 -58 486 3 485 2 0 53 0 52 -485 3 -486 3 0 -58z"/>
<path d="M11225 1454 l0 -58 485 3 486 3 0 52 0 53 -486 2 -485 3 0 -58z"/>
<path d="M14910 1454 l0 -58 486 3 485 3 0 52 0 53 -485 2 -486 3 0 -58z"/>
<path d="M21641 1454 l0 -58 485 3 486 3 0 52 0 53 -486 2 -485 3 0 -58z"/>
<path d="M25326 1454 l0 -58 486 3 485 3 0 52 0 53 -485 2 -486 3 0 -58z"/>
</g>
</svg>
