<?xml version="1.0" standalone="no"?>
<!DOCTYPE svg PUBLIC "-//W3C//DTD SVG 1.1//EN"
"http://www.w3.org/Graphics/SVG/1.1/DTD/svg11.dtd">

<svg width="382" height="228" view_box="0 0 382 228"
xmlns="http://www.w3.org/2000/svg"
xmlns:link="http://www.w3.org/1999/xlink">\n\n<desc>Généré par Mocodo 2.3.7 le Mon, 01 Feb 2021 19:25:10</desc>

<rect id="frame" x="0" y="0" width="382" height="228" fill="#f5f5f5" stroke="none" stroke-width="0"/>

<!-- Association Traite -->
<line x1="333" y1="51" x2="333" y2="160" stroke="#35978f" stroke-width="2"/>
<text x="338.0" y="102" fill="#8c510a" font-family="Verdana" font-size="12">0,*</text>
<line x1="206" y1="160" x2="333" y2="160" stroke="#35978f" stroke-width="2"/>
<text x="261" y="177.0" fill="#8c510a" font-family="Verdana" font-size="12">1,1</text>
<g id="association-Traite">
	<path d="M 344 135 a 14 14 90 0 1 14 14 V 160 h -50 V 149 a 14 14 90 0 1 14 -14" fill="#80cdc1" stroke="#80cdc1" stroke-width="0"/>
	<path d="M 358 160.0 v 11 a 14 14 90 0 1 -14 14 H 322 a 14 14 90 0 1 -14 -14 V 160.0 H 50" fill="#c7eae5" stroke="#c7eae5" stroke-width="0"/>
	<rect x="308" y="135" width="50" height="50" fill="none" rx="14" stroke="#35978f" stroke-width="2"/>
	<line x1="308" y1="160" x2="358" y2="160" stroke="#35978f" stroke-width="1"/>
	<text x="315" y="152.7" fill="#000000" font-family="Verdana" font-size="12">Traite</text>
</g>

<!-- Association Anime -->
<line x1="64" y1="51" x2="64" y2="160" stroke="#35978f" stroke-width="2"/>
<text x="69.0" y="110" fill="#8c510a" font-family="Verdana" font-size="12">0,*</text>
<line x1="206" y1="160" x2="64" y2="160" stroke="#35978f" stroke-width="2"/>
<text x="130" y="177.0" fill="#8c510a" font-family="Verdana" font-size="12">1,*</text>
<g id="association-Anime">
	<path d="M 93 126 a 14 14 90 0 1 14 14 V 151 h -86 V 140 a 14 14 90 0 1 14 -14" fill="#80cdc1" stroke="#80cdc1" stroke-width="0"/>
	<path d="M 107 151.0 v 29 a 14 14 90 0 1 -14 14 H 35 a 14 14 90 0 1 -14 -14 V 151.0 H 86" fill="#c7eae5" stroke="#c7eae5" stroke-width="0"/>
	<rect x="21" y="126" width="86" height="68" fill="none" rx="14" stroke="#35978f" stroke-width="2"/>
	<line x1="21" y1="151" x2="107" y2="151" stroke="#35978f" stroke-width="1"/>
	<text x="44" y="143.7" fill="#000000" font-family="Verdana" font-size="12">Anime</text>
	<text x="28" y="168.8" fill="#000000" font-family="Verdana" font-size="12">Salaire</text>
	<text x="28" y="185.8" fill="#000000" font-family="Verdana" font-size="12">NbreHeures</text>
</g>

<!-- Association Est responsable -->
<line x1="64" y1="51" x2="206" y2="51" stroke="#35978f" stroke-width="2"/>
<text x="124" y="68.0" fill="#8c510a" font-family="Verdana" font-size="12">0,*</text>
<line x1="206" y1="160" x2="206" y2="51" stroke="#35978f" stroke-width="2"/>
<text x="211.0" y="93" fill="#8c510a" font-family="Verdana" font-size="12">1,1</text>
<g id="association-Est responsable">
	<path d="M 247 26 a 14 14 90 0 1 14 14 V 51 h -110 V 40 a 14 14 90 0 1 14 -14" fill="#80cdc1" stroke="#80cdc1" stroke-width="0"/>
	<path d="M 261 51.0 v 11 a 14 14 90 0 1 -14 14 H 165 a 14 14 90 0 1 -14 -14 V 51.0 H 110" fill="#c7eae5" stroke="#c7eae5" stroke-width="0"/>
	<rect x="151" y="26" width="110" height="50" fill="none" rx="14" stroke="#35978f" stroke-width="2"/>
	<line x1="151" y1="51" x2="261" y2="51" stroke="#35978f" stroke-width="1"/>
	<text x="158" y="43.7" fill="#000000" font-family="Verdana" font-size="12">Est responsable</text>
	<text x="158" y="68.8" fill="#000000" font-family="Verdana" font-size="12">Prime</text>
</g>

<!-- Entity Séminaire -->
<g id="entity-Séminaire">
	<g id="frame-Séminaire">
		<rect x="156" y="101" width="100" height="25" fill="#dfc27d" stroke="#dfc27d" stroke-width="0"/>
		<rect x="156" y="126.0" width="100" height="93" fill="#f6e8c3" stroke="#f6e8c3" stroke-width="0"/>
		<rect x="156" y="101" width="100" height="118" fill="none" stroke="#bf812d" stroke-width="2"/>
		<line x1="156" y1="126" x2="256" y2="126" stroke="#bf812d" stroke-width="1"/>
	</g>
	<text x="175" y="118.7" fill="#000000" font-family="Verdana" font-size="12">Séminaire</text>
	<text x="161" y="143.7" fill="#000000" font-family="Verdana" font-size="12">numSéminaire</text>
	<line x1="161" y1="146" x2="250" y2="146" stroke="#000000" stroke-width="1"/>
	<text x="161" y="160.8" fill="#000000" font-family="Verdana" font-size="12">date</text>
	<text x="161" y="177.8" fill="#000000" font-family="Verdana" font-size="12">nbreJours</text>
	<text x="161" y="194.8" fill="#000000" font-family="Verdana" font-size="12">nbreInscrits</text>
	<text x="161" y="211.8" fill="#000000" font-family="Verdana" font-size="12">prix</text>
</g>

<!-- Entity Intervenant -->
<g id="entity-Intervenant">
	<g id="frame-Intervenant">
		<rect x="9" y="9" width="110" height="25" fill="#dfc27d" stroke="#dfc27d" stroke-width="0"/>
		<rect x="9" y="34.0" width="110" height="59" fill="#f6e8c3" stroke="#f6e8c3" stroke-width="0"/>
		<rect x="9" y="9" width="110" height="84" fill="none" stroke="#bf812d" stroke-width="2"/>
		<line x1="9" y1="34" x2="119" y2="34" stroke="#bf812d" stroke-width="1"/>
	</g>
	<text x="28" y="26.7" fill="#000000" font-family="Verdana" font-size="12">Intervenant</text>
	<text x="14" y="51.8" fill="#000000" font-family="Verdana" font-size="12">numIntervenant</text>
	<line x1="14" y1="54" x2="113" y2="54" stroke="#000000" stroke-width="1"/>
	<text x="14" y="68.8" fill="#000000" font-family="Verdana" font-size="12">nom</text>
	<text x="14" y="85.8" fill="#000000" font-family="Verdana" font-size="12">prénom</text>
</g>

<!-- Entity Thème -->
<g id="entity-Thème">
	<g id="frame-Thème">
		<rect x="293" y="17" width="80" height="25" fill="#dfc27d" stroke="#dfc27d" stroke-width="0"/>
		<rect x="293" y="42.0" width="80" height="43" fill="#f6e8c3" stroke="#f6e8c3" stroke-width="0"/>
		<rect x="293" y="17" width="80" height="68" fill="none" stroke="#bf812d" stroke-width="2"/>
		<line x1="293" y1="42" x2="373" y2="42" stroke="#bf812d" stroke-width="1"/>
	</g>
	<text x="312" y="34.7" fill="#000000" font-family="Verdana" font-size="12">Thème</text>
	<text x="298" y="59.8" fill="#000000" font-family="Verdana" font-size="12">numThème</text>
	<line x1="298" y1="62" x2="367" y2="62" stroke="#000000" stroke-width="1"/>
	<text x="298" y="76.8" fill="#000000" font-family="Verdana" font-size="12">Libellé</text>
</g>
</svg>