<?xml version="1.0" encoding="UTF-8" standalone="no"?>
<svg
   xmlns:dc="http://purl.org/dc/elements/1.1/"
   xmlns:cc="http://creativecommons.org/ns#"
   xmlns:rdf="http://www.w3.org/1999/02/22-rdf-syntax-ns#"
   xmlns:svg="http://www.w3.org/2000/svg"
   xmlns="http://www.w3.org/2000/svg"
   xmlns:sodipodi="http://sodipodi.sourceforge.net/DTD/sodipodi-0.dtd"
   xmlns:inkscape="http://www.inkscape.org/namespaces/inkscape"
   width="210mm"
   height="297mm"
   viewBox="0 0 210 297"
   version="1.1"
   id="svg8"
   inkscape:version="1.0beta1 (32d4812, 2019-09-19)"
   sodipodi:docname="break-continue-autonome.svg">
  <defs
     id="defs2">
    <rect
       x="8.8078911"
       y="247.1599"
       width="98.489875"
       height="81.822358"
       id="rect926" />
    <clipPath
       id="clipPath28"
       clipPathUnits="userSpaceOnUse">
      <path
         inkscape:connector-curvature="0"
         id="path26"
         d="M 0,0 H 595.276 V 841.89 H 0 Z" />
    </clipPath>
    <clipPath
       id="clipPath274"
       clipPathUnits="userSpaceOnUse">
      <path
         inkscape:connector-curvature="0"
         id="path272"
         d="m 35.433,76.747 v 92.5065 H 559.8492 V 76.747 Z" />
    </clipPath>
    <clipPath
       id="clipPath280"
       clipPathUnits="userSpaceOnUse">
      <path
         inkscape:connector-curvature="0"
         id="path278"
         d="m 35.8315,76.747 v 85.0213 c 0,3.9139 3.17277,7.0867 7.08668,7.0867 H 552.364 c 3.9139,0 7.0867,-3.1728 7.0867,-7.0867 V 76.747" />
    </clipPath>
    <clipPath
       id="clipPath286"
       clipPathUnits="userSpaceOnUse">
      <path
         inkscape:connector-curvature="0"
         id="path284"
         d="M 0,0 H 595.276 V 841.89 H 0 Z" />
    </clipPath>
    <clipPath
       id="clipPath296"
       clipPathUnits="userSpaceOnUse">
      <path
         inkscape:connector-curvature="0"
         id="path294"
         d="m 35.433,76.747 v 92.5065 H 559.8492 V 76.747 Z" />
    </clipPath>
    <clipPath
       id="clipPath302"
       clipPathUnits="userSpaceOnUse">
      <path
         inkscape:connector-curvature="0"
         id="path300"
         d="M 0,0 H 595.276 V 841.89 H 0 Z" />
    </clipPath>
    <clipPath
       id="clipPath314"
       clipPathUnits="userSpaceOnUse">
      <path
         inkscape:connector-curvature="0"
         id="path312"
         d="M 0,0 H 595.276 V 841.89 H 0 Z" />
    </clipPath>
    <clipPath
       id="clipPath532"
       clipPathUnits="userSpaceOnUse">
      <path
         inkscape:connector-curvature="0"
         id="path530"
         d="M 38.223,164.9269 H 54.15953 V 147.588 H 38.223 Z" />
    </clipPath>
    <clipPath
       id="clipPath538"
       clipPathUnits="userSpaceOnUse">
      <path
         inkscape:connector-curvature="0"
         id="path536"
         d="M 0,0 H 595.276 V 841.89 H 0 Z" />
    </clipPath>
    <clipPath
       id="clipPath600"
       clipPathUnits="userSpaceOnUse">
      <path
         inkscape:connector-curvature="0"
         id="path598"
         d="M 0,0 H 595.276 V 841.89 H 0 Z" />
    </clipPath>
  </defs>
  <sodipodi:namedview
     id="base"
     pagecolor="#ffffff"
     bordercolor="#666666"
     borderopacity="1.0"
     inkscape:pageopacity="0.0"
     inkscape:pageshadow="2"
     inkscape:zoom="0.49497475"
     inkscape:cx="318.17764"
     inkscape:cy="651.92388"
     inkscape:document-units="mm"
     inkscape:current-layer="g18"
     inkscape:document-rotation="0"
     showgrid="false"
     inkscape:window-width="1256"
     inkscape:window-height="839"
     inkscape:window-x="31"
     inkscape:window-y="23"
     inkscape:window-maximized="0" />
  <metadata
     id="metadata5">
    <rdf:RDF>
      <cc:Work
         rdf:about="">
        <dc:format>image/svg+xml</dc:format>
        <dc:type
           rdf:resource="http://purl.org/dc/dcmitype/StillImage" />
        <dc:title />
      </cc:Work>
    </rdf:RDF>
  </metadata>
  <g
     inkscape:label="Calque 1"
     inkscape:groupmode="layer"
     id="layer1">
    <g
       transform="matrix(0.35277777,0,0,-0.35277777,37.51774,295.66275)"
       inkscape:label="break-continue-autonome"
       id="g18">
      <g
         id="g20" />
      <g
         transform="matrix(1.1187383,0,0,1.1187383,-49.83754,-4.6955375)"
         id="g22">
        <g
           clip-path="url(#clipPath28)"
           id="g24">
          <g
             transform="matrix(1.3959707,0,0,1.3959707,241.09876,708.57979)"
             id="g38">
            <path
               inkscape:connector-curvature="0"
               id="path40"
               style="fill:#cedbe3;fill-opacity:1;fill-rule:nonzero;stroke:#0c4c74;stroke-width:0.3985;stroke-linecap:butt;stroke-linejoin:miter;stroke-miterlimit:10;stroke-dasharray:none;stroke-opacity:1"
               d="m 70.28085,-166.682 h -140.5617 c -2.20095,0 -3.98511,-1.7841 -3.98511,-3.9851 v -151.9011 c 0,-2.201 1.78416,-3.9851 3.98511,-3.9851 h 140.5617 c 2.20095,0 3.98511,1.7841 3.98511,3.9851 v 151.9011 c 0,2.201 -1.78416,3.9851 -3.98511,3.9851 z" />
          </g>
          <g
             transform="matrix(1.3959707,0,0,1.3959707,241.09876,708.57979)"
             id="g42">
            <path
               inkscape:connector-curvature="0"
               id="path44"
               style="fill:#edcccc;fill-opacity:1;fill-rule:nonzero;stroke:#a70002;stroke-width:0.3985;stroke-linecap:butt;stroke-linejoin:miter;stroke-miterlimit:10;stroke-dasharray:none;stroke-opacity:1"
               d="m 38.53511,14.17339 h -77.07022 c -2.20094,0 -3.98511,-1.78417 -3.98511,-3.98511 v -20.37656 c 0,-2.20094 1.78417,-3.98511 3.98511,-3.98511 h 77.07022 c 2.20094,0 3.98511,1.78417 3.98511,3.98511 v 20.37656 c 0,2.20094 -1.78417,3.98511 -3.98511,3.98511 z" />
          </g>
          <g
             id="g46"
             transform="matrix(1.3959707,0,0,1.3959707,-161.48942,-381.59097)">
            <text
               id="text50"
               style="font-variant:normal;font-weight:normal;font-size:10.0364px;font-family:Utopia;-inkscape-font-specification:Utopia-Regular;writing-mode:lr-tb;fill:#000000;fill-opacity:1;fill-rule:nonzero;stroke:none"
               transform="matrix(1,0,0,-1,274.135,777.227)"><tspan
                 id="tspan48"
                 sodipodi:role="line"
                 y="0"
                 x="0 7.8183165 12.977 18.978739 25.060766">Début</tspan></text>
          </g>
          <g
             transform="matrix(1.3959707,0,0,1.3959707,241.09876,708.57979)"
             id="g52">
            <path
               inkscape:connector-curvature="0"
               id="path54"
               style="fill:#e5e5e5;fill-opacity:1;fill-rule:nonzero;stroke:#000000;stroke-width:0.3985;stroke-linecap:butt;stroke-linejoin:miter;stroke-miterlimit:10;stroke-dasharray:none;stroke-opacity:1"
               d="m -59.89331,-77.02089 h 119.7866 v 40.65453 h -119.7866 z" />
          </g>
          <g
             id="g56"
             transform="matrix(1.3959707,0,0,1.3959707,-161.48942,-381.59097)">
            <text
               id="text60"
               style="font-variant:normal;font-weight:normal;font-size:10.2371px;font-family:Utopia;-inkscape-font-specification:Utopia-Regular;writing-mode:lr-tb;fill:#000000;fill-opacity:1;fill-rule:nonzero;stroke:none"
               transform="matrix(1,0,0,-0.98039187,245.761,734.274)"><tspan
                 id="tspan58"
                 sodipodi:role="line"
                 y="0"
                 x="0 3.572741 9.9094934 14.37286 17.884178 21.866404 28.070074 33.147667 36.66922 39.648212 45.555004 51.891758 59.538857 64.892853 70.062576 75.416565 81.753319">Instructionsavant</tspan></text>
          </g>
          <g
             id="g62"
             transform="matrix(1.3959707,0,0,1.3959707,-161.48942,-381.59097)">
            <text
               id="text66"
               style="font-variant:normal;font-weight:normal;font-size:10.2371px;font-family:Utopia;-inkscape-font-specification:Utopia-Regular;writing-mode:lr-tb;fill:#000000;fill-opacity:1;fill-rule:nonzero;stroke:none"
               transform="matrix(1,0,0,-0.98039187,248.406,720.725)"><tspan
                 id="tspan64"
                 sodipodi:role="line"
                 y="0"
                 x="0 2.8561454 11.404107 15.867474 19.38903 23.371254 29.574924 34.652515 38.174072 44.377743 48.359966 56.826031 59.805023 63.326576 68.588432 72.570663 77.924652">lastructureitéra-</tspan></text>
          </g>
          <g
             id="g68"
             transform="matrix(1.3959707,0,0,1.3959707,-161.48942,-381.59097)">
            <text
               id="text72"
               style="font-variant:normal;font-weight:normal;font-size:10.2371px;font-family:Utopia;-inkscape-font-specification:Utopia-Regular;writing-mode:lr-tb;fill:#000000;fill-opacity:1;fill-rule:nonzero;stroke:none"
               transform="matrix(1,0,0,-0.98039187,244.465,707.175)"><tspan
                 id="tspan70"
                 sodipodi:role="line"
                 y="0"
                 x="0 3.5215554 6.500546 11.660034 20.115862 25.193455 31.100248 37.437 43.558777 46.537766 50.059322 53.038311 58.945107 65.28186 71.618614 76.88047 79.736618 82.592758">tiveconditionnelle</tspan></text>
          </g>
          <g
             transform="matrix(1.3959707,0,0,1.3959707,241.09876,708.57979)"
             id="g74">
            <path
               inkscape:connector-curvature="0"
               id="path76"
               style="fill:#cee7e9;fill-opacity:1;fill-rule:nonzero;stroke:#0a878f;stroke-width:0.3985;stroke-linecap:butt;stroke-linejoin:miter;stroke-miterlimit:10;stroke-dasharray:none;stroke-opacity:1"
               d="M 42.43768,-113.3873 0,-93.88669 -42.43768,-113.3873 0,-132.8879 Z" />
          </g>
          <g
             id="g78"
             transform="matrix(1.3959707,0,0,1.3959707,-161.48942,-381.59097)">
            <text
               id="text82"
               style="font-variant:normal;font-weight:normal;font-size:10.0364px;font-family:Utopia;-inkscape-font-specification:Utopia-Regular;writing-mode:lr-tb;fill:#000000;fill-opacity:1;fill-rule:nonzero;stroke:none"
               transform="matrix(1,0,0,-1,278.787,664.032)"><tspan
                 id="tspan80"
                 sodipodi:role="line"
                 y="0"
                 x="0 6.2325735 11.391257 15.767106">Test</tspan></text>
          </g>
          <g
             id="g84"
             transform="matrix(1.3959707,0,0,1.3959707,-161.48942,-381.59097)">
            <text
               id="text88"
               style="font-variant:normal;font-weight:normal;font-size:10.2371px;font-family:Utopia;-inkscape-font-specification:Utopia-Regular;writing-mode:lr-tb;fill:#000000;fill-opacity:1;fill-rule:nonzero;stroke:none"
               transform="matrix(1,0,0,-0.98039187,235.975,599.94)"><tspan
                 id="tspan86"
                 sodipodi:role="line"
                 y="0"
                 x="0 3.572741 9.9094934 14.37286 17.884178 21.866404 28.070074 33.147667 36.66922 39.648212 45.555004 51.891758 59.538857 64.810951 69.786171 75.048035 80.125626 86.329292 89.850853 95.112709 100.37457">Instructionsexécutées</tspan></text>
          </g>
          <g
             id="g90"
             transform="matrix(1.3959707,0,0,1.3959707,-161.48942,-381.59097)">
            <text
               id="text94"
               style="font-variant:normal;font-weight:normal;font-size:10.2371px;font-family:Utopia;-inkscape-font-specification:Utopia-Regular;writing-mode:lr-tb;fill:#000000;fill-opacity:1;fill-rule:nonzero;stroke:none"
               transform="matrix(1,0,0,-0.98039187,236.199,586.391)"><tspan
                 id="tspan92"
                 sodipodi:role="line"
                 y="0"
                 x="0 4.463367 10.636326 13.502708 21.958536 25.480093 30.741951 35.205318 41.920841 45.903069 51.164925 54.686481 60.593277 66.796944 70.779175 77.115921 85.581985 92.072296 96.05452 101.40852">siletestretourneVrai</tspan></text>
          </g>
          <g
             transform="matrix(1.3959707,0,0,1.3959707,241.09876,708.57979)"
             id="g96">
            <path
               inkscape:connector-curvature="0"
               id="path98"
               style="fill:#ffffff;fill-opacity:1;fill-rule:nonzero;stroke:#a70002;stroke-width:0.3985;stroke-linecap:butt;stroke-linejoin:miter;stroke-miterlimit:10;stroke-dasharray:none;stroke-opacity:1"
               d="m -59.89331,-229.6094 h 119.7866 v 28.34679 h -119.7866 z" />
          </g>
          <g
             id="g100"
             transform="matrix(1.3959707,0,0,1.3959707,-161.48942,-381.59097)">
            <text
               id="text104"
               style="font-variant:normal;font-weight:normal;font-size:10.2371px;font-family:Utopia;-inkscape-font-specification:Utopia-Regular;writing-mode:lr-tb;fill:#a70002;fill-opacity:1;fill-rule:nonzero;stroke:none"
               transform="matrix(1,0,0,-0.98039187,275.481,561.793)"><tspan
                 id="tspan102"
                 sodipodi:role="line"
                 y="0"
                 x="0 6.1217737 10.103998 15.365857 20.719851">break</tspan></text>
          </g>
          <g
             id="g106"
             transform="matrix(1.3959707,0,0,1.3959707,-161.48942,-381.59097)">
            <text
               id="text110"
               style="font-variant:normal;font-weight:normal;font-size:10.2371px;font-family:Utopia;-inkscape-font-specification:Utopia-Regular;writing-mode:lr-tb;fill:#000000;fill-opacity:1;fill-rule:nonzero;stroke:none"
               transform="matrix(1,0,0,-0.98039187,282.291,533.699)"><tspan
                 id="tspan108"
                 sodipodi:role="line"
                 y="0"
                 x="0 4.0641208 8.1282415">...</tspan></text>
          </g>
          <g
             transform="matrix(1.3959707,0,0,1.3959707,241.09876,708.57979)"
             id="g112">
            <path
               inkscape:connector-curvature="0"
               id="path114"
               style="fill:#ffffff;fill-opacity:1;fill-rule:nonzero;stroke:#a70002;stroke-width:0.3985;stroke-linecap:butt;stroke-linejoin:miter;stroke-miterlimit:10;stroke-dasharray:none;stroke-opacity:1"
               d="m -59.89331,-291.9727 h 119.7866 v 28.34679 h -119.7866 z" />
          </g>
          <g
             id="g116"
             transform="matrix(1.3959707,0,0,1.3959707,-161.48942,-381.59097)">
            <text
               id="text120"
               style="font-variant:normal;font-weight:normal;font-size:10.2371px;font-family:Utopia;-inkscape-font-specification:Utopia-Regular;writing-mode:lr-tb;fill:#a70002;fill-opacity:1;fill-rule:nonzero;stroke:none"
               transform="matrix(1,0,0,-0.98039187,267.585,499.622)"><tspan
                 id="tspan118"
                 sodipodi:role="line"
                 y="0"
                 x="0 5.0775919 10.984386 17.32114 20.832458 23.811447 30.148201 36.351871">continue</tspan></text>
          </g>
          <g
             id="g122"
             transform="matrix(1.3959707,0,0,1.3959707,-161.48942,-381.59097)">
            <text
               id="text126"
               style="font-variant:normal;font-weight:normal;font-size:10.2371px;font-family:Utopia;-inkscape-font-specification:Utopia-Regular;writing-mode:lr-tb;fill:#000000;fill-opacity:1;fill-rule:nonzero;stroke:none"
               transform="matrix(1,0,0,-0.98039187,282.291,471.337)"><tspan
                 id="tspan124"
                 sodipodi:role="line"
                 y="0"
                 x="0 4.0641208 8.1282415">...</tspan></text>
          </g>
          <g
             transform="matrix(1.3959707,0,0,1.3959707,241.09876,708.57979)"
             id="g128">
            <path
               inkscape:connector-curvature="0"
               id="path130"
               style="fill:#e5e5e5;fill-opacity:1;fill-rule:nonzero;stroke:#000000;stroke-width:0.3985;stroke-linecap:butt;stroke-linejoin:miter;stroke-miterlimit:10;stroke-dasharray:none;stroke-opacity:1"
               d="m -59.89331,-428.5221 h 119.7866 v 40.65453 h -119.7866 z" />
          </g>
          <g
             id="g132"
             transform="matrix(1.3959707,0,0,1.3959707,-161.48942,-381.59097)">
            <text
               id="text136"
               style="font-variant:normal;font-weight:normal;font-size:10.2371px;font-family:Utopia;-inkscape-font-specification:Utopia-Regular;writing-mode:lr-tb;fill:#000000;fill-opacity:1;fill-rule:nonzero;stroke:none"
               transform="matrix(1,0,0,-0.98039187,245.978,382.777)"><tspan
                 id="tspan134"
                 sodipodi:role="line"
                 y="0"
                 x="0 3.572741 9.9094934 14.37286 17.884178 21.866404 28.070074 33.147667 36.66922 39.648212 45.555004 51.891758 59.538857 64.892853 71.116997 75.09922 80.361076">Instructionsaprès</tspan></text>
          </g>
          <g
             id="g138"
             transform="matrix(1.3959707,0,0,1.3959707,-161.48942,-381.59097)">
            <text
               id="text142"
               style="font-variant:normal;font-weight:normal;font-size:10.2371px;font-family:Utopia;-inkscape-font-specification:Utopia-Regular;writing-mode:lr-tb;fill:#000000;fill-opacity:1;fill-rule:nonzero;stroke:none"
               transform="matrix(1,0,0,-0.98039187,248.406,369.228)"><tspan
                 id="tspan140"
                 sodipodi:role="line"
                 y="0"
                 x="0 2.8561454 11.404107 15.867474 19.38903 23.371254 29.574924 34.652515 38.174072 44.377743 48.359966 56.826031 59.805023 63.326576 68.588432 72.570663 77.924652">lastructureitéra-</tspan></text>
          </g>
          <g
             id="g144"
             transform="matrix(1.3959707,0,0,1.3959707,-161.48942,-381.59097)">
            <text
               id="text148"
               style="font-variant:normal;font-weight:normal;font-size:10.2371px;font-family:Utopia;-inkscape-font-specification:Utopia-Regular;writing-mode:lr-tb;fill:#000000;fill-opacity:1;fill-rule:nonzero;stroke:none"
               transform="matrix(1,0,0,-0.98039187,244.465,355.679)"><tspan
                 id="tspan146"
                 sodipodi:role="line"
                 y="0"
                 x="0 3.5215554 6.500546 11.660034 20.115862 25.193455 31.100248 37.437 43.558777 46.537766 50.059322 53.038311 58.945107 65.28186 71.618614 76.88047 79.736618 82.592758">tiveconditionnelle</tspan></text>
          </g>
          <g
             transform="matrix(1.3959707,0,0,1.3959707,241.09876,708.57979)"
             id="g150">
            <path
               inkscape:connector-curvature="0"
               id="path152"
               style="fill:#edcccc;fill-opacity:1;fill-rule:nonzero;stroke:#a70002;stroke-width:0.3985;stroke-linecap:butt;stroke-linejoin:miter;stroke-miterlimit:10;stroke-dasharray:none;stroke-opacity:1"
               d="m 38.53511,-450.7151 h -77.07022 c -2.20094,0 -3.98511,-1.7842 -3.98511,-3.9851 v -20.3766 c 0,-2.2009 1.78417,-3.9851 3.98511,-3.9851 h 77.07022 c 2.20094,0 3.98511,1.7842 3.98511,3.9851 v 20.3766 c 0,2.2009 -1.78417,3.9851 -3.98511,3.9851 z" />
          </g>
          <g
             id="g154"
             transform="matrix(1.3959707,0,0,1.3959707,-161.48942,-381.59097)">
            <text
               id="text158"
               style="font-variant:normal;font-weight:normal;font-size:10.0364px;font-family:Utopia;-inkscape-font-specification:Utopia-Regular;writing-mode:lr-tb;fill:#000000;fill-opacity:1;fill-rule:nonzero;stroke:none"
               transform="matrix(1,0,0,-1,280.914,312.508)"><tspan
                 id="tspan156"
                 sodipodi:role="line"
                 y="0"
                 x="0 5.8210831 8.7416611">Fin</tspan></text>
          </g>
          <g
             transform="matrix(1.3959707,0,0,1.3959707,241.09876,708.57979)"
             id="g160">
            <path
               inkscape:connector-curvature="0"
               id="path162"
               style="fill:none;stroke:#000000;stroke-width:0.79701;stroke-linecap:butt;stroke-linejoin:miter;stroke-miterlimit:10;stroke-dasharray:none;stroke-opacity:1"
               d="M 0,-14.37263 V -33.57684" />
          </g>
          <path
             inkscape:connector-curvature="0"
             id="path164"
             style="fill:#000000;fill-opacity:1;fill-rule:nonzero;stroke:none;stroke-width:1.39597"
             d="m 241.09876,658.09157 2.89273,5.78546 -2.89273,-2.16947 -2.89273,2.16947" />
          <g
             transform="matrix(1.3959707,0,0,1.3959707,241.09876,708.57979)"
             id="g166">
            <path
               inkscape:connector-curvature="0"
               id="path168"
               style="fill:none;stroke:#000000;stroke-width:0.79701;stroke-linecap:butt;stroke-linejoin:miter;stroke-miterlimit:10;stroke-dasharray:none;stroke-opacity:1"
               d="M 0,-77.22014 V -91.01477" />
          </g>
          <path
             inkscape:connector-curvature="0"
             id="path170"
             style="fill:#000000;fill-opacity:1;fill-rule:nonzero;stroke:none;stroke-width:1.39597"
             d="m 241.09876,577.90995 2.89273,5.78546 -2.89273,-2.16962 -2.89273,2.16962" />
          <g
             transform="matrix(1.3959707,0,0,1.3959707,241.09876,708.57979)"
             id="g172">
            <path
               inkscape:connector-curvature="0"
               id="path174"
               style="fill:none;stroke:#000000;stroke-width:0.79701;stroke-linecap:butt;stroke-linejoin:miter;stroke-miterlimit:10;stroke-dasharray:none;stroke-opacity:1"
               d="m 0,-133.1693 v -30.7231" />
          </g>
          <path
             inkscape:connector-curvature="0"
             id="path176"
             style="fill:#000000;fill-opacity:1;fill-rule:nonzero;stroke:none;stroke-width:1.39597"
             d="m 241.09876,476.17481 2.89273,5.78546 -2.89273,-2.16947 -2.89273,2.16947" />
          <g
             id="g178"
             transform="matrix(1.3959707,0,0,1.3959707,-161.48942,-381.59097)">
            <text
               id="text182"
               style="font-variant:normal;font-weight:normal;font-size:10.0364px;font-family:Utopia;-inkscape-font-specification:Utopia-Regular;writing-mode:lr-tb;fill:#000000;fill-opacity:1;fill-rule:nonzero;stroke:none"
               transform="matrix(1,0,0,-1,266.358,627.593)"><tspan
                 id="tspan180"
                 sodipodi:role="line"
                 y="0"
                 x="0 6.3630457 10.267186 15.516197">Vrai</tspan></text>
          </g>
          <g
             transform="matrix(1.3959707,0,0,1.3959707,241.09876,708.57979)"
             id="g184">
            <path
               inkscape:connector-curvature="0"
               id="path186"
               style="fill:none;stroke:#000000;stroke-width:0.79701;stroke-linecap:butt;stroke-linejoin:miter;stroke-miterlimit:10;stroke-dasharray:none;stroke-opacity:1"
               d="m 0,-326.7526 v -28.3468 0 h 127.5606 v 241.7121 H 45.30974" />
          </g>
          <path
             inkscape:connector-curvature="0"
             id="path188"
             style="fill:#000000;fill-opacity:1;fill-rule:nonzero;stroke:none;stroke-width:1.39597"
             d="m 300.73393,550.29444 5.78546,-2.89273 -2.16961,2.89273 2.16961,2.89273" />
          <g
             transform="matrix(1.3959707,0,0,1.3959707,241.09876,708.57979)"
             id="g190">
            <path
               inkscape:connector-curvature="0"
               id="path192"
               style="fill:none;stroke:#000000;stroke-width:0.79701;stroke-linecap:butt;stroke-linejoin:miter;stroke-miterlimit:10;stroke-dasharray:none;stroke-opacity:1"
               d="M -42.71947,-113.3873 H -113.5865 V -373.4949 H 0 v 0 -11.5832" />
          </g>
          <path
             inkscape:connector-curvature="0"
             id="path194"
             style="fill:#000000;fill-opacity:1;fill-rule:nonzero;stroke:none;stroke-width:1.39597"
             d="m 241.09876,167.4062 2.89273,5.78546 -2.89273,-2.16962 -2.89273,2.16962" />
          <g
             id="g196"
             transform="matrix(1.3959707,0,0,1.3959707,-161.48942,-381.59097)">
            <text
               id="text200"
               style="font-variant:normal;font-weight:normal;font-size:10.0364px;font-family:Utopia;-inkscape-font-specification:Utopia-Regular;writing-mode:lr-tb;fill:#000000;fill-opacity:1;fill-rule:nonzero;stroke:none"
               transform="matrix(1,0,0,-1,199.223,671.208)"><tspan
                 id="tspan198"
                 sodipodi:role="line"
                 y="0"
                 x="0 5.8210831 11.070094 17.152122">Faux</tspan></text>
          </g>
          <g
             transform="matrix(1.3959707,0,0,1.3959707,241.09876,708.57979)"
             id="g202">
            <path
               inkscape:connector-curvature="0"
               id="path204"
               style="fill:none;stroke:#000000;stroke-width:0.79701;stroke-linecap:butt;stroke-linejoin:miter;stroke-miterlimit:10;stroke-dasharray:none;stroke-opacity:1"
               d="m 0,-428.7214 v -19.2042" />
          </g>
          <path
             inkscape:connector-curvature="0"
             id="path206"
             style="fill:#000000;fill-opacity:1;fill-rule:nonzero;stroke:none;stroke-width:1.39597"
             d="m 241.09876,79.672926 2.89273,5.785461 -2.89273,-2.169618 -2.89273,2.169618" />
          <g
             transform="matrix(1.3959707,0,0,1.3959707,241.09876,708.57979)"
             id="g208">
            <path
               inkscape:connector-curvature="0"
               id="path210"
               style="fill:none;stroke:#a70002;stroke-width:0.79701;stroke-linecap:butt;stroke-linejoin:miter;stroke-miterlimit:10;stroke-dasharray:none;stroke-opacity:1"
               d="M -60.09256,-215.436 H -110.9962" />
          </g>
          <path
             inkscape:connector-curvature="0"
             id="path212"
             style="fill:#a70002;fill-opacity:1;fill-rule:nonzero;stroke:none;stroke-width:1.39597"
             d="m 82.535336,407.83744 5.785461,-2.89273 -2.169478,2.89273 2.169478,2.89273" />
          <g
             transform="matrix(1.3959707,0,0,1.3959707,241.09876,708.57979)"
             id="g214">
            <path
               inkscape:connector-curvature="0"
               id="path216"
               style="fill:none;stroke:#a70002;stroke-width:0.79701;stroke-linecap:butt;stroke-linejoin:miter;stroke-miterlimit:10;stroke-dasharray:none;stroke-opacity:1"
               d="M 60.09256,-277.7993 H 102.6128 V -340.926 H 2.59026" />
          </g>
          <path
             inkscape:connector-curvature="0"
             id="path218"
             style="fill:#a70002;fill-opacity:1;fill-rule:nonzero;stroke:none;stroke-width:1.39597"
             d="m 241.09876,232.65708 5.78546,-2.89273 -2.16947,2.89273 2.16947,2.89273" />
          <text
             id="text222"
             style="font-variant:normal;font-weight:normal;font-size:10.0364px;font-family:Utopia;-inkscape-font-specification:Utopia-Regular;writing-mode:lr-tb;fill:#000000;fill-opacity:1;fill-rule:nonzero;stroke:none"
             transform="matrix(1,0,0,-1,138.655,278.174)"><tspan
               id="tspan220"
               y="0"
               x="0" /></text>
          <text
             id="text226"
             style="font-variant:normal;font-weight:normal;font-size:8.02908px;font-family:Utopia;-inkscape-font-specification:Utopia-Regular;writing-mode:lr-tb;fill:#000000;fill-opacity:1;fill-rule:nonzero;stroke:none"
             transform="matrix(1,0,0,-1,145.026,278.174)"><tspan
               id="tspan224"
               sodipodi:role="line"
               x="0"
               y="0" /></text>
          <text
             id="text230"
             style="font-variant:normal;font-weight:normal;font-size:10.0364px;font-family:Utopia;-inkscape-font-specification:Utopia-Regular;writing-mode:lr-tb;fill:#000000;fill-opacity:1;fill-rule:nonzero;stroke:none"
             transform="matrix(1,0,0,-1,174.818,278.174)"><tspan
               id="tspan228"
               sodipodi:role="line"
               x="0"
               y="0" /></text>
          <text
             id="text234"
             style="font-variant:normal;font-weight:normal;font-size:10.9091px;font-family:LMMono10;-inkscape-font-specification:LMMono10-Regular;writing-mode:lr-tb;fill:#000000;fill-opacity:1;fill-rule:nonzero;stroke:none"
             transform="matrix(1,0,0,-1,367.057,278.174)"><tspan
               id="tspan232"
               sodipodi:role="line"
               x="0"
               y="0" /></text>
          <text
             id="text238"
             style="font-variant:normal;font-weight:normal;font-size:10.0364px;font-family:Utopia;-inkscape-font-specification:Utopia-Regular;writing-mode:lr-tb;fill:#000000;fill-opacity:1;fill-rule:nonzero;stroke:none"
             transform="matrix(1,0,0,-1,397.952,278.174)"><tspan
               id="tspan236"
               sodipodi:role="line"
               x="0"
               y="0" /></text>
          <text
             id="text242"
             style="font-variant:normal;font-weight:normal;font-size:10.9091px;font-family:LMMono10;-inkscape-font-specification:LMMono10-Regular;writing-mode:lr-tb;fill:#000000;fill-opacity:1;fill-rule:nonzero;stroke:none"
             transform="matrix(1,0,0,-1,408.817,278.174)"><tspan
               id="tspan240"
               sodipodi:role="line"
               x="0"
               y="0" /></text>
          <text
             id="text246"
             style="font-variant:normal;font-weight:bold;font-size:14.3462px;font-family:LMSans10;-inkscape-font-specification:LMSans10-Bold;writing-mode:lr-tb;fill:#0a878f;fill-opacity:1;fill-rule:nonzero;stroke:none"
             transform="matrix(1,0,0,-1,35.433,225.905)"><tspan
               id="tspan244"
               y="0"
               x="0" /></text>
          <text
             id="text254"
             style="font-variant:normal;font-weight:bold;font-size:14.3462px;font-family:LMMonoLt10;-inkscape-font-specification:LMMonoLt10-Bold;writing-mode:lr-tb;fill:#0a878f;fill-opacity:1;fill-rule:nonzero;stroke:none"
             transform="matrix(1,0,0,-1,284.662,225.905)"><tspan
               id="tspan252"
               sodipodi:role="line"
               x="0"
               y="0" /></text>
          <text
             id="text258"
             style="font-variant:normal;font-weight:bold;font-size:14.3462px;font-family:LMSans10;-inkscape-font-specification:LMSans10-Bold;writing-mode:lr-tb;fill:#0a878f;fill-opacity:1;fill-rule:nonzero;stroke:none"
             transform="matrix(1,0,0,-1,322.32,225.905)"><tspan
               id="tspan256"
               y="0"
               x="0" /></text>
          <text
             id="text262"
             style="font-variant:normal;font-weight:bold;font-size:10.0364px;font-family:Utopia;-inkscape-font-specification:Utopia-Bold;writing-mode:lr-tb;fill:#000000;fill-opacity:1;fill-rule:nonzero;stroke:none"
             transform="matrix(1,0,0,-1,35.433,195.726)"><tspan
               id="tspan260"
               sodipodi:role="line"
               x="0"
               y="0" /></text>
          <text
             xml:space="preserve"
             id="text924"
             style="font-style:normal;font-weight:normal;font-size:30px;line-height:1.25;font-family:sans-serif;shape-inside:url(#rect926);fill:#000000;fill-opacity:1;stroke:none" />
          <g
             transform="matrix(1,0,0,-1,35.433,182.177)"
             id="text266"
             style="font-variant:normal;font-weight:normal;font-size:10.0364px;font-family:Utopia;-inkscape-font-specification:Utopia-Regular;writing-mode:lr-tb;fill:#000000;fill-opacity:1;fill-rule:nonzero;stroke:none" />
          <text
             xml:space="preserve"
             style="font-style:normal;font-weight:normal;font-size:30px;line-height:1.25;font-family:sans-serif;fill:#000000;fill-opacity:1;stroke:none;stroke-width:0.75"
             x="-191.20232"
             y="-220.64342"
             id="text933"
             transform="scale(1,-1)"><tspan
               sodipodi:role="line"
               id="tspan931"
               x="-191.20232"
               y="-220.64342"
               style="stroke-width:0.75">-</tspan></text>
        </g>
      </g>
    </g>
  </g>
</svg>
